<?xml version="1.0" standalone="no"?>
<!DOCTYPE svg PUBLIC "-//W3C//DTD SVG 1.1//EN" "http://www.w3.org/Graphics/SVG/1.1/DTD/svg11.dtd" >
<svg xmlns="http://www.w3.org/2000/svg">
<metadata></metadata>
<defs>
<font id="gnuregular" horiz-adv-x="2048" >
<font-face units-per-em="2048" ascent="1845" descent="-203" />
<missing-glyph horiz-adv-x="512" />
<glyph />
<glyph />
<glyph unicode="&#xd;" />
<glyph />
<glyph unicode=" "  horiz-adv-x="512" />
<glyph unicode="&#x09;" horiz-adv-x="512" />
<glyph unicode="&#xa0;" horiz-adv-x="512" />
<glyph unicode="!" horiz-adv-x="489" d="M66 299q0 116 81 145q24 -7 70 -4q31 2 66 2h3h7q100 0 123 -71q-15 -34 -15 -70q0 -13 11 -88q10 -62 10 -84l2 2q0 -85 -80 -127q-15 0 -41 1t-39 1q-49 0 -76 2q-95 8 -116 80q4 24 4 45q0 27 -6 82q-10 59 -4 84zM68 1464q0 64 4 95q30 55 75 73q-8 1 2 2q30 4 119 2 q109 -3 135 -47q16 -31 19 -147l-4 -2q9 -129 -43 -410q-15 -83 -36.5 -192t-30 -156t-9.5 -66q-17 -20 -37 -20q-16 0 -76 31q-25 123 -43.5 226t-25.5 147.5t-6 43.5q-43 222 -43 420zM190 1464h21v19h-21v-19z" />
<glyph unicode="&#x22;" horiz-adv-x="710" d="M68 1546q0 31 31.5 52.5t66.5 21.5q68 0 127 -43l-8 -530h-2q-6 -18 -23 -29.5t-36 -16.5t-42 -9q-5 -1 -8 -1q-33 3 -65 25q-41 27 -35 57zM436 1042l2 529q34 55 111 55q55 0 96 -47l-20 -551q-53 -35 -99 -35q-32 0 -90 49z" />
<glyph unicode="#" horiz-adv-x="1615" d="M29 502q23 98 34 112q27 65 89 68l225 -16q78 116 78 184q0 27 -6 51q-25 32 -148 35q-95 3 -115 43q12 92 48 139t90 47q15 0 76.5 -6t80.5 -6q58 -3 85.5 18t39.5 74q27 113 66 223q53 147 141 150q56 3 127 -62q-14 -61 -63 -184q-51 -126 -48 -168q0 -36 43 -51 q33 -11 74 -4q0 -27 15 -27q18 7 55 19q50 20 90 20q-37 6 -37 25q0 13 27 43q25 27 28 51q24 135 62.5 214t103.5 116q16 -5 88 -11q57 -6 68 -47q-24 -67 -66 -176q-36 -95 -47 -184q37 -33 78 -33h86q88 3 88 -61q0 -172 -131 -172q-16 0 -73.5 6.5t-75.5 5.5 q-74 0 -112 -45.5t-34 -134.5q-6 -94 76 -94q58 0 108 8q82 -3 82 -64q3 -64 -39 -110.5t-102 -46.5q-16 0 -78.5 9.5t-79.5 8.5q-38 3 -66 -21t-40 -73q-41 -154 -55 -201q-22 -64 -52.5 -105t-76.5 -69q-6 3 -76 12q-44 6 -68 27q0 2 -1 7t-1 7v15q0 49 53 147 q52 98 52 147q0 52 -45 97q-46 13 -84 10q-104 0 -140 -51q-29 -56 -45 -144q-17 -110 -37 -151q-37 -84 -114 -123q-106 0 -148 51l2 8q-5 63 47 168q54 100 64 164q-27 68 -94 68q-18 2 -39.5 3t-47.5 1.5t-40 1.5q-33 10 -45 37zM317 514l43 37h-24zM440 483h13v13h-13 v-13zM459 692h24v13q-8 0 -24 -13zM526 625l68 -13l-8 -8q-4 0 -24 11.5t-27 11.5h-5q-2 0 -4 -2zM551 705h12v12h-12v-12zM606 760h12v12h-12v-12zM612 938q2 0 5.5 -1t5.5 -1h10q22 0 22 6q-2 2 -6 2l-12 12zM649 649h13v13h-13v-13zM659 735q1 -22 25.5 -41.5t24.5 -21.5 q0 -1 -0.5 -2t-1.5 -3.5t-2 -4.5q25 7 124 10q73 0 111 51l-12 12q-4 12 -4 21q0 24 47 71l-13 7q0 6 -4 26t-4 25q0 17 21 28q24 -24 37 -24h6l2 2q-66 38 -164 41q-96 0 -190 -43q32 -3 32 -29q0 -16 -18 -59q-17 -38 -17 -66zM662 526h43l-37 13zM668 1106h18v12h-18v-12 zM668 1204h24l-10 13zM735 1024l39 -12l-12 12h-27zM780 514h19v18h-19v-18zM805 649h18v13h-18v-13zM848 496h18v12h-18v-12zM860 557h25v12q-2 2 -4 2h-4q-3 0 -17 -14zM891 999h18v19h-18v-19zM940 416h12v18h-12v-18zM995 1049l19 -25l12 12q-3 1 -31 13zM1001 748h19 v18h-19v-18zM1057 938h18v12h-18v-12zM1106 1012h12v18h-12v-18zM1112 1106l12 -12zM1167 913h27v13q-14 0 -27 -13zM1167 1124h19v19h-19v-19zM1194 1055h16v18h-16v-18zM1280 1094h16v12h-16v-12z" />
<glyph unicode="$" horiz-adv-x="999" d="M39 451q2 64 20.5 93t59.5 29q21 0 74 -12q59 -10 77 -8q13 -16 43 -137q20 -89 95 -111q51 17 51 57q0 12 -12.5 52t-12.5 53q0 34 35 49q-38 41 -33 76l2 16l25 23q-39 50 -182 168q-7 6 -24.5 20.5t-24 19.5t-21 17.5t-21 18t-17.5 15.5t-17 16l-14 14t-13.5 15 t-9.5 13q-76 109 -76 250q0 133 49 221q41 71 131 115l158 76q68 145 119 151q34 0 61 -67q-4 -6 -4 -19q-3 -31 59 -80q71 -4 123 -39q85 -54 113 -71q91 -135 88 -252q0 -19 -4 -51q-29 -45 -102 -45q-26 0 -66 6q-44 8 -66 8q-35 18 -47 113q-5 40 -21 58t-46 15l-15 -2 q-48 -62 -51 -151q0 -29 33 -187q42 -36 88.5 -71.5t105 -78.5t87.5 -65q118 -124 127 -331l-5 -5q12 -161 -92 -276q-21 -64 -110 -94q-88 -32 -144 -49q-71 -35 -71 -105q0 -32 10 -55q-27 -45 -76 -45q-45 0 -51 51q-10 92 -12 104q-12 59 -74 78l-14 -2 q-115 -14 -209 140q-76 125 -76 258zM184 1317h13v12h-13v-12zM227 1151h19v12h-19v-12zM252 1362h12v18h-12v-18zM258 264h25l-13 12zM283 1016l30 24h-6zM283 1335h18v21h-18v-21zM295 1151h12v12h-12v-12zM307 1233q2 -37 38.5 -72t74.5 -35q18 58 18 113q0 43 -12 78 q-21 18 -43 18q-29 0 -51.5 -33t-24.5 -69zM362 1071l19 25h-19v-25zM395 1028l25 -24l6 12q-6 12 -27 12h-4zM438 739h25v13h-4l-4 2q-8 0 -17 -15zM461 1268l2 -6h31v18q-12 4 -13 4q-20 0 -20 -16zM469 807q3 -1 23 -13t26 -12q9 0 19 13q-10 10 -31 10zM469 1169h18v19 h-18v-19zM481 571h13q8 0 33.5 6.5t33.5 6.5h-37h-10q-23 0 -33 -13zM481 1040h19v13h-19v-13zM518 1460h12v19h-12v-19zM524 1362h19v18h-19v-18zM532 489q0 -5 1.5 -28.5t2.5 -41.5t-1 -36q0 -82 57 -82q58 0 70 59q15 72 40 82q-32 13 -53 68q-17 39 -76 45 q-1 -7 -21 -31.5t-20 -34.5zM561 684l19 -12l-7 12h-12zM580 1485h18v12h-18v-12zM813 461h18v18h-18v-18zM813 641h18v18h-18v-18zM813 1329h18v12h-18v-12z" />
<glyph unicode="%" horiz-adv-x="1308" d="M80.5 334q-0.5 7 2 10.5t5.5 10t8.5 12.5t12.5 14l30 31q9 11 52 50t53 52q31 36 45 52t23.5 26t46 49t90.5 98q3 10 44 55.5t88.5 97.5t59.5 69q17 24 37 64.5t27 49.5q63 56 71 64q21 20 90 106q4 5 18.5 16t24.5 29q27 50 80 96q6 5 23 20t26.5 23.5t22.5 18t22 12.5 q12 -5 18.5 -8t10.5 -6t5 -5l3.5 -7t5.5 -9l35 -55q7 -10 -13 -36t-13 -36q6 -15 -9.5 -40t-17.5 -35q-205 -227 -325 -352t-163.5 -163t-64.5 -42q17 4 -59 -107.5t-195 -273.5q-18 -3 -27 -15q-5 -4 -15.5 -55t-14.5 -55q-17 -17 -37 -15q-7 6 -8 4q-2 -3 -25 11 q-24 16 -45.5 62.5t-22.5 47.5q-3 5 -9 17l-7.5 15t-5 11.5t-3.5 11t-0.5 9.5zM100 1058.5q0 9.5 2 29.5t2 28q2 40 29 82q18 33 51 76q7 9 36 32t32 23l14 3q13 2 25.5 3.5t27.5 -0.5q25 -2 150 -22q10 -4 33 -37l47 -105q6 -12 7 -16.5t2 -16.5t3 -26q4 -22 -1 -45t-5 -39 q0 -19 -8 -27.5t-25 -21.5t-30 -35q-14 -24 -22 -28.5t-15 -0.5t-27 -6l-19 -9.5t-14 -6t-12 -3.5t-16.5 -4.5t-22.5 -6.5q-36 -11 -48.5 -12t-39.5 5q-26 7 -39 18.5t-35 43.5q-13 18 -37.5 38t-33.5 36q-6 12 -8.5 26.5t-2.5 24zM221 1108q-2 -13 5.5 -29t19 -31.5 t12.5 -17.5q13 -15 25.5 -21t18.5 -5l7 2q9 2 23.5 4t25 4t15.5 6q12 -5 21.5 1t13.5 15l4 8q4 15 10 15q1 -1 3 -1t2 2q0 4 -5 27q-5 27 9 33q4 2 -7 12q-3 4 -12 11l-80 67l-45 -6q-1 -1 -3.5 -4.5t-10 -12.5t-15.5 -20q-5 -6 -12 -13.5t-10 -11t-6.5 -9t-5.5 -11 t-3 -14.5zM696 592q0 11 4.5 23t8.5 19.5t10.5 17t7.5 10.5q2 2 17 11.5t26.5 20t11.5 19.5q0 23 95 82q15 10 22 10t13.5 -4t15.5 -2q23 4 86 18q2 0 19 4.5t37 9t30 3.5q8 -1 14 -4.5t9.5 -8t12.5 -15.5t19 -22q11 -12 14.5 -19t3 -13.5t3.5 -29t14 -54.5q19 -56 18 -58.5 t4 -17.5q5 -12 6 -23t-3.5 -26t-7.5 -24t-12.5 -31t-14.5 -33q-11 -26 -20 -33.5t-24.5 -15t-33.5 -25.5q-20 -21 -36 -27t-27.5 -3t-32.5 -3q-16 -5 -31 -8.5t-36 -6.5t-38 -7q-15 -6 -27 -2.5t-15.5 6t-12 11.5t-15.5 15q-5 3 -30.5 16.5t-42.5 30.5q-14 13 -22.5 29.5 t-12 27t-8.5 34.5q-19 63 -19 98zM863 543l1 -8q1 -2 2.5 -8.5t2 -8.5t2 -7.5t2.5 -7t3 -5.5t3.5 -5.5l4.5 -4.5t6 -4t6.5 -2.5t8.5 -2.5q6 -1 20 -3.5t21 -3t17 0t18 4.5q74 38 82 55q1 4 6 10t5.5 10t-3.5 17q-3 8 -4.5 20t-4 19t-7.5 8q-3 1 -14 10t-27 11l-64 2 q-18 1 -40.5 -8.5t-32.5 -20.5l4 -35q-10 -4 -14.5 -14t-3.5 -18z" />
<glyph unicode="&#x26;" horiz-adv-x="1112" d="M47 449q-3 106 8 143q25 77 68 147q58 92 98 129h5q5 1 14.5 1.5t19.5 0.5q22 0 29 11l-43 30q18 30 18 68q0 39 -47 139q-45 98 -35 152q-8 170 91 275t276 108q151 -13 247 -99.5t93 -230.5q-3 -163 -101 -291q-33 -3 -57 -55q-18 -55 -61 -55q-8 0 -26 12t-23 12 q-13 0 -23 -20q49 -22 66 -86q24 -93 38 -115q38 -47 76 -47q20 0 35 12q14 24 14 62q0 65 2 67q10 56 58 74l96 2q38 1 61 -33t25 -80v-2q0 -29 -25 -96q-24 -55 -24 -92q0 -23 4 -35q-24 -56 -49 -100q-38 -71 -33 -107q-5 -34 51 -135q64 -85 58 -154q-35 -35 -119 -38 l-83 9h-1h-1h-1h-1h-1h-1h-1h-1l-1 1h-1h-1h-1h-1h-1h-1h-1h-1h-1h-1l-1 1h-1h-1h-1h-1h-1h-1h-1h-1h-1h-1l-1 1h-1h-1h-1h-1h-1h-1h-1h-1h-1h-1h-1l-1 1h-1h-1h-1h-1h-1h-1h-1h-1h-1l-1 1h-1h-1h-1h-2q-24 55 -66 55q-13 2 -117 -47q-60 -41 -174 -45q-183 -3 -293 129 q-88 130 -94 320zM209 412h18v18h-18v-18zM209 635l37 -12zM246 449h18v12h-18v-12zM313 659h13v13h-13v-13zM319 535l50 -25q-4 -16 -4 -27q0 -10 8 -47.5t8 -46.5q0 -21 -12 -33l8 -12l24 25q34 -34 31 -43q2 0 7 -1t7 -1h17q48 0 86 38q62 59 74 62q-1 0 -5 -1t-6 -1h-8 q-43 0 -61 53q-29 72 -43 84q10 10 12 10q4 0 15.5 -7t15.5 -7l12 4q-4 8 -4 12q0 12 31 21q7 2 20.5 5t20.5 5q-17 14 -29 14q-16 0 -45 -26q-28 -25 -49 -25q-26 39 -51 39q-16 0 -52 -39q-32 -37 -55 -37q-9 0 -23 7zM322 1280h47v6q-3 0 -14.5 2t-14.5 2q-11 0 -18 -10z M332 727h18v12h-18v-12zM332 1114h18v12h-18v-12zM332 1212h24l-12 13zM369 672h14v12h-14v-12zM377 838h18v12h-18v-12zM389 733h19v19h-19v-19zM389 1133h19v18h-19v-18zM414 911q20 -10 20 -30q0 -13 -8 -25l55 37q-6 4 -33.5 7t-33.5 11zM426 758h12v18h-12v-18z M444 1255q-1 -49 35 -80.5t88 -29.5l-2 10q-5 38 70 113q-1 2 -13 20.5t-12 26.5q0 9 11 20q-55 64 -109 64q-68 -36 -68 -144zM457 623q6 28 59 61q22 14 42.5 26t29.5 16.5t10 6.5q-40 -21 -84 -45q-48 -26 -57 -65zM481 782l4 -2q7 0 20 17.5t21 17.5h4q1 0 3.5 -1 t3.5 -1q2 -2 2 -8v-2q0 -15 -27 -12q-26 6 -31 -9zM487 1047q3 -13 45 -13q32 0 23 -30h25q-37 37 -37 43h-56zM487 1120h19v19h-19v-19zM543 283q4 2 19.5 7t24 10.5t11.5 12.5q-4 2 -10 2q-8 0 -25.5 -16t-19.5 -16zM555 838h18v12h-18v-12zM592 672h12v12h-12v-12z M610 479l43 -12l-6 12h-37zM623 522q19 -3 55 13q-9 12 -21 12q-25 0 -34 -25zM623 838h18v12h-18v-12zM623 1157l43 -12l-13 12h-30zM647 412q4 4 17 4q8 0 29 -7.5t28 -7.5q11 0 24 23q-24 12 -55 12q-40 0 -43 -24zM653 135h33q-21 0 -33 12v-12zM653 758h19v18h-19v-18z M678 1255h18v19h-18v-19zM690 565q9 0 43 37q-1 -1 -13 -5t-21 -10.5t-9 -15.5v-6zM709 492h18v12h-18v-12zM733 344h8q15 0 25 2q22 0 22 10q-9 15 -32 15t-23 -23v-4zM733 1176h19v18h-19v-18zM758 479l18 -24v24h-18zM801 436l55 -24v12l-4 -1q-4 -1 -8 -1q-5 0 -43 14z M856 283l12 6l-12 12v-18zM924 455h12v18h-12v-18z" />
<glyph unicode="'" horiz-adv-x="569" d="M82 1143v473q0 32 31.5 53t66.5 21q70 -3 125 -45l-12 -531h-2q-6 -19 -27 -31t-36 -15t-46 -7q-32 3 -67 24q-39 28 -33 58z" />
<glyph unicode="(" horiz-adv-x="800" d="M59 854q2 101 25 264q18 127 94 242q23 76 23 78q11 38 57 59q-6 24 6 51q9 25 29 51q31 36 47 48q6 5 51 39q35 2 141 -3q17 -1 28.5 -5t16.5 -7.5t16.5 -13t20.5 -15.5q-23 -26 -49 -73q-32 -73 -35 -80q-6 -15 -34 -78q-22 -42 -54 -74l15 -8q-23 -86 -60 -182 q-36 -84 -45 -186l13 -11q-19 -80 -19 -178q3 -81 19 -170q17 -94 36 -168q2 -8 18 -70.5t23 -95.5q50 -62 74 -127q20 -63 72 -125q0 -19 10 -36q10 -16 4 -39q-23 -16 -51 -19q-9 -1 -9 -2t-10 0h-61q-39 -4 -55 -10q-56 15 -88 43q-36 32 -52 63q-22 40 -36 74 q-7 24 -35 74q-95 158 -121 330q-30 197 -25 360z" />
<glyph unicode=")" horiz-adv-x="808" d="M100 -72q27 70 64 140q11 23 32 68.5t33 68.5q37 83 56 139q6 17 12 32t10 26.5t8 33.5q3 -1 7.5 10.5t8.5 24.5t5 14q2 1 5.5 17.5t4.5 17.5q-5 35 8 105q21 91 19 143q-6 130 -19 229q-4 27 -10.5 60t-12.5 55.5t-17 61t-15 55.5q-25 102 -78 215q-44 99 -121 203 q15 7 15 14q2 6 2 20l-17 9q18 24 43 30q16 3 11 4q8 -1 12 -2t9.5 -2.5t12.5 -3.5q40 -4 58 -2l12 -12q18 15 45 12q29 0 41 -12q92 -86 139 -180q12 -25 45 -93t50 -106q65 -137 84 -276q18 -138 12 -297q-12 -232 -94 -439q-87 -215 -250 -393q-30 -4 -45 -8 q-7 -2 -22 -5t-23 -5q-32 -4 -47 -4q-5 0 -7.5 1t-4 2l-4.5 3t-7 4q-12 -10 -51 -10l2 1q13 3 12 5q-4 2 -2 6.5t-2 7.5q-1 1 -29 12z" />
<glyph unicode="*" />
<glyph unicode="+" horiz-adv-x="1105" d="M117 786q0 39 17 73.5t46 47.5l82 -14l100 2l105 2l14 113l-24 82l16 32l-4 66q4 40 35.5 60t75.5 20q53 0 96 -49l-4 -148l-4 -172l94 14l115 -22l73 14v-2q18 -7 24.5 -23.5t7.5 -47t3 -41.5q-1 -9 1 -22t1.5 -23t-6.5 -19q-25 -40 -57 -37l-117 17l-143 -19v-131 l6 -115q-7 -5 -27.5 -20.5t-31.5 -23.5t-27 -15.5t-27 -7.5q-34 0 -92 49l-2 72l20 73l-18 117l-94 23l-117 -29l-61 4q-32 0 -54 32.5t-22 67.5z" />
<glyph unicode="," horiz-adv-x="438" d="M61 207q0 71 2 88l11 88q20 38 45 55q22 11 65 11h23q15 0 42.5 2t35.5 2q84 0 108 -52v-381v-2q-37 -53 -71 -139q-46 -115 -78 -149q-54 -60 -144 -60h-14q-18 32 -18 62t45 112q45 65 45 115q0 17 -6 35q-94 58 -91 213z" />
<glyph unicode="-" horiz-adv-x="694" d="M66 676q0 10 2 14l34 23q-2 0 -4.5 -1t-3.5 -1h-6q-18 0 -18 20q0 4 2 17.5t2 17.5q0 14 -6 20q8 8 8 21q0 3 -2 15t-2 16q0 9 12 24q205 22 518 2l23 -59l-9 -19q-3 -10 9 -16l1 3q1 -1 1 -13v-74q0 -66 -54 -88q-73 7 -245 4q-136 -3 -244 12q0 8 -9 31.5t-9 30.5z M182 719h41q-20 4 -41 4v-4zM217 748q35 0 43 4q-7 10 -22 4l-10 -4l-7.5 -3t-3.5 -1zM238 655h34l-28 7zM260 723l23 -4v4h-23zM289 748q12 -3 33 0q24 6 30 4q-25 7 -63 -4zM295 655h45l-39 7zM324 780l16 6h-10zM330 719q27 -7 39 -25q-5 3 -15 19q-9 9 -24 6zM387 748 h35q-16 16 -35 0zM397 821l25 -6zM403 655l35 7zM432 741q7 2 28.5 5t35.5 6q-15 5 -33 -2z" />
<glyph unicode="." horiz-adv-x="468" d="M59 76q13 41 13 92q0 15 -3 65.5t-3 67.5q0 104 65 152l113 4q130 3 162 -86v2q-8 -55 -5 -131q5 -80 -4 -140q-15 -68 -69 -104q-53 2 -156 2q-89 9 -113 76z" />
<glyph unicode="/" horiz-adv-x="786" d="M78 133q2 8 14 30t14 27q3 17 -6 33q100 274 110 297q12 26 18 26q2 0 3 -3q-14 34 179 797q40 161 63 251l5 5q25 25 45 31q5 2 12 3q22 0 49 -8l39 -12q6 -2 8 -2.5t3.5 -1t2.5 -2t3 -3.5t7.5 -6t14.5 -10q2 -11 7.5 -20.5t8 -20t0.5 -28.5q-1 -5 -3 -25t-3.5 -30 t-5 -26.5t-9.5 -29.5q-16 -33 -32 -86q-11 -37 -27 -125q-5 -29 -16 -70t-13 -55q-6 -19 -39 -121q-32 -91 -49 -110q-27 -121 -51 -212.5t-53 -191t-35 -123.5q-5 -19 -15 -82.5t-12 -72.5l-10 -47q-4 -15 -6.5 -25t-8 -17.5t-8.5 -11t-12.5 -6.5t-14.5 -3.5t-21.5 -2 t-26.5 -2.5q-25 2 -84 31q-26 14 -25 17l-8 3q-15 18 -12 41z" />
<glyph unicode="0" horiz-adv-x="1024" d="M67.5 1097q0.5 21 4.5 23q-7 193 52 316t181 170q71 30 223 30q234 0 338 -143q28 -39 31 -51q32 -103 37 -166q9 -95 29 -610l2 -13v2q0 -35 -23 -153l8 -10q-18 -100 -43 -275q-16 -57 -76 -115q-66 -60 -114 -82q-112 -22 -203 -24q-273 -9 -362 156q-72 138 -84 395 q1 0 4.5 -1t5.5 -1q11 0 33 22l-21 23l-14 -4q1 96 -0.5 189t-3.5 150.5t-3.5 104t-1 67.5zM100 786h17v17h-17v-17zM199 1059l10 12v10zM199 1137h16v16h-16v-16zM209 328h37q15 0 28 10q-9 12 -24 12q-32 0 -41 -22zM221 567l21 23h-11zM264 1442l10 -10h15q15 0 18 10 q-3 12 -20 12t-23 -12zM307 764l12 12h-12v-12zM319 436q13 -10 17 -10h4q12 15 12 18v5h-12q-18 0 -21 -13zM319 645l33 -33l10 11q-25 22 -34 22h-9zM352 1288l10 -10l11 10l-11 12zM362 1059l11 -10v10h-11zM385 262l10 -22v12zM385 688h18q20 -7 17 -80q1 -10 -7.5 -50 t-9.5 -46q2 -19 25 -129q17 -9 39 -57q21 -47 43 -47q13 0 39 16l-12 10q65 77 65 131v4q0 7 12 19q-12 12 -12 26q0 7 6 29t6 27q0 17 -12 26q4 20 4 39q0 9 -2 43t-2 43q0 46 23 62l-23 22v58q0 37 33 40q-33 9 -33 37q0 5 3 26.5t3 29.5q0 14 -6 26q14 18 14 35 q0 8 -7 34t-7 34q0 25 23 41q16 -13 18 -13h4q-38 21 -41 76q-10 85 -12 88q-42 45 -72 45q-26 0 -61 -24q-9 -7 -27.5 -20.5t-27.5 -20.5q22 -9 22 -27q0 -7 -11 -30t-11 -31q0 -28 6 -66q3 -47 6 -65q-10 -17 -10 -31q0 -7 5 -28t5 -29q0 -18 -12 -33q12 -21 12 -41 q0 3 -0.5 0.5t-2.5 -13t-4 -22t-5 -33.5l12 -10v-68q3 -44 -33 -53zM471 164h16v16h-16v-16zM471 1386l12 -10l21 23h-8h-4q-14 0 -21 -13zM471 1485h16v16h-16v-16zM483 219l17 -12h4q12 15 12 18v4h-12q-18 0 -21 -10zM537 121l12 -12v12h-12zM582 240h16v16h-16v-16z M602 338h16v16h-16v-16zM614 1366h43v10q-10 13 -14 13q-9 0 -29 -23zM625 1563h16v16h-16v-16zM635 666h16v16h-16v-16zM647 338l10 -10v10h-10zM680 219l10 -12h4q9 4 19 12q-7 10 -17 10q-13 0 -16 -10zM690 1268q3 -13 19 -13h24v13q-3 12 -20 12t-23 -12zM700 547 l23 -12v12h-23zM723 393h16v17h-16v-17zM723 1147l10 10h-10v-10zM733 1333q15 -12 19 -12h4v4q-5 6 -11 18zM745 1049h17v16h-17v-16zM788 819l11 -10v10h-11zM821 1169h17v17h-17v-17zM831 711h17v16h-17v-16zM831 907q15 -12 19 -12h4v4q-2 7 -10 19zM864 698l13 -10 l10 10l-10 13z" />
<glyph unicode="1" horiz-adv-x="692" d="M8 1282q0 12 21 76q10 30 32 33q38 8 45 12q9 -6 19 -6q27 0 63 33q42 36 64 36q123 170 213 170q46 0 82 -24q4 2 12 2q15 0 53 -35q12 -79 15 -84q-18 -310 -13 -563q0 -58 -10 -92q12 -404 8 -416q0 -15 -12 -27l23 -282q-11 -4 -11 -13q0 -4 5.5 -15t5.5 -15 q-4 -12 -13 -21q-27 -48 -123 -51q-47 0 -90 8q-57 8 -92 8q-47 30 -47 88v11q0 8 2 10l10 12l-4 6q0 384 18 517l3 12q-1 18 -5 80.5t-10.5 168t-11.5 218.5q0 10 -16 26q-25 25 -140 47q-96 18 -96 70zM305 829l10 -10h7q-1 0 1 2.5t9 8.5t16 12h-26q-14 0 -17 -13z M338 281l20 -13v13h-20zM338 1368h16v16h-16v-16zM358 1139h19v16h-19v-16zM403 973l11 -10v10h-11zM436 1006l10 -11l13 11l-13 12zM446 842l23 -13v13h-23zM469 1116l12 -12v12h-12zM481 633h17v16h-17v-16zM481 1348h17v16h-17v-16zM567 1237h19v16h-19v-16z" />
<glyph unicode="2" horiz-adv-x="1003" d="M61 82q0 5 7.5 24.5t7.5 24.5q0 13 -10 23q-5 42 -3 57q-8 141 121 295q16 11 70 61l207 299q2 1 4 4t7 9t11 12q15 9 15 27q0 8 -4 16q8 12 25 40t28 44q12 24 35 112q38 -12 45 -12l10 2l10 10q-42 9 -51 78q-9 72 -47 86q-58 25 -62 25q-55 0 -73 -57 q-14 -44 -27 -103q-22 -51 -70 -39q-68 -35 -151 -35q-25 0 -35 2q-57 52 -57 80v17q-6 206 49 276q53 85 172 135q97 43 213 43q17 0 74.5 -7t72.5 -7q8 0 31.5 -18.5t32.5 -18.5q10 0 18 12q198 -152 207 -425l-2 4q7 -188 -92 -328q-10 -24 -32.5 -58t-74 -107.5 t-86.5 -125.5q-2 -2 -7.5 -6t-19 -14t-28.5 -21q-35 -27 -65 -24q14 -14 14 -27q0 -15 -29 -41q-18 -16 -28 -41q20 -57 86 -57h12q2 0 6 1t6 1q9 -34 27 -31q7 0 38.5 16.5t43.5 16.5q6 0 24.5 -3t24.5 -3q10 0 46.5 4t45.5 4q66 0 78 -60q-12 -24 -12 -61q0 -12 7 -59.5 t7 -61.5q-3 -55 -43 -82q-105 5 -205.5 9t-140 5.5t-41.5 2.5q-1 -3 -15 -5t-48 -4t-72 -4t-106.5 -6t-133.5 -8q-68 35 -68 82zM252 180q0 -6 10 -16l12 12v4q-4 7 -12 17q-10 -3 -10 -17zM274 297l17 -12h4q12 15 12 18v4h-12q-18 0 -21 -10zM285 385h16v16h-16v-16z M350 483l12 -12q11 14 11 18v5l-6 2q-7 -5 -17 -13zM362 231l11 -12l43 45q-26 -10 -54 -33zM362 1362l76 -55l11 10zM395 154l21 -23q12 6 12 23v10l-10 2h-4q-16 0 -19 -12zM438 768h17v16h-17v-16zM494 88l10 -10v10h-10zM494 604h16v17h-16v-17zM526 307l11 -10l12 10 l-12 10zM582 1526h16v16h-16v-16zM602 162q0 -21 27 -21l8 2q0 18 -33 21zM604 1020l10 -10h15q8 0 18 10q-6 12 -22 12q-18 0 -21 -12zM604 1251l10 -10h15q11 0 18 10q-7 13 -22 13q-18 0 -21 -13zM637 55h16v17h-16v-17zM637 1317l65 -33l11 19v4q-8 10 -35 10h-41z M657 911h17v17h-17v-17zM670 1065h32q11 14 11 18v4h-11h-8q-27 0 -24 -20v-2zM670 1208l10 -12q12 15 12 18l-2 5h-4q-1 0 -16 -11zM690 209h17v16h-17v-16zM735 1186q15 -12 19 -12h4v4q0 2 -13 18zM834 1362h16v16h-16v-16z" />
<glyph unicode="3" horiz-adv-x="983" d="M47 395q0 14 12 29q-12 6 -12 14q0 4 6 14t6 13q0 2 -10 12q3 109 86 121q21 -12 58 -12q10 0 49 3t49 3q58 0 76 -43q7 -14 10 -92q0 -61 18 -97h-10q-11 0 -33 -22q6 -21 21 -21q4 0 22 10.5t21 10.5q63 -31 92 -31q24 0 39 10q68 103 65 201q0 38 -14 70l25 43 q-48 25 -48 37q0 4 1.5 9t1.5 9q-13 17 -136 66q-41 15 -63.5 41t-24.5 57q3 79 66 127q61 34 121 65q58 37 61 103q0 50 -31 117q-38 68 -90 71q-10 -10 -22 -10q-6 0 -24 5t-25 5q-17 0 -27 -20q20 -14 20 -41q0 -13 -10.5 -46.5t-11.5 -41.5q-52 -41 -154 -41 q-154 0 -151 82q0 13 13 63t13 66q0 58 48 129q42 63 96 98q44 31 121 41q88 17 131 12q120 6 209 -39q116 -39 161 -131q44 -83 47 -256q0 -47 -12 -133h-8q2 0 -9 -9l-16 -13q13 -7 13 -23l-2 -31q-60 -75 -74 -137q113 -113 119 -254v4q0 -6 -2 -49.5t-6 -108.5t-9 -139 q6 -73 -71 -165q-76 -90 -154 -127q-50 -26 -197 -23q-111 0 -190 25q-13 26 -47 41q-13 6 -66 32q-18 24 -114 197q4 12 4 18q0 13 -13.5 43t-13.5 39zM330 381h22q2 4 5 7.5t4 5t1 3.5v6h-10q-22 0 -22 -16v-2v-4zM352 197l21 -21l10 10q-3 13 -21 13zM416 229l22 -20v10 l-18 12zM469 186q5 -10 25 -10h10v10h-4q-1 0 -19 11zM492 1346h16v16h-16v-16zM567 1366q8 -8 17 -8q5 0 27 16.5t30 14.5q0 2 -8 2q-11 0 -66 -25zM580 242h14v16h-14v-16zM610 950q0 -13 13 -16l10 10v4q-4 7 -10 19q-13 -7 -13 -17zM623 393q4 -1 19 -7t28.5 -10.5 t21.5 -4.5q10 0 27 10q-4 1 -19 7t-29 10.5t-22 4.5q-13 0 -26 -10zM623 565l10 -10v10h-10zM633 242l33 -33v10q-7 0 -13 14q-9 9 -14 9h-6zM633 479l8 -10l14 10l-14 10zM653 313q0 -18 29 -18h4q-31 19 -29 22h-2zM686 1118h16v17h-16v-17zM686 1366q15 3 45 23 q-14 -2 -45 -23zM731 1139l4 2q7 -5 17 -13l10 11l-21 22zM741 987h17v17h-17v-17zM774 479l10 -10l11 10l-11 10zM784 575h17v17h-17v-17zM838 1378h14q14 0 18 11q-2 10 -12 10q-20 0 -20 -19v-2z" />
<glyph unicode="4" horiz-adv-x="1064" d="M20 442q0 34 9 95q10 72 10 92q0 28 -6 55q23 60 65 150q1 6 17.5 35t51 94.5t69.5 140.5l55 90q29 89 49 137q54 135 149 285q8 0 34 11t34 11q17 0 33 -22l43 20q39 -14 110 -8q79 6 113 -6q38 -11 53 -51q-12 -27 -12 -94q3 -67 -23 -97l35 -684q104 -30 107 -153v2 q0 -20 -10 -92q-9 -59 -9 -93q-61 -61 -69 -71q-36 -48 -33 -92q0 -25 2 -37v-21q0 -5 2 -24.5t2 -24.5q0 -31 -22.5 -58.5t-51.5 -27.5q-13 0 -52 7t-50 7t-37 -9t-33 -9q-17 0 -43 23l-34 36q-7 21 -7 41q0 12 5.5 57.5t5.5 59.5q0 32 -19 68q-13 32 -51 51l-459 2 q-33 45 -33 104zM233 815l11 -10v10h-11zM264 705q11 -11 62 -11q28 0 41 -22v-13q0 -17 -13 -20q6 -12 17 -12q3 0 17 11t20 11h4q13 -10 80 -10q38 0 53 -35l10 12v5q0 10 -12 16q-18 5 -23 10q58 24 64 96q9 99 24 117l-18 23q-2 0 -2 37q0 20 10 30q15 -12 20 -12 q18 0 15 23v10l-12 2q-17 0 -23 -12q-8 12 -8 57v10l-35 55h-2q-9 0 -36 -15t-36 -15q-6 0 -14 8l-12 -12q22 -9 22 -23q0 -4 -19 -36.5t-14 -51.5q-19 -14 -45 -94q-23 -68 -45 -99q-32 -43 -90 -40zM289 582h14v18h-14v-18zM289 905l10 -12v12h-10zM309 539l13 -23 q12 15 12 19v4h-25zM367 938l20 -10v10h-20zM377 494q7 -14 22 -11h13q12 15 12 19q0 14 -16 14q-12 0 -31 -22zM422 561l10 -12l10 12l-10 10zM432 1372l43 -45l14 10zM475 506l14 10h-14v-10zM475 1106h19v16h-19v-16zM489 580q0 -21 23 -21l8 2v10h-6h-4q-17 0 -21 11v-2 zM565 561l33 -35q-6 -3 -6 -10q6 -10 16 -33q0 -2 27 -2q15 0 18 13q-8 23 -47 34q-35 15 -41 33zM565 1184q16 -12 56 -15q35 -3 47 -30l18 22v-2q-43 35 -82 35q-24 0 -39 -10zM565 1227q2 5 23.5 11t21.5 19l-2 3q-2 4 -10 4q-27 0 -33 -37zM578 406h16v16h-16v-16z M598 594q6 -12 27 -12h28l5 4q4 4 8.5 7.5t8 9t3.5 9.5v4q-2 0 -4.5 1t-3.5 1h-6q-16 0 -33 -10q-7 -3 -15 -6l-12 -4.5t-6 -3.5zM623 383q6 -12 22 -12h8l5 4q4 4 8.5 7.5t8 9t3.5 9.5v5h-12q-27 3 -43 -23zM643 1049l10 -11h17q12 0 16 11q-3 14 -18 14q-19 0 -25 -14z M643 1272l10 -12h17q13 0 16 12q-3 12 -18 12q-19 0 -25 -12zM653 526l15 -10l10 -2q26 0 45 25q-12 12 -33 12q-24 0 -37 -25zM653 883l15 -11l10 11l-10 10zM666 1337h2q33 -26 65 -26q14 0 23 6q-6 22 -33 22h-49zM668 182l10 -10zM668 328q13 -13 14 -13h4q12 15 12 19 v4h-12q-16 0 -18 -10zM668 760h14v16h-14v-16zM686 928l12 -13l13 13l-13 10zM698 1106l13 -12q1 0 5 -1t7 -1q28 0 43 24h-39q-16 0 -29 -10zM698 1227l13 -10h14q10 0 20 10q-9 12 -22 12q-16 0 -25 -12zM711 383l12 -12h2q2 0 20 12q-9 12 -20 12q-8 0 -14 -12zM731 215 h19v18h-19v-18zM731 705l14 -11l6 -2h19q12 0 18 13q-12 12 -26 12q-22 0 -31 -12zM756 571h14v17h-14v-17zM766 1028l10 -12l12 12l-12 10zM776 383q6 -12 25 -12h10v12q-3 12 -16 12q-16 0 -19 -12zM776 483h19v17h-19v-17zM776 1204q15 -10 21 -10h4v4q-5 9 -13 19z M788 750q13 -13 19 -13h4v4q-4 9 -10 19z" />
<glyph unicode="5" horiz-adv-x="1028" d="M53 424q0 18 15 33q-13 13 -13 32q0 1 1.5 7t4 19.5t5.5 27.5q75 37 174 43q111 -6 159 -51q-4 -29 -2 -41q-3 -59 27 -117q17 -36 37.5 -52.5t50.5 -19.5q85 3 119 96q-13 19 -13 39q0 11 12.5 44t12.5 46v2q0 2 -1 6.5t-1 6.5q-12 9 -12 35l2 43h6l9 9q8 6 18 13 q3 7 -11 21h-22q2 12 2 32q3 96 -70 133q-16 25 -51 25q-69 0 -100 -61q-20 -36 -35 -50.5t-33 -11.5h-18q-2 0 -6 1t-5 1h-8q-9 0 -48 -2t-52 -2q-72 0 -101 29l17 768q-12 12 -12 24q0 7 5 19t13.5 29t11.5 24l533 14q8 -5 41 -10q16 -3 41 0q29 3 41 0q57 3 75 -55v-39 v-94q0 -61 -25 -87t-87 -26l-115 2q-96 0 -145 8q-51 -45 -72 -45q-10 0 -18 4l-11 11v-9q-1 -9 11 -42t12 -46q0 -21 -12 -36q36 -61 106 -58q37 0 86 10q63 13 88 13q32 0 47 -9q168 -68 209 -245q20 -81 27 -350q4 -13 -15 -95q-15 -159 -57.5 -252.5t-124.5 -142.5 q-36 -15 -135 -33q-80 -15 -135 -8q-206 -6 -318 98q-34 29 -63 107q-34 84 -57 104q10 12 10 29q0 8 -12.5 38.5t-12.5 43.5zM178 877l10 -13h15q15 0 18 13q-6 12 -22 12q-15 0 -21 -12zM211 313l33 -12l-11 12h-22zM233 1186h17v16h-17v-16zM276 1020l13 -10v10h-13z M309 877l13 -13h26q14 0 17 13q-9 20 -27 20q-20 0 -29 -20zM309 1053l13 -11l4 -2q5 0 18 13q-6 12 -18 12q-11 0 -17 -12zM332 1163q26 -26 53 -26q6 0 14 4q-1 0 -13.5 7.5t-24 13t-17.5 5.5q-4 -2 -12 -4zM342 1389l2 -5h33v11q0 12 -15 12q-20 0 -20 -18zM399 225 q12 -12 19 -12h2l2 4q-4 9 -12 19zM432 1065l23 -23q0 -2 24 -2q16 0 19 13q-12 14 -47 14h-11q-6 0 -8 -2zM442 1346q0 -17 17 -17q3 0 16 10l-20 23q-13 -3 -13 -16zM487 899h17v16h-17v-16zM543 909h24q15 0 19 11q-3 12 -13 12q-14 0 -30 -23zM563 190h6q1 0 17 13 l-11 10zM563 1395q11 -11 25 -11h10v11h-4q-4 0 -19 12zM575 1473h17v16h-17v-16zM586 313q15 -12 18 -12h4q13 16 13 18l-3 5h-10q-15 3 -22 -11zM631 954q6 -12 22 -12h11v12l-5 -2q-2 0 -18 13zM664 500h10q12 15 12 18v4l-4 2q-18 0 -18 -20v-4zM674 258l12 -22l10 10 q-15 12 -18 12h-4zM719 180l10 -10l12 10l-12 10zM729 899h12q11 11 11 19v2zM739 782q0 -13 13 -16l22 22q-4 2 -8.5 5t-6.5 4.5t-3 1.5q-17 0 -17 -17zM807 633h16v16h-16v-16zM895 395q0 -10 12 -16l11 10v6q0 3 -11 17q-12 -3 -12 -17zM940 545h16v16h-16v-16z" />
<glyph unicode="6" horiz-adv-x="989" d="M59 1092q9 245 78 358q50 85 158 137q109 53 213 53q97 -4 125 -16q32 -14 51 -35q179 -80 205 -180q35 -140 35 -143q3 -47 -33 -72q-110 -16 -137 -16q-87 3 -131 26q-59 117 -117 117q-125 0 -125 -176q0 -170 4 -156q20 10 39 10q42 0 88 -32l25 22l-15 10 q26 30 78 33q24 0 80 -12q20 -4 47 -7t33 -5q106 -52 137 -177q26 -91 31 -233q0 -9 3 -55t3 -62l-2 2q4 -43 -19 -157q-28 -124 -45 -146q-48 -78 -151 -127q-111 -52 -205 -55q-122 3 -215 39q-107 41 -164 131q-34 82 -47 199q-15 61 -20 200q-3 60 8 109q-13 23 -13 49 q0 27 13 47q-11 6 -11 68q3 94 11 106q-15 84 -15 146zM135 1128l12 -10l13 10l-13 11zM147 1053l13 10v12zM160 332l28 -2h2q17 0 23 12q-10 10 -16 10q-7 0 -14.5 -3.5t-14.5 -10.5zM170 567l20 23h-12zM203 1430l10 -11h12q14 0 21 11q-6 12 -25 12q-15 0 -18 -12z M221 762q4 -8 15 -8l28 18q-3 12 -10 12q-8 0 -33 -22zM221 934h19v16h-19v-16zM233 567h17v17h-17v-17zM246 655q9 -41 45 -41q10 0 16 9zM256 438q12 -10 14 -10h6q13 16 13 18v5h-13q-17 0 -20 -13zM256 891q17 -10 18 -10h2l3 4q0 4 -15 16zM276 795l13 -11l18 21l-8 10 zM299 1053l23 -11l-15 11h-8zM299 1268l8 12h-8v-12zM307 709l25 -23q55 9 61 43l-14 2q-34 5 -72 -22zM322 858l10 -10q12 12 30 12q7 0 30.5 -6t31.5 -6q20 0 37 22l-10 11q-26 -5 -56.5 -12t-46.5 -10t-26 -1zM332 772l10 -10h2q1 0 21 10q-6 12 -19 12q-11 0 -14 -12z M332 999h14v17h-14v-17zM342 1257l8 -10q15 12 15 17v4l-5 2q-5 0 -18 -13zM385 610q11 -135 12 -139q17 -92 54 -129l-33 -20q9 -20 61 -23q18 18 60 27q35 8 59 16h-6q-21 0 -27 12q35 46 35 150v2q1 6 0.5 12t-1.5 28.5t-1 43.5v47q0 29 2 39l-96 65h-10q-43 -3 -62 -53 q-27 -63 -47 -78zM426 223q15 -10 18 -10q17 0 17 20v13h-8q-27 0 -27 -21v-2zM436 1386l15 -10v10h-15zM451 967l28 -33l15 12q-15 11 -43 21zM469 815h8q9 0 35 23l-8 10zM479 127l15 -10v10h-15zM522 256h19v16h-19v-16zM522 858q13 -10 21 -10t26 10.5t21 11.5 q-18 11 -31 11q-24 0 -37 -23zM555 752h25v4q0 4 -15 16zM565 1354h17q16 0 16 12q0 10 -10 10q-23 0 -23 -18v-4zM565 1548h19v17h-19v-17zM621 229q0 -13 12 -16l8 10l2 4q0 7 -10 19q-12 -6 -12 -17zM623 481l10 -10v10h-10zM641 537l12 -13q22 32 23 29v4zM653 1257h17 v17h-17v-17zM684 438q15 -10 21 -10h4v4q-5 9 -13 19zM719 815l8 -10v10h-8zM762 719l18 -11q19 -12 27 -12t18 13q-7 10 -26 10h-37zM770 901h18v17h-18v-17zM805 537l8 -13v13h-8zM825 332h19v16h-19v-16z" />
<glyph unicode="7" horiz-adv-x="952" d="M39 1419q0 19 6.5 76.5t7.5 69.5v14q0 10 -2 14l58 47q12 0 344 -10q325 -4 346 -4q7 0 30.5 3t30.5 3q22 0 41 -16q12 -24 12 -57q3 -40 -18 -93q-14 -35 -27 -73l-16 -113q-33 -75 -64 -256q-13 -4 -19.5 -35t-12.5 -35l6 4l-96 -854v-8q0 -37 -39 -66.5t-82 -29.5 q-12 0 -57 8t-60 8q-23 0 -41 -12q-46 1 -72.5 22t-29.5 56q11 17 18 96q9 74 27 103l35 317q2 20 16.5 71.5t21.5 82.5q14 57 23 107.5t13.5 81t6.5 38.5q40 141 74 211q-8 8 -8 18q0 4 5 19.5t5 19.5q0 13 -10 23q-20 38 -53 45l-64 -2h-2q-9 0 -39 6t-39 6q-18 2 -92 -12 q-69 -14 -90 -10q-49 -2 -73 26.5t-21 89.5zM442 305h33q17 0 23 12q-7 11 -17 11q-8 0 -22.5 -11t-16.5 -12zM475 1460l12 -12h31q19 0 25 12q-13 13 -31 13q-21 0 -37 -13zM532 766h19v16h-19v-16zM545 631q3 -13 22 -13h11v13h-5q-6 4 -18 10zM555 440l10 -12v12h-10z M588 1280l12 10h-12v-10zM610 698q6 -12 27 -12h6q12 15 12 19v4l-7 2h-19q-16 0 -19 -13zM688 860q0 -13 12 -16l25 22l-20 13q-17 0 -17 -19zM725 1415h14v17h-14v-17z" />
<glyph unicode="8" horiz-adv-x="997" d="M53 520v25q21 12 21 30q0 15 -11 21q3 58 38.5 120t107.5 144q-115 120 -121 363q0 85 16 176q21 108 109 164q50 31 197 79l270 -26q13 0 49 -19q78 -40 133 -174q51 -129 49 -225q-3 -167 -123 -307q27 -47 70 -115q32 -51 49 -123l23 -18q5 -33 8 -90t4 -64l2 -2 q-6 -216 -108 -334q-117 -141 -316 -141q-171 0 -227 25q-32 6 -74 43q-158 140 -158 370v31q0 5 1 15t1 14q-10 3 -10 18zM172 1141h16v16h-16v-16zM182 330q10 -2 33 -2q17 0 23 12q-10 10 -19 10q-24 0 -37 -20zM225 1444l13 -10h12q13 0 20 10q-6 12 -22 12 q-17 0 -23 -12zM270 762h4q4 0 17 10l-10 12zM281 436q15 -10 16 -10h4q12 12 12 18v5h-12q-13 0 -20 -13zM281 653l32 -32l11 12q-16 22 -33 22h-2q-1 0 -3.5 -1t-4.5 -1zM281 891l18 -10h2l2 4q0 3 -12 18zM313 805l11 -10v10h-11zM324 1065l10 -10v10h-10zM324 1270 l10 12h-10v-12zM334 709l22 -23q2 1 13.5 5.5t16 7t11.5 7t10 10.5t3 13l-5 1q-5 1 -10 1q-18 0 -61 -22zM346 274l10 -20v10zM346 860l10 -12l11 12l-11 10zM346 999h16v17h-16v-17zM356 772l11 -10l10 10l-10 12zM367 1270l10 -10v10h-10zM373 526q9 -233 90 -227 q23 -2 82 20q65 23 82 21h-33q-14 11 -12 20q0 6 13 37.5t13 44.5q0 29 -2 52v55q0 7 -6 43t-6 45q0 3 11 16.5t11 16.5q0 10 -12 16l-20 -22q-48 57 -95 57q-57 0 -88 -72q-18 -44 -28 -123zM391 1190q-1 -7 6 -90q7 -61 2 -88q57 0 60 -19q12 -41 16 -47q4 0 16 -6t15 -6 q12 0 12 16q-1 1 -3 3.5t-4 6t-5.5 9t-7.5 10.5l8 -2q21 -3 47 29q23 33 43 36q-12 6 -12 25v31q12 41 53 32q-39 6 -45 41q1 -3 2 1v12v53q0 36 -37.5 72.5t-73.5 36.5q-44 0 -69 -60q-26 -53 -23 -96zM399 860l11 -12h14q16 0 61 22q-15 11 -30 11q-29 0 -56 -21zM432 178 h17v17h-17v-17zM432 1378q3 -6 12 -6q28 0 31 17q0 2 -26 2q-14 0 -17 -13zM432 1487h17v16h-17v-16zM442 231q7 -10 25 -10h8q12 12 12 17l-2 4l-4 2h-20q-16 0 -19 -13zM475 70h17v16h-17v-16zM498 815h8q5 0 35 23l-13 10zM508 135l10 -12v12h-10zM551 254h16v16h-16v-16 zM551 860l10 -12h12q27 -3 43 22q-15 11 -30 11q-26 0 -35 -21zM584 752h20l2 4q0 4 -12 16zM584 1358h43v10q-7 10 -15 10q-11 0 -28 -20zM594 1563h16v16h-16v-16zM649 231l10 -10l11 10l-11 11zM649 481h15v17h-15v-17zM659 1260q7 -11 23 -11h10v11q-6 12 -16 12 q-14 0 -17 -12zM670 557l10 -12v12h-10zM670 1161l10 -10l12 10l-12 13zM680 393h16v17h-16v-17zM692 1325q12 -12 19 -12h2l2 4q0 2 -13 18zM702 1055h17v16h-17v-16zM745 815l11 -10v10h-11zM778 1174h17v16h-17v-16zM788 719h17v16h-17v-16zM844 330h16v16h-16v-16z" />
<glyph unicode="9" horiz-adv-x="1003" d="M55 1114l2 18q6 47 11 89q16 140 41 204q24 60 54.5 96.5t78.5 57.5q88 59 272 59q90 0 135 -18q2 0 15.5 -6t45 -21t64.5 -30l121 -164q-10 -5 -10 -15q0 -6 4.5 -12.5t9.5 -10t6 -1.5q27 -311 33 -311l6 -11q-3 6 -5 -9q-5 -34 -8 -347q-1 -192 -3 -311q0 -97 -80 -203 q-70 -91 -170 -145q-6 1 -103 -15q-57 -8 -106 -8q-75 0 -131 35q-24 -6 -25 -6q-26 0 -71 28q-18 12 -35.5 22.5t-24.5 14.5t-8 6q-102 116 -102 260q0 9 1 28t1 28q58 38 123 35q5 0 22 -2t50 -5t69 -6q22 -13 65 -88q34 -61 82 -61q59 0 99 76q28 61 28 122q0 52 -14 93 l-8 10l33 35q-59 41 -78 41q-22 0 -31 -27q-93 -42 -174 -39q-74 -2 -143 35q-46 28 -80 90q-33 62 -43 113q-7 75 -11 143.5t-5 98t-3 34.5zM162 1157h2l22 -20l31 -2h2q24 0 33 12q-15 12 -45 12h-37zM229 1026h17v16h-17v-16zM272 918h23v4q0 1 -10 18zM295 340h16v16 h-16v-16zM317 121l11 12h-11v-12zM317 766l11 -12h14q12 0 18 12q-6 12 -22 12q-18 0 -21 -12zM328 842l10 -23l10 12l-16 11h-4zM338 209l10 -12l12 18v4h-4q-1 0 -18 -10zM338 285h16v16h-16v-16zM338 950h16v17h-16v-17zM338 1202l10 -12v12h-10zM348 1016l12 -10v10h-12 zM348 1081h19v17h-19v-17zM348 1300h19v17h-19v-17zM371 897l32 -12l-12 12h-20zM381 993q51 -86 127 -86h4q2 1 15 10.5t17 12.5t15 11.5t15.5 14t10.5 13t8.5 15t2.5 15.5q0 15 -6 27q1 1 5 6.5t5.5 7t6.5 6t7.5 3.5t8.5 0l-25 22q4 10 4 33q0 13 -6 57.5t-6 55.5 q0 33 22 61l-14 10l-18 -20l-33 32q-9 33 -29 33q-10 1 -42.5 -11.5t-43.5 -14.5q-46 -64 -49 -228zM391 655l12 -10v10h-12zM434 776h19v17h-19v-17zM459 842l10 -11q23 19 23 27v6h-7q-4 0 -10 -5.5t-10.5 -11t-5.5 -5.5zM492 743q9 -6 20 -6q21 0 49 25q38 33 51 37 l-14 10q-13 -26 -47 -41q-58 -24 -59 -25zM492 1442l10 -10l31 -2h2q17 0 20 12q-9 12 -31 12q-20 0 -32 -12zM524 809l11 -10l12 10l-12 10zM555 907l25 -33l10 19q0 14 -21 14h-14zM612 700l21 -22q2 1 11.5 5t12.5 5.5t10 5.5t10 7t6 8.5t3 11.5q-2 2 -6 2h-6 q-11 0 -62 -23zM623 252h16v16h-16v-16zM623 852q17 -10 18 -10h2l12 18q0 14 -14 14q-18 0 -18 -18v-4zM623 993h16v17h-16v-17zM633 766l10 -12l12 12l-12 10zM643 1268l12 -13zM678 612l8 -10l12 10l-12 11zM678 852q7 -10 22 -10h29q14 3 14 18v25q-4 2 -10 2h-6 q-43 0 -49 -35zM678 1006l4 -2q1 0 2 1t5 4.5t9 6.5l-12 10zM686 1124l12 13v10zM709 465q0 -13 12 -16l22 22l-18 10q-16 0 -16 -16zM711 547l10 -10l8 10l-8 10zM721 307l22 -22h2q7 4 19 10q-25 22 -31 22q-5 0 -12 -10zM729 1399h19v16h-19v-16zM754 1169h14v17h-14v-17 zM764 963l10 -23l12 10l-18 13h-4zM774 809l12 10v12zM786 547h17v16h-17v-16zM797 1006l10 -13v13h-10zM817 864l12 -12h15q10 0 16 12q-6 13 -20 13q-13 0 -23 -13zM840 1038h14v17h-14v-17z" />
<glyph unicode=":" horiz-adv-x="776" d="M139 438q4 45 8 135q6 78 50 129l362 -14q0 -11 16 -22l-28 -25q45 -6 45 -29q0 -8 -12 -32q-11 -26 -11 -37q0 -12 6 -21q-6 -12 -6 -22q0 -9 11 -35q12 -21 12 -33q0 -17 -17 -31l17 -10q-12 -18 -12 -49v-23v-18q0 -62 -62 -80q-94 -12 -172 -12q-100 0 -164 27 q-36 39 -39 98q-4 70 -4 104zM139 1264q-6 116 58 153q113 6 362 -10q33 -54 33 -111q0 -4 -8 -82q-9 -52 -9 -81q17 -24 17 -43q0 -16 -19 -56q-16 -40 -16 -51q0 -3 1 -10t1 -10l-346 -21q-59 42 -59 133q0 24 2 47v49q0 55 -17 93zM268 594q4 0 13 12l14 -12q16 13 16 24 q-14 5 -43 -24zM381 379l41 12h-29zM434 258h23v18h-23v-18zM506 977l53 22h-12zM547 631h20v16h-20v-16z" />
<glyph unicode=";" horiz-adv-x="776" d="M180 1264q-6 116 58 153q90 4 321 -10q33 -54 33 -111q0 -4 -8 -82q-9 -52 -9 -81q17 -24 17 -43q0 -16 -19 -56q-16 -40 -16 -51q0 -3 1 -10t1 -10l-305 -21q-59 42 -59 133q0 24 2 47v49q0 55 -17 93zM225 453q-3 -156 90 -213q7 -21 7 -35q0 -48 -46 -115 q-45 -82 -45 -113q0 -27 19 -61h14q91 0 144 59q29 32 77 150q33 83 72 139v2v381q-23 51 -108 51q-8 0 -35.5 -2t-42.5 -2h-23q-45 0 -65 -10q-25 -17 -45 -55l-11 -88q-2 -17 -2 -88zM506 977l53 22h-12z" />
<glyph unicode="&#x3c;" horiz-adv-x="839" d="M53 891q0 31 4 45l2 29q2 3 7 11t8 11q0 1 1 3.5t1 4.5q1 0 3 1t3 1q36 24 45 25q27 6 39 12q30 15 53 27q10 6 25.5 15.5t27 16.5t15.5 9q10 5 53 20q45 14 53 13q54 26 119 59.5t96 46.5q5 2 30.5 19t33.5 20l20 10q10 2 14.5 3.5t9.5 -5.5t7 -12l7 -17.5t9 -21.5 q4 -28 4 -59q1 -20 -2 -21q-1 0 0 -6q0 -13 -12 -21q-2 -1 -14 -1.5t-15 -2.5q-6 -6 -10 -14q-44 -13 -137 -53q-14 -7 -15 -4l1 2q-9 -19 -250 -133q4 -2 6 -2q5 -3 22 -13t29 -16q37 -22 45 -37q50 -20 90.5 -39.5t75 -38.5t53.5 -28q6 -3 66 -23l22 -4q5 -1 9 -2.5t7 -4 t5 -4.5t3 -6t2 -6.5t1 -9v-9.5v-12v-14q-6 -50 -16 -75q-7 -18 -9 -18q-1 0 -2 -1v-4q-6 -9 -18 -6q-3 2 -12 9.5t-11 8.5q-6 3 -14 -2q-126 79 -133 90q-1 4 0 5q-14 -7 -326 135q-56 25 -86 39q-2 -2 -4 -2q-10 2 -20 12q-1 1 -3 2t-3 2q-13 18 -15 41z" />
<glyph unicode="=" horiz-adv-x="1056" d="M51 1067q0 55 47 96l801 -20q35 -53 35 -99q0 -32 -49 -90l-779 2q-55 34 -55 111zM57 684q0 68 43 127l781 -8v-2q7 -2 12.5 -5.5t10 -9.5t8 -10t6.5 -12.5t5 -12.5t4.5 -15t3 -14t3 -15.5t2.5 -14.5q-3 -33 -25 -65q-27 -41 -57 -35l-723 -6q-31 0 -52.5 31.5 t-21.5 66.5z" />
<glyph unicode="&#x3e;" horiz-adv-x="847" d="M76 608q-1 20 2 21q1 0 0 6q0 12 12 20q2 1 14 1.5t15 2.5q5 5 10 15q42 13 138 53q14 7 15 4l-1 -2q10 19 249 133q-4 2 -6 2q-5 3 -22 13t-29 16q-37 22 -45 37q-50 20 -90.5 39.5t-75 38.5t-53.5 28q-6 3 -66 23l-22 4q-5 1 -9 2.5t-7 4t-5 4t-3 6t-2 6.5t-1 8.5v10 v12v13.5q6 47 17 76q8 20 9 17l1 2v4q6 9 18 6q3 -2 12 -9.5t11 -8.5q6 -3 14 2q126 -79 133 -90q2 -4 0 -5q14 7 326 -135q56 -25 86 -39q2 2 4 2q10 -2 20 -12q1 -1 3.5 -2t3.5 -2q12 -17 14 -41q0 -31 -4 -45l-2 -29q-2 -3 -7 -11t-8 -11q0 -1 -1 -3.5t-1 -4.5 q-1 0 -3 -1.5t-3 -1.5q-34 -23 -45 -24q-27 -6 -39 -12q-30 -15 -53 -27q-10 -6 -25.5 -15.5t-27 -16.5t-15.5 -9q-10 -5 -53 -20q-45 -14 -53 -13q-54 -26 -119 -59.5t-96 -46.5q-5 -2 -30.5 -19t-33.5 -20l-20 -10q-10 -2 -14.5 -3.5t-9.5 5.5t-7 12l-7 17.5t-9 21.5 q-4 28 -4 59z" />
<glyph unicode="?" horiz-adv-x="872" d="M27 1260q3 153 127 280q108 108 272 105q218 -6 309 -111q93 -109 99 -313h-3q2 -77 -4 -152q-35 -104 -155 -317q-1 -2 -4 -12.5t-10 -34.5t-15 -48q-17 -54 -59 -75q-16 3 -41 0q-18 2 -66 -2.5t-61 -4.5q-50 0 -75 16t-22 44q-4 49 20 111t79 159q92 157 96 279 q2 48 -18 98q-28 57 -74 57h-10q-1 0 -4 -1t-5 -1q-1 -1 -9.5 -14t-30 -45t-46.5 -70q-49 -75 -116 -75q-106 -3 -158 34q-16 62 -16 93zM291 74q10 45 10 96v27q0 12 -1 33.5t-1 31.5v27q0 90 47 137q55 -6 80 -4q20 2 41.5 3t30 1.5t10.5 1.5q102 0 133 -74 q-19 -28 -16 -71q-3 -18 8.5 -89.5t11.5 -82.5h2q-3 -91 -94 -115q-126 0 -150 2q-87 6 -112 76zM446 172h19v21h-19v-21zM514 330h21v18h-21v-18zM666 1034h12v13h-12v-13zM711 1262h12v12h-12v-12z" />
<glyph unicode="@" horiz-adv-x="518" />
<glyph unicode="A" horiz-adv-x="1103" d="M39 68q2 5 6 14t7.5 18.5t6.5 22.5l91 457q4 20 4 86q29 113 79 401l72 403q3 14 6.5 32.5t5.5 29.5t4.5 22.5t5 18.5t5.5 12q23 51 94 51l127 -12q36 0 63 12l74 2h4q45 0 68 -26q2 -2 5.5 -11t11.5 -27l16 -36q0 -16 7.5 -74.5t8.5 -70.5q0 -24 -6 -45q34 -37 43 -111 q1 -5 18 -119l95 -561q34 -40 34 -92v-8l-12 -11l18 -22q1 -20 5 -42t14 -66.5t14 -63.5q26 -114 29 -182l-2 -25q-26 -43 -117 -43h-39q-18 21 -41 21q-12 0 -47 -12q-32 -11 -43 -11h-2q-51 0 -76 94l-15 60t-19 69q-43 12 -93 15q-59 -1 -92.5 -16t-50.5 -48 q-4 -14 -10.5 -36.5t-12 -41t-10.5 -35.5q-18 -61 -104 -61q-13 0 -59 3t-60 3q-4 0 -21.5 -2t-21.5 -2q-53 0 -88 66zM215 358q15 -12 21 -12h2l2 4q-5 9 -13 19zM250 969h16v16h-16v-16zM293 291l22 -23l13 13q-8 10 -23 10h-12zM338 502q16 -13 18 -13l4 3v4q0 1 -10 18z M350 592h17v16h-17v-16zM360 702l23 -22l10 12l-22 21zM371 369h18v16h-18v-16zM383 569q3 -12 18 -12h27q10 7 10 23v12h-12q-27 3 -43 -23zM383 780q15 -12 18 -12l5 2q12 12 12 16l-2 5l-13 2q-13 0 -20 -13zM383 1159h16v17h-16v-17zM406 369l32 -33l23 22q-7 11 -25 11 h-30zM406 1237l10 -12h14q15 0 21 12q-6 12 -23 12q-16 0 -22 -12zM406 1354q-3 -19 24 -19l8 2v11q-6 12 -20 12l-12 -2v-4zM416 246q16 -13 18 -13l4 3l13 16v6h-13q-16 0 -22 -12zM416 1075q0 -13 12 -16l10 10v4q-4 7 -10 19q-12 -3 -12 -17zM426 721q0 -11 22 -18.5 t23 -10.5q-12 -18 -12 -45q0 -9 6 -44t6 -48q0 -38 -43 -53l10 -10q16 22 74 22h82q9 -3 12 -22v10q2 4 29 28q18 15 18 33q0 15 -8 15l-18 280l22 23l-24 -2q-22 60 -22 111q0 18 3 34q-21 31 -45 25l-12 -2q-34 -25 -34 -65q0 -6 1 -13q-33 -29 -33 -135v-9 q0 -86 -55 -100zM451 1124q5 14 33.5 22.5t31.5 12.5h-8q-5 0 -20 -22.5t-21 -22.5q-9 0 -16 10zM461 301l10 12v11zM461 1292l22 -22q5 10 52 10q23 0 26 23l-19 2h-36q-29 0 -45 -13zM471 397q0 -12 12 -18q5 8 23 8q17 0 39 -25q21 -24 30 -24q10 0 19 20l-8 -2 q-19 -5 -51 27q-36 31 -52 31q-12 -6 -12 -17zM471 1415l12 -12l23 22h-10h-4q-14 0 -21 -10zM494 1516l22 -13v13h-22zM528 1225l21 -23h4q3 0 18 12q-23 23 -30 23q-10 0 -13 -12zM549 1124l22 -32l13 12zM549 1393q13 -13 20 -13h2l2 4q0 4 -12 19zM561 446l10 11h-10 v-11zM606 1192l10 -10q13 13 13 18l-2 2l-4 2q-5 0 -17 -12zM639 401l10 -10q17 10 29 10q10 0 38 -10.5t34 -11.5v12q-16 25 -52 25q-32 0 -59 -15zM649 258l13 10h-13v-10zM649 1014l13 -10v10h-13zM662 791h12q14 0 20 12q-2 10 -14 10q-18 0 -18 -18v-4zM672 748 q6 -13 24 -13h9v13l-3 -3q-5 0 -18 13zM684 1147l10 -10q13 16 13 18l-2 4h-5q-4 0 -16 -12zM692 504q4 -10 13.5 -18t17.5 -11.5t25.5 -9.5t23.5 -8q-2 8 -7.5 14t-15.5 11t-16.5 8t-21 7.5t-19.5 6.5zM694 569q3 -1 33 -11.5t39 -10.5q12 0 29 10q-7 1 -36 12t-36 11 q-14 0 -29 -11zM694 958h17v17h-17v-17zM705 670l12 -13l10 13l-10 10zM795 291l22 -23q12 15 12 19q0 16 -18 16q-13 0 -16 -12zM850 670l12 -13l10 13l-10 10z" />
<glyph unicode="B" horiz-adv-x="1081" d="M68 1528q0 14 10.5 49t11.5 39l43 24l438 -12l13 -12q16 8 41 8l14 -3l90 -15q146 -26 213 -140q42 -65 45 -254v-20q0 -195 -113 -305q-2 -3 -3.5 -10.5t-2.5 -8.5q0 -16 26.5 -33t39.5 -20q84 -140 90 -362v-2q0 -184 -47 -281q-49 -99 -225 -147q-3 6 -15 6 q-3 0 -41 -11l-360 2q-16 -8 -131 -8h-15q-12 -12 -26 -12q-10 0 -38 11.5t-36 11.5q-18 15 -18 38q0 5 4 26t4 26v16q1 1 6 -4l-8 1368q-10 17 -10 35zM190 1010l13 -11v11h-13zM225 897l11 -10h36q21 0 31 10q-14 14 -39 14q-22 0 -39 -14zM225 1380h17v17h-17v-17z M236 1090h14q10 0 20 10q-2 10 -14 10q-20 0 -20 -18v-2zM248 381l10 -10l12 10l-12 12zM258 707l12 -11h15q11 0 18 11l-22 22zM270 123h17v18h-17v-18zM270 494l17 -13l6 2l10 19v4h-12q-18 0 -21 -12zM270 584h17v16h-17v-16zM293 1335l10 -10h14q17 0 19 10 q-3 13 -23 13q-17 0 -20 -13zM303 1133q30 -23 35 -23h2q4 0 8 2q12 12 12 16q0 19 -28 19q-23 0 -29 -14zM313 831l13 -12h4q3 0 18 12q-7 11 -16 11q-12 0 -19 -11zM326 303l10 -10l6 -2q6 4 16 12q-3 12 -16 12t-16 -12zM336 674h26q16 0 19 10q-3 12 -14 12 q-9 0 -31 -22zM336 1010l12 -23l10 12q-16 13 -18 13zM358 190l13 -22v12zM358 426l13 -10q27 30 47 30q21 0 31 -20q0 -21 -23 -37q-31 -24 -33 -31q35 -3 62 -43q35 -51 51 -57h8q54 0 92 47l68 88l33 -12v6q1 6 -9 10.5t-22 9t-14 11.5q24 27 24 65v9q0 14 -1 33.5 t-1 25.5v22l12 -12l11 12l-11 11l-12 -11q-7 13 -27.5 43.5t-29.5 47.5q-42 52 -88 55l12 10q-15 12 -19 12h-4l11 -34q-8 0 -32 -11.5t-32 -11.5q-16 0 -26 23l-11 -11q23 -30 23 -37l2 -8q-25 -22 -25 -135q0 -47 -20 -69q-19 -21 -56 -21h-4zM381 741l12 -12h4q9 4 19 12 q-7 11 -17 11q-11 0 -18 -11zM391 1077q56 0 80 -78l-55 -22l-2 -6q0 -5 12 -17q2 -2 12 -2q7 0 19.5 5.5t23.5 12t13 7.5h12q6 -1 12 -1q51 0 92 48q20 22 64 109l-10 4q-15 171 -103 221q9 12 19 12q7 0 25.5 -12t25.5 -12h2q4 2 6 2l2 4q0 3 -12 18q-6 0 -37.5 8t-42.5 8 q-26 0 -41 -18q-38 -12 -59 -65q-24 -64 -46 -80q35 -3 35 -59v-9q0 -1 1 -4t1 -4v-6q0 -49 -49 -64zM393 932l10 -12v12h-10zM416 1538l10 -12h14q15 0 21 12q-6 12 -23 12q-16 0 -22 -12zM426 854l35 -35v23q-6 12 -23 12h-12zM449 774l34 -33v11zM481 811l2 -2 q15 -12 19 -12h4q2 4 4 7.5t3 5.5t2 3t1 2q0 16 -14 16q-21 0 -21 -20zM571 774q17 -14 23 -14q9 0 24.5 24t20.5 25q-2 -2 -41 -8q-27 -3 -27 -23v-4zM584 932h16v16h-16v-16zM606 942l10 -10q13 13 13 18v4h-6q-7 -4 -17 -12zM616 236q16 -13 19 -13l4 2q12 15 12 19v4 h-12q-17 0 -23 -12zM629 707q7 -11 24 -11h9q12 6 12 21v12h-10h-9q-29 0 -26 -18v-4zM629 1470h16v17h-16v-17zM662 1303q6 -13 20 -13h25q12 15 12 19v4h-33q-14 0 -24 -10zM674 1425l10 -12q12 15 12 21v2l-6 2q-3 0 -16 -13zM684 1526l23 -10v10h-23zM696 897l11 -10h32 q15 0 25 10q-11 14 -35 14q-25 0 -33 -14zM696 942h17v19h-17v-19zM719 752h16v16h-16v-16zM729 1212l12 -12h4q4 0 19 12q-6 13 -19 13q-9 0 -16 -13zM741 358q3 -10 23 -10h10v10h-4q-2 0 -18 13zM741 573q3 -12 23 -12h10v12q-4 11 -16 11q-13 0 -17 -11zM752 942l12 -10 h4q6 4 18 10q-6 12 -18 12q-10 0 -16 -12zM752 1403h16v16h-16v-16zM909 573l33 -12v12h-33z" />
<glyph unicode="C" horiz-adv-x="1062" d="M57 991q0 29 33 39q12 9 12 23q0 13 -30 10v36q0 113 16 199q28 134 100 203q29 24 74 53q8 5 41.5 28.5t56.5 33.5t46 10q18 0 45 -10q45 20 90 20q31 0 96 -12q4 0 94 -8v-8q0 8 25 -23q55 0 98 -69q51 -72 78 -95q72 -225 72 -325q0 -54 -23 -129q-49 0 -102 -9 q-63 -8 -93 -8h-10h-6q-51 0 -86 18q-37 18 -51 52q12 18 12 41q0 8 -6 40.5t-6 41.5q0 24 12 39q-1 3 -11.5 31.5t-10.5 39.5q0 14 10 27q-22 3 -72 27q-45 25 -69 30q-65 -95 -68 -163q0 -11 4 -35q-12 -28 -12 -49q-1 -12 5.5 -54t6.5 -53q0 -28 -12 -49q12 -6 12 -14 q0 -2 -5.5 -13.5t-4.5 -17.5v-18q0 -32 4 -93q1 -19 2 -58t2 -54l2 -113q0 -46 -12 -160q15 -11 51 -45.5t57 -52.5q13 25 64 43q53 18 53 41q0 18 -18 45q18 34 18 82q0 11 -4 52t-4 54q0 67 41 105l284 2q46 -40 46 -115l6 -4q-1 -7 -4 -49t-4 -52.5t-4 -43t-6 -49 t-8 -40.5t-11 -44q-52 -175 -137 -242q-50 -41 -74 -47q-71 -18 -146 -35q-8 4 -276 22q-24 15 -52.5 31.5t-46 27t-26.5 17.5q-66 49 -90 109q-3 19 -12 53q-22 76 -29 113q-4 106 -8 223.5t-6 179.5t-4.5 118.5t-4.5 78t-4 20.5zM90 500l23 -13v13h-23zM199 1042h45v11 q-5 10 -15 10q-12 0 -30 -21zM211 1227h16v16h-16v-16zM231 283h17v16h-17v-16zM231 944h17v17h-17v-17zM244 858h16v14h-16v-14zM244 1335h16v17h-16v-17zM287 401h20l2 5q0 3 -12 18zM319 575h17v17h-17v-17zM319 737h17v17h-17v-17zM319 1335l11 11h-11v-11zM319 1444h17 v16h-17v-16zM340 1237l22 -23q13 16 13 19l-2 4h-33zM383 997l12 -10v10h-12zM395 270l11 -10v10h-11zM395 1346q13 -13 17 -13l4 2q12 12 12 17v4h-12q-7 3 -13 -0.5t-8 -9.5zM461 141h16v17h-16v-17zM471 303h16v16h-16v-16zM535 201q0 -17 26 -17h8v11q-6 12 -22 12h-10z M580 1540l43 -43l10 10zM655 303q2 -1 9 -6.5t14.5 -9.5t13.5 -4q10 0 17 10q-6 12 -23 12zM721 1356l10 -10h4q9 4 19 10q-6 12 -17 12q-13 0 -16 -12zM774 575l10 -12q13 16 13 19v4h-6q-1 0 -3 -1.5l-6 -4.5t-8 -5zM774 1356l33 -33l10 12zM797 379l20 -21l12 11 q-6 12 -22 12zM797 1227l10 -13l10 13l-10 10zM817 270l12 -10v10h-12zM829 532h17v17h-17v-17zM862 1280h17v16h-17v-16zM872 412h17v16h-17v-16z" />
<glyph unicode="D" horiz-adv-x="1089" d="M70 80q12 3 12 14q0 3 -6 15t-6 16v27q0 24 2 38q3 51 8 58v250v133v129v182q0 4 1 9.5t1.5 7.5t-0.5 4l-12 608q8 27 40 47q25 15 48 15q7 0 14 -1l500 -16q87 -3 176 -80q92 -73 104 -156v-12q0 -9 22.5 -29t22.5 -36q0 -17 15 -107q-1 -1 -1 -19q0 -71 21 -403h2 q-14 -31 -14 -87q0 -19 2 -40q1 -17 1 -32q0 -66 -11 -97q10 -27 10 -55q0 -58 -35 -115v-65q-21 -3 -33 -31q-8 -41 -16 -51q-113 -176 -301 -176h-6q-33 -23 -70 -23q-12 0 -50 4t-48 4q-25 0 -45 -8l-25 25q-30 -26 -104 -29q-28 0 -63.5 1t-43.5 1l-24 1l2 1q-1 1 -10 6 t-21 11t-27 12q-29 15 -32 49zM100 819h19v19h-19v-19zM145 887q10 -10 25 -10h10q5 4 17 12q8 12 8 18v2q-37 -9 -60 -22zM213 1055l10 -11q2 -2 6 -2h4q10 0 35 25q-7 10 -12 10t-14 -4.5t-18 -10.5t-11 -7zM213 1200l10 12h-10v-12zM238 338h16v16h-16v-16zM238 496 q6 -9 20.5 -23t24.5 -14h2q1 0 3.5 1t4.5 1q10 17 10 20q0 25 -37 25q-18 0 -28 -10zM248 393l10 -10h14q18 0 21 10q-10 13 -25 13q-14 0 -20 -13zM248 641l6 -2q4 4 14 12l-10 13zM268 225l15 -22l10 12q-15 12 -21 12zM283 1370h16v16h-16v-16zM293 283l45 -13v4 q0 8 -17 17.5t-18 13.5zM293 1157l10 -22l10 10q-15 12 -16 12h-4zM313 731h19v17h-19v-17zM313 1032h19v19h-19v-19zM313 1200l25 -20l10 10l-20 22zM338 416l10 -10l4 -3q2 0 21 13q-6 12 -21 12q-8 0 -14 -12zM358 1055h33q18 0 27 12q-12 12 -33 12q-30 0 -27 -22v-2z M358 1235l15 -12h4q4 0 16 12q-6 12 -16 12q-13 0 -19 -12zM373 248l10 -10l4 -2q1 0 16 12v4q0 3 -10 18zM373 518h14v17h-14v-17zM383 944l10 -12q10 12 10 18v4h-6q-1 0 -2 -1t-4.5 -3.5t-7.5 -5.5zM383 1348q17 -31 43 -25l10 2q-15 27 -43 27zM403 326l15 -21l8 10 q-13 13 -16 13zM403 854h19v16h-19v-16zM406 508q34 -12 34 -84q3 -73 27 -103t51 -30q29 0 68 31l55 49q-10 15 -10 35q0 19 16 51q7 12 13 23t9 17.5t5 8.5h-12q-21 24 -21 59q0 11 4 45t4 41l-8 13l-2 4v4q0 11 23 37l-21 22q2 6 2 25q0 8 -2 35.5t-2 35.5q0 49 35 60 q-33 3 -33 20q0 5 5 22t5 23q0 15 -10 25q10 17 10 31q0 8 -5 31t-5 30q0 20 8 31q-6 15 -6 43q3 52 6 39q-1 58 -39 104q-37 45 -86 45h-2q-48 0 -71 -41l-15 -78q0 -27 15 -45q-13 -26 -13 -67q0 -33 15 -142v-14q0 -2 -1 -6t-1 -6q-15 -18 -15 -55q0 -11 8 -61.5t7 -67.5 q0 -28 -15 -62q2 -3 3 -10.5t3 -20t4 -24.5q9 -35 9 -51q0 -66 -49 -72zM461 1470q6 -12 18 -12h27v12q-24 0 -35 11zM471 1358l10 -10l25 22h-8h-9q-15 0 -18 -12zM481 113h31q11 0 14 12q-6 12 -20 12q-25 0 -25 -20v-4zM481 260l25 -22l10 10q-6 12 -20 12h-15zM506 1538 l10 -12v12h-10zM571 248l15 -10v10h-15zM571 1358l15 -10l10 18v4h-4q-3 0 -21 -12zM641 125h14v16h-14v-16zM662 1325l12 -12h12q14 0 23 12q-9 12 -25 12q-13 0 -22 -12zM684 819l10 -10q15 15 15 18v4h-9q-6 -4 -16 -12zM684 1122q15 -12 18 -12l7 2q12 15 12 18l-2 5 l-4 -2q-4 0 -19 12zM709 293l10 12h-10v-12zM719 674h10q12 15 12 18l-2 4l-4 2q-16 0 -16 -20v-4zM729 416l10 -10q36 24 45 32q-4 -5 -28.5 -9t-26.5 -13zM764 348l20 -22q15 15 15 18q0 16 -19 16q-10 0 -16 -12zM774 1077l10 -10l60 45v-2q-4 -4 -34.5 -11.5 t-35.5 -21.5zM784 1235l15 -12v12h-15zM797 971q0 -11 12 -17l20 23q-15 12 -18 12q-14 0 -14 -18zM952 573q18 -12 21 -12h4q10 17 10 19v4l-10 2q-19 0 -25 -13zM1012 719h14v16h-14v-16z" />
<glyph unicode="E" horiz-adv-x="1013" d="M68 82q0 5 7 22.5t7 22.5t-3 7.5t-9 -1.5q12 707 16 707q5 2 5 30.5t-2.5 92t-6.5 141.5t-7.5 206.5t-4.5 260.5l80 69l561 -14q7 0 44 6t48 6q54 0 78 -12q46 -27 49 -137q0 -59 -29 -166l-53 -31l-295 8q-3 0 -11.5 3.5t-11.5 3.5q-28 0 -51 -39q-24 -40 -39 -45 q7 -12 6 -60.5t7 -62.5q-14 -7 -43 -17q-21 -9 -37 -28q9 -25 43 -25q26 0 47 12l-2 -4v-4q0 -8 20 -35l320 -2q45 -33 45 -69q0 -16 -12 -31q14 -79 14 -115v-6q0 -52 -33 -94l-330 -20q-7 -7 -14 -7q-5 0 -22.5 7.5t-22.5 7.5q-15 0 -18 -31l22 -23q3 13 21 13h12 q-9 -17 -12 -47q2 -8 2 -27v-25v-14q-1 0 -3.5 1t-3.5 1h-4q-10 0 -34 -24q4 -7 25.5 -20.5t21.5 -22.5v-5q0 -6 -2 -8l-35 -35q39 -20 80 -75q31 -15 96 -15h4q21 0 98.5 8.5t100.5 8.5h4q39 0 55 -4q9 12 18 12t27 -12t23 -13q20 -23 20 -56v-9q0 -10 -2 -43.5t-2 -42.5 q0 -24 6 -39h-2q-6 -63 -20 -82q-24 -41 -68 -41q-32 0 -106 6t-109 6l-111 -2q-12 0 -106 4q-28 2 -64 6t-43 5q-13 -1 -67 -11q-45 -9 -64 -8h-6q-35 0 -71 19q-41 24 -41 57zM150 1346h16v16h-16v-16zM160 213h18v16h-18v-16zM160 504q10 -10 20 -10h25q12 15 12 18 q0 16 -20 16q-25 0 -37 -24zM172 752l23 22h-13zM240 752h16v16h-16v-16zM240 829l24 -15q25 -15 35 -15q6 0 18 8q-28 25 -56 25q-6 0 -11 -1zM240 942l32 23l-10 12zM260 623q0 -14 12 -17h15q13 0 20 10l-35 23q-12 -3 -12 -16zM262 426h17v16h-17v-16zM262 1087 q15 -12 19 -12l4 2v4q0 6 -13 19zM285 168h16v16h-16v-16zM285 987l10 -10q12 12 12 18v2l-6 2q-4 0 -16 -12zM307 213q12 -12 19 -12l2 2l2 2q0 4 -13 20zM307 1255l21 -10l-11 10h-10zM317 446q0 -20 25 -20h8q2 8 -6.5 14t-26.5 9v-3zM317 897l23 -23q3 1 13 6t15.5 8 t12.5 8t10.5 11t3.5 13q-4 2 -14 2q-16 0 -64 -25zM328 1055l12 -13l10 13l-10 10zM328 1190h18v16h-18v-16zM340 965l10 -11l12 11l-12 12zM373 90l12 -22l10 10q-15 12 -18 12h-4zM385 807l23 -23v13q-15 12 -19 12zM385 1200h4q4 0 19 12l-13 11zM385 1346l10 -11l6 -2 q7 5 17 13q-3 12 -17 12q-13 0 -16 -12zM408 336l10 -10v10h-10zM418 719l4 -2q3 0 18 12l-10 12zM418 1425h16v17h-16v-17zM440 225l23 -22l12 10q-6 12 -22 12h-13zM463 1380h16v17h-16v-17zM475 281h2q4 0 15 -6.5t14 -6.5q8 0 14 13l-35 22zM498 729l10 -10l12 10 l-12 12zM520 852l10 -10v10h-10zM586 258h18v16h-18v-16zM586 852l12 -10l10 10l-10 12zM586 1358l12 -12v12h-12zM676 1470h16v17h-16v-17z" />
<glyph unicode="F" horiz-adv-x="962" d="M68 80q0 31 10 70q10 54 20 69l-30 1354q30 65 65 65q4 0 17.5 -6t17.5 -6q3 0 12 12q173 -4 395 -11q95 -3 126 -3q16 0 16 1l-2 1q17 0 64 6t63 6q40 0 76 -22q1 -4 11.5 -26t10.5 -31q0 -13 -10 -21q12 -40 12 -74v-84l-14 -21t-15.5 -22t-15 -16.5t-21 -13.5 t-24.5 -4q-7 0 -58 5t-69 5h-49q-14 0 -41.5 3t-49.5 5.5t-26 1.5h-5q-65 0 -128 -78l-2 -63v-17q0 -138 92 -188q35 0 90 8t92 8q104 0 131 -71l-2 -97q-4 -64 -10 -84q10 -10 10 -18t-9.5 -27t-10.5 -22q-37 -21 -90 -21h-5q-20 1 -78 7q-64 8 -73 8q-57 -3 -83 -19 t-52 -65q10 -20 10 -45q0 -33 -16 -60l26 -332l-16 -102q-15 -45 -94 -45h-103q-12 2 -104 12q-61 9 -61 68zM98 887q1 0 5.5 -1t7.5 -1q8 0 32 24h-10h-6q-29 0 -29 -20v-2zM156 1055l12 -11q0 -2 8 -2q6 0 37 25q-6 6 -14 6q-22 0 -43 -18zM188 494l25 -23h12q18 0 21 12 q-4 1 -20 12t-19 11q-7 0 -19 -12zM188 641l7 -2q3 0 18 12l-12 13zM233 293l13 -12h6q4 4 14 12q-3 12 -14 12q-13 0 -19 -12zM233 1155l13 -20l10 10q-12 12 -16 12zM246 651h16v17h-16v-17zM246 1010l20 22h-10zM256 729l10 -10l15 10l-15 12zM256 1200l25 -22l10 12 l-25 22zM281 854l10 -12l10 12l-10 10zM291 1055q11 -11 16 -11q9 0 27.5 11t21.5 12q-13 10 -28 10q-28 0 -37 -22zM299 1239l2 -4q15 -12 18 -12h7l10 20q0 14 -17 14q-20 0 -20 -18zM311 786l15 -12l10 12l-10 11zM324 948q0 -13 12 -16l10 10v6l-10 17q-12 -3 -12 -17z M326 1358q26 -29 51 -29q9 0 12 6q-13 13 -53 27zM336 858q0 -9 10 -16l25 22q-20 13 -21 13q-14 0 -14 -19zM401 664h19v16h-19v-16zM426 719l8 -12l5 3q5 4 9.5 8t8.5 9t4 8l-2 6zM426 797l8 12h-8v-12zM426 1370l8 -12l12 12l-12 10zM426 1481l20 -23v12l-6 -2 q-1 0 -2 1.5t-4.5 5t-7.5 6.5zM459 887l10 12h-10v-12zM459 1526l10 12h-10v-12zM524 1380l15 -10v10h-15zM549 909l8 -7q8 -7 16 -11t15 -4t16 12q-10 10 -22 10h-33z" />
<glyph unicode="G" horiz-adv-x="1069" d="M63 1036q-1 19 -1 28.5t1 8.5q0 34 23 43q-2 10 -3 32t-3 36q4 222 117.5 335t326.5 121q142 -7 209 -47l8 -4h7q35 0 74 -29q44 -31 100 -98q19 -44 53 -182q16 -16 16 -41q0 -5 -4 -27t-4 -30q0 -16 10 -33l-51 -43l-285 10q-21 26 -21 56q0 7 1 14l2 16l18 23 q-26 7 -53 47q-27 43 -53 43q-15 0 -23 -4l-30 32q-24 -13 -24 -42q0 -6 1 -13q-53 -53 -53 -158v-24q10 -10 10 -23q0 -4 -5 -21t-5 -22q0 -12 8 -20l-8 -12q10 -10 10 -19q0 -4 -5 -19t-5 -20q0 -10 8 -18q-18 -12 -18 -31q0 -8 11 -34.5t11 -35.5q0 -16 -12 -28 q10 -10 10 -19q0 -6 -5 -21t-5 -18q0 -7 10 -20q-10 -57 -10 -219v-39h-12q-7 0 -14.5 -2t-8.5 -2q84 -153 217 -180l25 22l-45 31q65 36 65 131v16q0 13 -2 17h6q5 0 20 -4t19 -4q14 0 23 18q-15 21 -44 21q-7 0 -14 -1l-86 99l25 22l-25 21l-10 -10q-20 23 -20 53 q0 7 2 31.5t2 31.5q0 15 -4 35l12 10q-12 6 -12 15q0 4 6 15t6 15l47 31l307 -10q9 12 31 12t37 -12l24 -76q-6 -131 -9.5 -219t-4.5 -127.5t0 -38.5q-1 -1 -1 -12q0 -49 24 -295v2v-6q0 -35 -24 -65q-25 -32 -60 -32q-32 0 -105 27q-77 31 -100 31q-57 0 -88 -58 q-73 -18 -138 -18h-18h-14q-131 0 -211 54q-85 58 -121 184q-59 108 -59 442q0 112 -2.5 213.5t-4.5 140.5zM109 760l10 -12h12q12 0 21 12q-9 12 -23 12q-17 0 -20 -12zM129 965l10 -21l13 10q-5 2 -10 5l-7.5 4.5t-3.5 1.5h-2zM139 401l13 -10l10 10l-10 11zM139 477h17 v17h-17v-17zM205 1182h14v16h-14v-16zM225 705l13 -11v11h-13zM225 1311l13 -11l10 11l-10 12zM236 518q0 -4 2 -8q9 -12 32 -12h37l6 2h-2v32q-20 13 -49 13q-26 0 -26 -23v-4zM238 227q10 13 49 13q34 0 37 20q-21 -3 -86 -33zM238 1247l43 21h-33zM248 760h33 q12 12 12 18v2q-1 0 -3 1t-3 1h-4q-7 0 -35 -22zM268 1051h19v16h-19v-16zM336 760h14v16h-14v-16zM336 944h18v10h-4q-1 0 -14 -10zM344 424l10 -12l15 12l-15 10zM344 846l43 -43l10 10q-5 10 -27.5 20t-25.5 13zM354 629q5 -2 9.5 -5t7 -4.5t4.5 -1.5h4q10 17 10 19l-2 2 h-2q-4 0 -16 12zM354 1083q15 -10 21 -10h4v4q-4 7 -10 19zM369 197l10 -13l8 13l-8 10zM387 987h19v17h-19v-17zM397 240q19 -13 21 -13h4v4q-4 9 -10 19zM397 1247l15 -12v12h-15zM442 1452h19v16h-19v-16zM465 121l8 -23l12 11l-16 12h-4zM508 1399l10 -13l10 13l-10 10z M528 250l25 -23l8 13q-5 10 -18 10h-15zM553 1356h12v14h-12v-14zM584 737h14v17h-14v-17zM639 272l8 -12h6q4 0 19 12v2q0 7 -15 19zM657 1333l25 -10l-10 10h-15zM672 348l10 -22l8 10q-12 12 -16 12h-2zM672 856h14v16h-14v-16zM705 412l20 -21l2 -2q6 0 19 11l12 12 q-9 12 -29 12q-15 0 -24 -12zM715 532l43 -45l10 13l-35 20l15 12q-11 11 -19 11q-10 0 -14 -11zM748 586l10 -11l10 11l-10 10zM758 152l10 -11v11h-10zM758 272h14v17h-14v-17zM758 1442h14v16h-14v-16zM801 532h10v21zM877 391l10 -10l10 10l-10 10zM897 500l10 -13 q15 15 15 19l-2 4h-7q-3 0 -16 -10z" />
<glyph unicode="H" horiz-adv-x="1083" d="M68 1503q0 6 6 41t4 45q34 49 119 49q26 0 67 -4q18 -1 32 -1q24 0 40 3l65 -12l29 -43l4 -278q-3 -2 -11 -8t-12 -9.5t-9.5 -8.5t-8.5 -10t-4 -10l12 -10q7 10 23 10h10q-10 -13 -10 -30q0 -7 6 -31t6 -31q0 -16 -12 -28q3 -4 17.5 -27.5t20.5 -31t20 -21.5t29 -19 t34 -4q10 -1 51.5 6t52.5 7q25 0 51 -11l35 33q-13 23 -33 23q-7 0 -33 -11.5t-32 -11.5q17 22 29 70q2 8 6.5 33.5t9.5 39.5q-25 36 -25 70q0 27 15 51q-19 149 -19 160q0 88 37 131q46 12 70 12h78q11 -9 32 -12q18 -3 37 0q8 1 16.5 2t13 1.5t7.5 0.5q26 0 48 -17.5 t22 -41.5q-9 -373 -9 -561q0 -72 1 -117q0 -11 -11 -86q-5 -60 -2 -60l21 -643q-11 -13 -23 -77q-38 -13 -118 -13h-31q-11 0 -49.5 -6t-51.5 -6q-15 0 -61 27q-22 65 -25 172q-1 71 -1 119q0 80 3 96q0 3 1.5 9t3.5 16.5t4 19.5q4 36 4 47q0 36 -13 106q-45 66 -109 66h-11 h-7q-34 0 -64 -28q-32 -31 -40 -70l8 -33q-2 2 -6 2h-2q-6 0 -13.5 -5.5t-13.5 -11.5t-12 -13l-6 -7q1 0 18 -17.5t27 -17.5h2q4 0 6 2q-2 -9 -2 -26t2 -41q1 -9 1 -18q0 -31 -9 -48q9 -35 12 -61q-2 -22 -12 -62q10 -45 10 -94t-10 -94q-26 -33 -76 -33q-13 0 -60.5 6 t-62.5 6q-36 0 -57 -12h-6q-43 0 -64 27q-1 2 -5 10.5t-10.5 22t-14.5 28.5q12 9 12 16q0 4 -6 17.5t-6 17.5q0 9 10 17l-6 6q10 297 18 346q-1 14 -2.5 86t-7.5 125q0 47 -1 112.5t-1 84.5v33q0 101 10 218q-9 48 -9 88q0 13 1 25q-1 6 -1 18q0 41 9 146q-22 25 -22 57z M100 580l15 -11v11h-15zM125 1358l20 -12v12h-20zM145 803h19v16h-19v-16zM178 414q19 -13 21 -13h4v5q0 2 -13 18zM178 1346l12 -11l13 19v4h-4q-6 0 -21 -12zM203 680h39q26 0 39 10q-13 10 -23 10q6 0 -55 -20zM233 1124l23 -10v10h-23zM248 602l8 -12v12h-8zM256 535 l12 -11v11h-12zM256 758q21 -15 37 -15q9 0 33 15q-13 22 -33 22q-28 0 -37 -22zM266 305l2 -4h15q15 0 18 12q-4 11 -12 11q-23 0 -23 -19zM270 958q0 -8 11 -12h30q19 0 25 12l-11 11t-11.5 11t-10 7.5t-10.5 3.5q-6 -9 -12.5 -19t-8.5 -13t-2 -1zM281 1036l12 -12h10 q14 0 23 12q-10 13 -25 13q-13 0 -20 -13zM293 469l8 -23q12 15 12 19l-2 4h-18zM301 401l25 -22l10 12q-3 13 -23 10h-12zM301 625h25v4q0 3 -15 18zM301 858q41 -35 94 -35h19l12 13q-3 2 -10.5 3.5t-19.5 4.5t-23 6q-42 10 -56 10h-8q-4 0 -8 -2zM301 1147h16v16h-16v-16 zM336 1092l20 -23l15 10q-10 13 -25 13h-10zM346 913q15 -12 21 -12h4v4q0 4 -15 19zM346 1190l10 -10h4q1 0 21 10q-3 12 -19 12q-13 0 -16 -12zM371 625l30 -23v10q-7 13 -20 13h-10zM381 690q7 -10 16 -10q7 0 17 4.5t19.5 10.5t12.5 7q-13 13 -40 13q-25 0 -25 -25z M381 958l8 -12q12 15 12 19v4h-6q-1 0 -2 -1.5t-4.5 -4t-7.5 -5.5zM389 1335l12 -22l13 12q-20 10 -21 10h-4zM401 223l13 -10v10h-13zM401 768q3 -18 21 -18q4 0 24 9t27 9q22 0 31 -33l8 10q-59 41 -74 41q-16 0 -37 -18zM414 1047l12 -11l20 21l-10 2h-4q-12 0 -18 -12z M434 936q6 -12 27 -12l8 2q41 10 67 31t31 44q-10 5 -12 5q-20 0 -53 -39q-32 -32 -60 -32q-4 0 -8 1zM479 836l10 -13q8 0 33 -11t33 -11q12 0 27 12h-2q-46 33 -70 33q-18 0 -31 -10zM479 1001h4q1 0 21 13l-15 10zM567 887q0 -4 15 -19q2 -2 8 -2h8q54 0 72 47h-27 q-2 0 -6 1t-6 1h-13q-51 0 -51 -28zM582 958l10 -12h24q18 0 21 12q-10 13 -31 13q-14 0 -24 -13zM592 758h14v16h-14v-16zM645 725q12 -2 37 -2q24 0 33 12q-13 10 -29 10q-31 0 -41 -20zM645 813l25 -33l12 11q-22 22 -31 22h-6zM682 492l19 -12q19 -11 26 -11q11 0 18 10 q-10 23 -34 23q-21 0 -29 -10zM682 645q0 -4 6 -4q4 0 19 3t18 3q14 0 20 -12q15 12 15 20v2q-4 -2 -15 -2q-5 0 -22 7.5t-23 7.5h-2q-4 0 -8 -2q-8 -20 -8 -23zM700 414l15 -23q10 13 10 19v4h-25zM715 236h14v16h-14v-16zM725 1014l10 -13l43 35q-4 4 -10 4q-24 0 -43 -26 zM735 1157l10 -22l15 12q-15 12 -23 12zM745 301l15 -10v10h-15zM745 735l15 -10l4 -2q4 4 14 12q-3 13 -14 13q-9 0 -19 -13zM760 891h14v16h-14v-16zM760 1202q12 -12 16 -12h2l2 4q0 3 -12 18zM768 846l10 -10l6 -2q4 0 19 12q-3 12 -19 12q-13 0 -16 -12zM793 1057 q10 -10 18 -10t24.5 10.5t20.5 11.5q-6 12 -29 12q-25 0 -34 -24zM803 512l10 -10l10 10l-10 12zM803 1235l10 -10l10 10l-10 12zM823 946l15 -10l10 10l-10 12zM836 852q0 -13 12 -16l8 10l2 6q0 1 -1 2.5t-4 5.5t-5 8q-12 -3 -12 -16zM856 512h18v18h-18v-18zM901 401h17 v17h-17v-17z" />
<glyph unicode="I" horiz-adv-x="518" d="M63 154q25 294 31 323q4 20 8 21q2 0 4 -2q-15 20 -22 212.5t-15 658.5q-2 132 -3 204q22 45 63 65l30 2h3h129q67 0 139 -22q22 -43 25 -88q-1 -3 -5.5 -34.5t-9.5 -55.5q-10 -49 -10 -90q0 -17 8 -127q2 -32 2.5 -75t1.5 -54q0 -68 -6 -125q-7 -98 -16 -121 q3 -101 8 -236.5t7.5 -221.5t2.5 -148q0 -19 7 -72t8 -64h-2q3 -104 -129 -104h-7q-29 0 -108 12q-77 11 -111 11h-10q-20 17 -20 38q0 7 6 31t6 31q0 16 -15 31zM129 635h18v16h-18v-16zM129 825l23 -12v12h-23zM186 891q3 -13 25 -10h8q4 4 14 12q9 6 9 18v2 q-34 -10 -56 -22zM254 1059l10 -12q6 -3 8 -3q10 0 35 25q-3 6 -12 6q-15 0 -41 -16zM285 489l22 -20l4 -2q4 0 19 12q-23 23 -31 23q-4 0 -14 -13zM285 657l14 -10v10h-14zM342 301h16v16h-16v-16z" />
<glyph unicode="J" horiz-adv-x="1001" d="M14 635q0 82 154 82q53 0 88 -4q77 -10 88 -13q37 -16 37 -82v-16q0 -3 -1 -15t-1 -20q-3 -34 0 -51q-12 -15 -12 -37q0 -3 13.5 -44t8.5 -60q5 -5 16 -16.5t17.5 -18t16.5 -14.5t19.5 -12t18.5 -5q37 0 62 45q23 51 49 64q-25 16 -25 53q0 30 15 57l6 -2q-6 0 24 23v6 l-12 17l-8 12l-15 -13h-8l-2 80q0 19 8 129q2 31 4 71t3 50q0 19 -7 98q-8 86 -8 99q0 24 6 100l11 88l-25 273q-3 29 30.5 53t65.5 24q5 0 20.5 -2t20.5 -2q19 0 119 8q72 -1 99.5 -31t27.5 -104v-2q0 -40 -29 -94q17 -328 17 -631q0 -36 -0.5 -78.5t-0.5 -66v-47t1.5 -35 t3.5 -16.5q0 -87 -27 -140q15 -19 15 -39q0 1 -2.5 -8.5t-8.5 -32t-12 -51.5q-25 -94 -117 -170q-83 -71 -173 -71h-7q-33 3 -43 -21l-20 -1q-42 0 -78 -1q-39 0 -78 23q-14 8 -70 18q-66 12 -73 14q-65 18 -107 80q-48 82 -74 119l-37 330l11 10q-15 19 -15 41zM193 221 l12 -12l8 12l-8 10zM213 330q11 -11 27 -11h8l10 17l-2 6h-23q-17 0 -20 -12zM223 418h19v16h-19v-16zM311 264l15 -10l43 43zM344 199l25 -23q12 6 12 23l-2 10l-8 2h-6q-15 0 -21 -12zM444 133l13 -10v10h-13zM555 209l23 -21l10 11q-6 12 -23 12zM563 352q18 -12 21 -12 l4 2q10 12 10 16v4l-10 3q-18 0 -25 -13zM578 100h16v17h-16v-17zM608 408l13 -13h4q3 0 16 13q-5 10 -14 10q-17 0 -19 -10zM621 244l12 -23l8 10q-13 13 -16 13h-4zM621 1120h16v17h-16v-17zM633 1339l8 -10v10h-8zM641 725l10 -10q9 -2 29 -2q9 0 18 12q-12 12 -28 12 q-20 0 -29 -12zM676 408q3 -13 16 -13h27v13q-3 12 -21 12q-16 0 -22 -12zM676 1042l8 -10l14 10l-14 13zM684 516h18v16h-18v-16zM684 1219l25 -11v11h-25zM709 199h16v16h-16v-16zM709 780l10 -22v12zM784 1395h13v22zM840 408l20 -13v13h-20z" />
<glyph unicode="K" horiz-adv-x="1144" d="M72 1516v10q0 75 45 98q45 0 90 6q47 8 84 8h11q89 0 136 -47q4 -24 4 -30q0 -11 -8 -50.5t-8 -52.5q0 -24 12 -45h-4q1 0 -1.5 -2t-10.5 -8l-16 -12q2 -2 7.5 -8t8 -8.5t7.5 -5t9 -1.5q4 -8 4 -12q0 -12 -14 -19q-20 -10 -22 -12l22 -22l-22 -23q22 -9 36 -51 q15 -43 41 -49v-11h-10q-18 -3 -22 11q-13 -6 -13 -25v-8q13 -20 56 -45q27 15 24 43l-2 12l-10 12l4 -2h4q7 0 35 25q-4 12 -4 18q0 13 19.5 55.5t19.5 59.5l12 -2q25 -6 43 23l-25 20q20 28 41 109q21 80 43 108q32 51 97 51h16q4 -2 10 -2t6 -2q13 0 56.5 3t54.5 3 q89 0 121 -49q-31 -89 -66 -160l-137 -266q-102 -203 -111 -295l127 -297q1 -3 7.5 -11.5t9.5 -16.5q1 -3 6 -20.5t7.5 -25t8 -21t12.5 -22.5t15 -16q0 -2 -1 -4.5t-1 -3.5v-8q0 -33 33 -62q11 -45 67 -143q47 -80 51 -149q0 -21 -6 -39q-22 -19 -47 -19q-6 0 -31 3t-34 3 q-21 0 -41 -10q-7 3 -22 6t-19 4q-16 3 -41 0q-10 -2 -29 -2q-10 0 -14 -2q-74 3 -101 49q-11 30 -38 131q-33 114 -48 146q-9 11 -21.5 35.5t-16.5 31.5q-25 45 -25 74q0 21 8 37q-14 7 -59 35q-33 20 -64 20l-32 -32q30 -16 30 -48v-6q0 -8 -5 -39.5t-5 -40.5 q0 -20 12 -32q-12 -18 -12 -37q1 -9 8.5 -41.5t7.5 -42.5q0 -9 -4 -25h-4l-15 -13q-6 -4 -13 -9q34 -12 34 -57v-7q0 -92 -2 -92l-35 -33q-26 0 -86 -8q-8 -1 -84 -8q-97 0 -149 49q-8 33 -8 76q0 20 10 92q11 79 16 100q-5 188 -8 393.5t-4.5 272t-5.5 57.5q-1 3 -1 11 q0 19 5 67l4 58q-3 95 -9 180.5t-9 121.5t-2 40zM172 868h33q15 0 22 13q-8 10 -18 10q-24 0 -37 -23zM172 1057l12 -10l11 10l-11 12zM205 670l12 -13q12 15 12 19l-2 4l-2 2q-5 0 -20 -12zM205 758l12 12h-12v-12zM205 1169l35 -22v10zM262 481l10 -12v12h-10zM272 225h17 v17h-17v-17zM272 958h17v17h-17v-17zM272 1280l33 -20q4 0 12 8q-25 22 -30 22q-8 0 -15 -10zM283 549q0 -19 12 -25q13 29 41 29q41 3 47 6q-35 12 -53 12q-20 0 -47 -12v-10zM283 614q3 18 30 21q28 3 25 16v6q-2 -1 -11 -5t-12.5 -5.5t-10.5 -5.5t-10.5 -7t-6.5 -8.5 t-4 -11.5zM283 836l12 -11v11h-12zM283 1180l12 -11l12 17l-2 6h-4q-3 0 -18 -12zM295 391h16v17h-16v-17zM295 1069q9 -22 45 -22h20l3 3q3 2 6 5l6.5 6.5t5.5 7t2 6.5v4q-8 -8 -29 -8h-21t-16.5 -0.5t-11 -1t-7.5 -0.5h-3zM305 715l12 -13h2q6 0 19 13q-2 10 -16 10 q-12 0 -17 -10zM305 1346q4 -2 7.5 -5t5.5 -4.5t4 -1.5h6v4q0 1 -11 19zM328 436q15 -12 16 -12l6 2v2q0 6 -12 18zM328 868q11 3 32.5 8.5t32.5 8.5q46 14 58 28q-13 25 -25 25q-6 0 -28 -20.5t-31 -20.5q-8 0 -17 6q-22 -22 -22 -31v-4zM338 817q0 -14 18 -14h27 q12 15 12 16v6q-13 13 -33 13q-24 0 -24 -21zM338 946h18v17h-18v-17zM350 358h17v17h-17v-17zM350 758h17v16h-17v-16zM350 1001l10 -10h5q8 2 18 10q-3 13 -16 13q-14 0 -17 -13zM371 1186q0 -14 12 -17h10q19 -3 23 11q0 3 -10.5 12.5t-16.5 9.5q-18 0 -18 -16zM373 657 l10 13h-10v-13zM373 1247l10 10h-10v-10zM383 715q21 -15 49 -15q30 0 51 15v2q0 6 -12 18q3 0 0 1t-8 1h-47q-30 0 -33 -22zM393 584q0 -15 21 -15h14q12 15 12 19q0 16 -24 16q-23 0 -23 -20zM406 758l6 -2h2q10 0 37 24q-13 13 -17 13q-25 0 -28 -35zM406 981l47 -18 q23 -14 30 -39h21q36 0 45 22q-109 19 -133 68zM471 647q7 -10 21 -10h14q10 13 10 16q0 17 -14 17q-8 0 -31 -23zM483 813q26 -16 41 -16q9 0 15 6q-19 23 -56 45q13 -6 13 -19q0 -9 -13 -16zM504 1018l2 -4h8q18 0 25 10q-3 12 -15 12q-20 0 -20 -18zM528 1114l11 -22 l10 10q-12 12 -17 12h-4zM549 569l12 -10l2 -2q6 0 21 12q-6 13 -17 13t-18 -13zM549 735l12 -10l23 23l-13 10zM561 881q11 -7 23 -7q6 0 34 19.5t37 19.5h7q-24 9 -44 9q-51 0 -57 -41zM571 1053q0 -19 17 -19q6 0 16.5 11.5t11.5 11.5q-6 12 -22 12h-10q-13 -7 -13 -16z M584 657l32 -20q13 13 13 16q0 19 -25 19q-17 0 -20 -15zM584 780q0 -12 16 -12h21q7 0 8.5 0.5t4 4.5t5.5 7q10 10 10 17v6q-5 2 -8 2h-37q-20 0 -20 -25zM594 1102q6 3 22 -10l11 10l2 4q0 2 -13 18zM594 1202l10 -10v10h-10zM604 514l12 -10l11 10l-11 10zM627 592 l12 -23v11zM649 637l13 -12h2q6 0 18 12q-3 10 -16 10q-10 0 -17 -10zM694 981h17v16h-17v-16zM705 1192l12 -12h2q5 0 20 12q-10 10 -18 10q-9 0 -16 -10zM727 514q15 -12 16 -12l7 2v2q0 2 -1.5 4l-4.5 6t-5 8zM750 391q7 -10 18 -10h14q13 16 13 18v4h-27q-15 0 -18 -12z M782 1180l13 -23v12zM793 530q0 -13 12 -16l22 23q-15 12 -18 12q-16 0 -16 -19zM795 193h16v16h-16v-16zM795 336l10 -10l12 16l-2 6h-2q-6 0 -18 -12zM860 1335l12 -10v10h-12z" />
<glyph unicode="L" horiz-adv-x="970" d="M68 68q16 272 16 392q0 40 -2 64q3 76 14 103q-7 152 -9.5 382t-4.5 294q0 14 -2.5 54t-3.5 68q-3 47 -3 82q0 21 1 39q-3 57 65 90q3 0 10.5 1t10.5 1h22q38 0 111 -6q51 -6 113 -6q36 0 46 -39v-8.5t0.5 -22.5t0.5 -32q0 -24 12 -45q-21 -168 -21 -205q1 -6 8 -84 l-18 -23l18 -604q-11 -11 -12 -24q0 -7 6.5 -27t6.5 -25q0 -14 -13 -24q13 -16 13 -39q0 -25 -13 -41q60 -66 114 -66h9l281 23h5q29 0 61 -20q36 -22 44 -48q-12 -24 -12 -59q0 -15 6 -61.5t6 -59.5q0 -88 -110 -88q-35 0 -84 10q-47 10 -74 10q-8 0 -14 -1l-467 -19 q-7 10 -17 10q-4 0 -18 -7t-18 -7q-2 0 -6 2.5t-12 9t-15.5 13l-22.5 19.5t-28 24zM104 709l13 -13h8q9 0 35 23q-1 2 -2 2h-29q-19 0 -25 -12zM172 864l10 -10l6 -2h5q9 0 34 25q-3 6 -14 6q-16 0 -41 -19zM205 305l22 -22h11q18 0 24 12q-5 0 -20.5 11t-20.5 11 q-7 0 -16 -12zM205 463l4 -2q3 0 18 12l-10 12zM262 115l10 -11v11h-10zM272 551h17v18h-17v-18zM272 842h17v18h-17v-18zM285 1022l10 -12v12h-10zM328 328h18v16h-18v-16zM328 877l12 -13v13h-12zM328 1055h18v16h-18v-16zM362 674h17v18h-17v-18zM373 328l12 -11v11h-12z M406 209l2 -4h32v12q0 10 -14 10q-20 0 -20 -18zM575 195l11 -13l12 13l-12 10zM618 317v17h19v-17h-19z" />
<glyph unicode="M" horiz-adv-x="1390" d="M68 190l18 349l6 18q0 253 -8 371q3 71 18 86l-28 555q23 69 114 69h25q5 0 17 -1t18 -1h61q29 0 78 -8q36 -5 62 -5q11 0 20 1q44 -38 55 -115q7 -25 17.5 -73t13.5 -58h-4l-15 13l-14 10l-10 -12q65 -33 74 -132q6 -120 37 -159l-2 -52v-2q0 -25 24 -34h6q-2 0 -6.5 -1 t-7.5 -1q-22 0 -25 12q-12 -3 -12 -16q0 -14 12 -17q9 -24 39 -31q21 -5 49 -14l35 33l-22 20q2 14 32 31.5t35 28.5q-24 18 -24 39q-1 9 13.5 44t14.5 48q0 8 -4 24h11q15 -3 30 6.5t15 22.5q0 1 -1.5 2.5t-5 5.5t-6.5 8h-22q15 41 12 56q2 -2 4 -2h4q10 0 37 24 q-22 36 -22 76v8q0 34 20 90l35 95q40 34 119 34q28 0 75 -4q14 -1 25 -1q28 0 47 5q39 -8 105 -16q57 -22 57 -76l2 -2q-2 -14 -6 -69t-8 -97q-13 -119 -13 -157v-9q3 -71 11 -123q-19 -9 -19 -24q0 -23 35 -35l-4 -848q-3 -6 -6 -18t-4 -15q-3 -9 0 -30q2 -8 2 -21 q0 -10 2 -12q0 -61 -58 -74q-6 -4 -98 -4q-19 0 -39 -4q-17 10 -72 10q-32 0 -53 35q15 73 15 123q0 28 -11 121q-5 69 -5 101q0 14 1 20v20q0 53 13 107h6q2 0 3.5 -1.5t5 -4.5t7.5 -5l23 23q-2 18 -17 27t-41 6l45 45h-6q-34 0 -37 45q-1 24 -10.5 34.5t-28.5 10.5h-6 q-10 -8 -43.5 -51t-46.5 -52q10 -10 16 -10h7l10 10q-4 -14 -17 -63q-12 -41 -28 -59q4 -9 8 -31q0 -15 -10 -60.5t-10 -58.5q0 -5 2 -22t2 -23q0 -53 -37 -96q8 -16 8 -37q0 -56 -35 -109q-39 -57 -92 -57q-14 0 -33 18.5t-26 18.5t-9 -4q-31 116 -53 254q-34 214 -39 252 h4q-1 0 0.5 1.5t5.5 4.5t9.5 6.5t13.5 9.5q-29 21 -29 23h-4l-12 -15q0 98 -88 170l-53 2h-2q-35 0 -35 -28q0 4 9 -8q5 -8 13 -21h56q-11 -63 -11 -84v-6h-6q-4 0 -16 12q-20 -29 -23 -28v-7l23 -20l8 8l2 -244q12 -24 12 -67v-33h-6l-9 -9q-7 -5 -19 -13q36 -9 36 -58 q0 -18 -4 -45q-3 -30 2 -43l-34 -35q-24 4 -39 4q-14 0 -72 -8q-51 -7 -73 -6h-5q-98 0 -98 59q0 7 4 27t4 25q0 19 -12 34q12 3 12 13q0 16 -18 30zM131 887l23 -13v13h-23zM131 1055h16v16h-16v-16zM164 674h16v16h-16v-16zM164 1165l10 -22v12zM219 1278q4 -3 12 -7 l21 -14q9 0 12 9l-33 34zM229 547q0 -10 15 -10q16 0 20 14h-33zM231 1178l11 -13q12 15 12 19v4h-4q-7 -2 -19 -10zM242 393h16v17h-16v-17zM242 1065q13 -23 39 -23h38q25 25 25 29l-2 4l-55 -10q-23 0 -33 10zM254 1356q4 -3 7.5 -6.5l5 -5t3.5 -1.5l6 3v2q0 5 -12 20z M264 696l12 11v12zM276 887l9 -4q8 0 31 8t30 8q2 0 4.5 -1t3.5 -1h31q20 0 25 10q-9 25 -29 25q-25 0 -49 -35l-13 10q-2 0 -4.5 1t-3.5 1q-7 0 -35 -22zM287 348h16v17h-16v-17zM287 438h16v17h-16v-17zM287 819q15 -27 45 -24l10 2q12 15 12 16q0 29 -32 29 q-25 0 -35 -23zM309 551l10 -12h5q6 0 18 12q-3 10 -16 10q-14 0 -17 -10zM319 1255l13 -12l10 12h-23zM332 1178l10 -13h4q3 0 19 13l2 2q0 4 -13 20zM365 762l12 -10l22 22l-12 10zM365 997q12 -12 45 -28q30 -13 34 -39h21q36 0 45 22l-10 13q-16 -4 -25 -4q-23 0 -61 18 q-38 20 -45 18h-4zM377 1288l10 -10v10h-10zM377 1333l10 -10l12 10l-12 13zM377 1401q3 -12 18 -12h27v12q-28 0 -35 10zM410 1143l34 -33l5 -2q3 0 18 12q2 4 2 13v10q0 16 -14 16q-2 0 -45 -16zM442 815q0 -29 45 -29q16 0 23 11l-43 45q-25 -12 -25 -27zM465 1012l2 -2 h33v10q0 12 -15 12q-20 0 -20 -20zM487 1110l13 -23l10 11q-15 12 -16 12h-7zM487 1178l13 10h-13v-10zM500 887l10 -13h10q18 0 25 13q7 0 31 11t32 11q15 0 27 -12v10q-18 35 -43 35q-18 0 -49 -22zM510 729q15 -12 18 -12l4 2q13 13 13 16q0 17 -15 17q-20 0 -20 -19v-4z M532 784l23 -22q2 0 4.5 -1t3.5 -1h4q8 0 56 24q-9 25 -35 25q-28 0 -56 -25zM532 987h19v17h-19v-17zM532 1042q15 -12 19 -12l4 2q12 12 12 17q0 16 -14 16q-21 0 -21 -18v-5zM545 664q22 -56 67 -56q21 0 33 21zM545 1098l10 -11h4q1 0 19 11l2 4q0 2 -13 18zM555 516 l12 -10l11 10l-11 12zM567 571q3 -10 21 -10h6h6v4q0 7 -9 18t-13 11zM635 561l43 -33l-10 -12q27 -24 34 -24q2 0 6 1t5 1q-35 59 -78 67zM655 874l13 -10h10q14 -3 22 10l-22 23zM668 416h16v16h-16v-16zM668 594l10 -10l18 2q6 -1 11 -1q39 0 61 31q-1 0 -4 1t-4 1h-10 q-20 0 -41 -8q-13 -5 -25.5 -9.5t-15.5 -6.5zM678 739l22 -20q5 9 29.5 19t28.5 14q-3 14 -17 14q-8 0 -34 -13.5t-29 -13.5zM678 819q6 -12 20 -12h15q12 15 12 18q0 17 -16 17q-8 0 -31 -23zM700 393l13 -10l6 -2h2q9 0 37 25q-8 10 -17 10q-7 0 -22 -11t-19 -12zM723 897 l13 -11q12 -12 18 -12h4l10 19q0 16 -23 16q-16 0 -22 -12zM745 326l13 -11q18 3 27 9.5t6 13.5h-27q-16 0 -19 -12zM745 532q0 -16 25 -16q27 0 43 23q-6 12 -25 12h-30q-13 -7 -13 -19zM758 942l22 -22h6q19 -3 35 20q18 35 25 35l-10 12q-6 -22 -31 -22q-44 0 -47 -23z M780 1110l33 -23q10 10 45 13q30 3 33 20q3 0 0 1t-8 1h-47q-41 0 -56 -12zM793 707q65 -15 77 -15q50 0 66 37q-9 41 -35 41q-7 0 -29 -4t-26 -4q-21 0 -33 12l23 -45zM813 393l10 -10l13 10l-13 13zM823 584l35 -23v10zM823 819l13 -12q11 9 32 57q-36 -9 -45 -45z M836 1178h16v16h-16v-16zM846 1036q0 -10 12 -16h25q14 0 20 12q-30 23 -37 23q-20 0 -20 -19zM858 930l23 -23h8q17 0 24 13q-3 1 -19 11.5t-20 10.5q-10 0 -16 -12zM858 1210l33 -22q12 15 12 16q0 19 -22 19q-17 0 -23 -13zM899 864q0 -13 28 -31.5t31 -25.5q1 0 4.5 -1 t4.5 -1h4q8 0 22 22t21 25q-2 2 -8 2h-7q-6 0 -26 -3t-25 -3q-32 0 -45 26zM924 1012l2 -2q3 -2 5.5 -4.5t4 -3.5t3 -2.5l2 -2t1.5 -0.5h6l10 19q0 16 -14 16q-20 0 -20 -20zM936 897l12 -10l10 10l-10 10zM958 1401q9 -12 17 -12q7 0 22.5 17t16.5 17zM969 1055 q9 0 28 -17.5t23 -17.5q7 0 16 12q-8 -2 -26.5 15.5t-22.5 17.5q-8 0 -18 -10zM969 1143l12 -10l10 10l-10 12zM991 774l13 -12h24q15 0 21 12q-9 12 -29 12t-29 -12zM991 965q7 -13 21 -13h14q12 15 12 19q0 16 -16 16q-9 0 -31 -22zM1004 897l10 -10q3 3 32.5 11.5 t34.5 21.5q-8 8 -18 8q-4 0 -27 -16t-32 -15zM1014 393q43 -16 65 -16q16 0 25 6q-7 0 -31.5 11.5t-32.5 11.5q-10 0 -26 -13zM1014 1284q0 -12 12 -18l10 12l2 2q0 5 -12 20q-12 -6 -12 -16zM1026 483l10 -12l13 12l-13 11zM1071 293h16v16h-16v-16zM1071 1120l10 -10 q13 3 13 18v7v8zM1081 1401q23 5 45 22q-12 -2 -45 -22zM1094 616l10 -10l12 10l-12 13zM1094 719l10 10h-10v-10zM1104 674h16v16h-16v-16zM1116 797l10 -13h4q6 0 19 13q-6 12 -16 12q-14 0 -17 -12zM1116 1165q24 -24 35 -24h4q2 2 4 2v12q-23 23 -31 23q-9 0 -12 -13z M1126 991q0 -16 17 -16q1 0 16 12l-22 23q-11 -7 -11 -19zM1171 483l11 -12l12 12l-12 11zM1182 571h18v19h-18v-19zM1182 1087h18v17h-18v-17zM1194 1389q9 24 37 24q45 0 53 10q-13 13 -27 13q-10 0 -63 -47zM1272 662h16v16h-16v-16z" />
<glyph unicode="N" horiz-adv-x="1105" d="M68 162q5 128 8.5 248.5t4.5 185.5t3 88q0 33 12 45q-5 39 -6 82t-1 110.5t-1 100.5l-2 258l8 14l-20 277q26 63 76 63q15 0 24 -6l9 -2h18h92q75 4 96 10q78 -52 105 -151q14 -72 51 -182q30 -86 45 -136q-28 25 -35 25h-4q-4 0 -6 -2l-25 -23q19 -22 55 -41 q32 -19 46 -59q11 -35 71 -35h33q2 2 8.5 8t9.5 9.5t7 8.5t6 9.5t2 9.5q-10 13 -25 13h-8l-12 -15q6 31 10 139q0 82 -6 148q-10 105 -10 147q0 30 6 84q4 26 65 45q30 -12 70 -12q10 0 50 3t50 3q82 0 88 -84q-12 -3 -12 -12q0 -2 2.5 -9.5t1.5 -14t-8 -11.5 q-4 -303 -4 -665q0 -209 2 -209q-3 -2 -3 -44q0 -107 21 -470h-2q-1 -5 -3.5 -21t-3.5 -22.5t-4.5 -19.5t-7.5 -19t-10 -14t-14.5 -11.5t-19.5 -3.5q-33 10 -62 10h-10q-14 0 -62.5 -5t-64.5 -5q-41 0 -86 23q-55 85 -55 190q-36 91 -66 195q-14 50 -29.5 108.5t-23 86 t-12.5 36.5q9 -3 24 0q77 0 97 45q-10 10 -27 10h-39q-6 -18 -20 -18q-5 0 -22.5 8t-23.5 8q-15 0 -22 -20l-14 10q-34 -12 -43 -66q-6 -52 -33 -67q20 -14 20 -37q0 -7 -5 -30t-5 -31q0 -22 23 -39v1v1v1v1v1v-1v-1v-1v-1v-1v-1v-1v-1v-1v-1v-1v-1v-1v-1v-1v-1v-1v-1v-1v-1 v-1v-1v-1v-1v-1v-1v-1v-1v-10q0 -11 1 -65.5t1 -100.5q-4 -138 -15 -188q-36 -29 -112 -29l-146 4q-65 23 -65 98q0 26 12 47zM119 1157h14v17h-14v-17zM139 338l33 -12v12h-33zM172 1470l12 -12h27q12 0 18 12q-10 13 -26 13q-21 0 -31 -13zM217 774h10q21 0 27 12l-12 11z M229 664q9 -43 47 -43q11 0 23 8zM242 438l12 -10l2 -2q3 0 18 12q-6 13 -18 13q-8 0 -14 -13zM242 909l12 -10l2 -2q3 0 18 12q-6 13 -18 13q-8 0 -14 -13zM254 1055q3 12 14 12q4 0 17 -6t16 -6q9 0 18 12q-14 14 -26 14q-19 0 -39 -26zM262 809l12 -12l25 22l-12 12z M287 1303l12 10h-12v-10zM299 709l20 -23l13 6.5t14.5 7.5t12.5 8t12.5 10.5t8.5 12t7 16t2 19.5q0 12 -4 20q0 -29 -39 -41q-41 -15 -47 -36zM299 1010l8 -11h4q2 0 4.5 1.5t7 4.5t9.5 5q-3 12 -19 12q-14 0 -14 -12zM307 879q69 -23 90 -23q30 0 45 21v22q-1 0 -4 1t-4 1 h-8q-19 0 -61 -10q-46 -12 -58 -12zM319 797l23 -23l10 12q-6 13 -16 13h-6zM319 1145l13 -10v10h-13zM332 944h14v17h-14v-17zM332 1303l10 -23l10 10q-3 3 -6 5.5t-4 4t-2 2.5t-2 1h-6zM352 1032l10 -10q10 0 46 8q24 3 34 25q-4 2 -8 2h-4q-23 0 -39 -8q-38 -17 -39 -17z M362 629l23 -23v12l-14 13zM362 1090q0 -3 37 -3q30 0 43 13q-9 12 -20 12q-8 0 -30 -11t-30 -11zM362 1149q0 -11 15 -14q2 4 12 12q8 8 8 16v4q-2 2 -4 2q-4 0 -6 2q-25 0 -25 -22zM385 1245l12 -10h9q19 0 24 10q-6 15 -22 15q-17 0 -23 -15zM397 977q7 -1 31.5 -12 t34.5 -11q11 0 24 13l-20 20l53 23q-24 24 -35 24q-20 0 -20 -18q0 -14 10 -17q-13 -10 -33 -10q-33 0 -45 -12zM408 1325l14 -22l8 10l-14 12h-8zM422 1180q6 -13 16 -13h17q12 6 12 23v10q-9 12 -18 12q-8 0 -27 -32zM422 1425h14v17h-14v-17zM430 786q15 -12 19 -12h6 l2 4q-5 7 -15 19zM430 831q6 -12 27 -12h10q15 24 61 39q52 15 70 29q-20 20 -43 20q-28 0 -66 -28q-16 -12 -30.5 -24.5t-20.5 -18t-8 -5.5zM467 709l8 -13h4q1 0 21 13q-2 10 -19 10q-11 0 -14 -10zM467 1122l14 -12l6 2v4q-4 9 -12 19zM475 922l12 -13q5 10 30 21t28 14 v2q0 5 -13 21zM487 1212l13 11h-13v-11zM500 1335l12 -10zM512 1055l20 -23l23 23l-23 22zM520 764q3 -12 21 -12l24 2q13 13 13 16q0 16 -23 16q-16 0 -35 -22zM532 596l43 -35l15 12q-9 0 -25.5 14.5t-19.5 14.5q-10 0 -13 -6zM590 797l8 -11l57 56q-7 10 -16 10 t-27 -26.5t-22 -28.5zM598 461l37 22q-7 13 -19 13q-18 0 -18 -25v-4v-6zM598 731q15 -12 18 -12h5q14 11 14 16q0 17 -17 17q-20 0 -20 -19v-2zM610 967l11 -13h6q3 0 16 13q-3 10 -14 10q-17 0 -19 -10zM621 551q16 -23 34 -23q10 0 44 11.5t46 11.5q-26 20 -63 20 q-31 0 -61 -20zM621 606q10 10 48.5 21t43.5 14q-20 10 -31 10q-46 0 -61 -45zM635 393l8 -10q12 15 12 16v7h-4q-6 -5 -16 -13zM643 696l12 -10q1 1 14 6t23 11.5t10 13.5v6q0 4 -2 8q-12 12 -18 12q-2 0 -16 -23t-23 -24zM643 922h16v16h-16v-16zM643 1010l12 -11l11 11 l-11 12zM666 877q12 -3 18 -3q28 0 66 17l61 31l-33 22q-13 -32 -55 -41q-45 -8 -57 -26zM680 932h8q12 15 12 16v6zM688 438l12 -10l2 -2q8 0 23 12q-10 13 -20 13q-11 0 -17 -13zM700 823q0 -14 19 -14h26q3 4 6.5 7.5l5 5t1.5 3.5v6q-13 13 -33 13q-25 0 -25 -21z M713 360h14v17h-14v-17zM713 764h14v16h-14v-16zM725 1010h14v18h-14v-18zM733 651l12 13h-12v-13zM733 1268h17v18h-17v-18zM735 1180q0 -13 13 -13q7 0 20 13v10q0 17 -10 22q-5 -7 -12 -17zM743 713l2 -4q18 -15 52 -15q27 0 51 15q-3 36 -55 36q-53 0 -50 -32zM758 573 l10 -12h2q6 0 18 12l3 5q0 2 -13 18zM768 774h8q21 0 27 12l-15 11zM778 193l10 -13l15 13l-15 10zM778 999l10 -22l15 10q-18 12 -19 12h-6zM788 406q19 -13 21 -13h2l2 4q0 7 -10 19zM788 535q0 -14 15 -17l8 -2q20 0 23 12q-5 5 -13 15q-5 8 -12 8q-21 0 -21 -16z M803 315l14 -12l6 2q13 13 13 17l-2 4l-13 2q-11 0 -18 -13zM823 1145l25 -23l20 23q-6 12 -20 12q-19 0 -25 -12zM834 954q1 0 12.5 -11t17.5 -11h4q15 15 15 18q0 17 -27 17q-12 0 -22 -13zM848 641l8 -12h4q4 0 19 12q-3 12 -17 12q-11 0 -14 -12zM879 496h14 q10 13 10 16l-2 6h-4q-18 0 -18 -18v-4zM946 909l12 -10l13 10h-25zM958 786h3q2 0 20 11l-10 12z" />
<glyph unicode="O" horiz-adv-x="1058" d="M57 858q2 0 3.5 36t6.5 135.5t13 207.5q8 125 76 195q21 59 55.5 96.5t97.5 64.5q113 47 232 47q239 0 360 -147q-4 -6 -4 -16t22.5 -37t24.5 -33q21 -61 29 -143q26 -314 26 -404l-2 -328q-18 -9 -18 -22q0 -5 6 -24.5t6 -24.5v-19q-38 -221 -117 -319 q-54 -66 -130.5 -93.5t-192.5 -27.5q-184 0 -299 74q-73 59 -117 149q-45 89 -59 181q-6 121 -9 241t-5 164t-5 47zM123 510h16v16h-16v-16zM133 586l12 -11h9q15 0 22 11q-3 12 -20 12t-23 -12zM156 791l10 -21l10 10q-13 13 -16 13zM219 1001q0 -10 12 -16l11 12v2 q-3 9 -11 19q-12 -3 -12 -17zM221 662h17v16h-17v-16zM252 520l12 -10v10h-12zM252 1147l12 -21l10 11q-15 12 -16 12zM264 1071q3 5 23 12.5t20 16.5v4q-19 -3 -43 -27v-6zM274 340q0 -14 17 -14h26q13 16 13 18l-2 4q-9 12 -31 12q-23 0 -23 -20zM285 586h12q2 4 4 7.5 t3 5.5t2 3t1 2v4h-4q-18 0 -18 -18v-4zM307 1440q7 -13 21 -13q35 0 32 3v10q-9 12 -26 12q-18 0 -27 -12zM350 586h17v16h-17v-16zM360 770l11 10h-11v-10zM371 262h16v17h-16v-17zM371 444q15 -10 18 -10h4q13 13 13 19l-3 4q-3 -3 -20 10zM371 651l32 -20q9 0 13 8 l20 -21v-12q0 -10 -10 -20q10 -13 10 -43v-43q-12 -15 -12 -29q0 -7 17.5 -38.5t17.5 -43.5l2 -8q41 -78 117 -78h10q8 0 10 2q-10 17 -10 29q1 8 27 50.5t28 70.5q-1 25 -2 55t-1.5 46.5t-1.5 34.5t-2.5 29t-4.5 19q12 9 12 20q0 5 -5 20t-5 19q0 13 8 17l-10 12v8 q0 20 10 23l-10 12q0 2 -1 6t-1 6v15q0 82 53 82h6q6 0 8 -2q-9 12 -16 12q-4 0 -15.5 -4t-15.5 -4q-18 0 -18 22q4 7 10 19q-10 20 -8 34q0 13 10 50t10 45l11 -11l10 11l-10 10l-11 -10q-22 25 -22 51l12 88q-2 43 -40.5 82t-80.5 39q-50 -3 -71 -64q-10 -14 -25 -100v-2 q0 -5 5 -23t5 -24q0 -17 -20 -27q20 -17 20 -43q0 -7 -4 -31t-4 -32q0 -22 8 -33q-12 -6 -12 -14q0 -3 7 -13t7 -14q0 -8 -12 -14q11 -21 11 -50q0 -7 -1 -14q-2 -24 -2 -40t2 -25q-12 -9 -12 -25q0 -7 6 -27t6 -26q0 -21 -20 -31q-28 25 -35 25h-4q-4 0 -6 -2v-11z M371 1255l12 11h-12v-11zM383 899h16v16h-16v-16zM403 1288l17 -12l6 2v2q0 6 -10 18zM436 283l23 -21v10q-6 -3 -23 11zM459 1374h16v17h-16v-17zM512 186h16v17h-16v-17zM522 1384q3 -8 13 -8l30 21q-3 8 -10 8q-10 -7 -33 -21zM522 1493h17v16h-17v-16zM535 240l10 -11 h24q15 0 19 11q-9 12 -27 12q-17 0 -26 -12zM588 143l22 -12v12h-22zM631 1309l10 -21v10zM641 262h16v17h-16v-17zM653 326l64 22h-53zM674 1159q24 -24 35 -24h4l4 2v10q-13 -3 -33 22zM674 1364h43v10q-3 12 -12 12q-6 0 -18 -11t-13 -11zM684 770h16v16h-16v-16z M739 240l11 -11l10 11l-10 12zM739 489h17v15h-17v-15zM750 1266q11 -11 18 -11h14v11q-3 12 -16 12t-16 -12zM760 563l12 -10v10h-12zM760 1169l12 -10l10 10l-10 11zM772 401h16v17h-16v-17zM782 1331l17 -12l4 2l2 4q0 4 -12 16zM793 1061h16v16h-16v-16zM836 823l12 -10 v10h-12zM868 1180h17v16h-17v-16zM879 727q6 -16 39 -16q12 0 16 4q-6 12 -23 12h-32zM879 909q15 -10 16 -10h6v4q-4 7 -10 19zM911 543h17v16h-17v-16z" />
<glyph unicode="P" horiz-adv-x="1026" d="M72 1563q0 34 61 71l500 -6q16 -16 39 -16q7 0 28.5 2t28.5 2q29 0 53 -27q30 -24 45 -18q79 -58 116.5 -136.5t37.5 -189.5q20 -45 20 -94l5 2q-4 -5 -6.5 -25t-8.5 -75t-12 -101q-13 -89 -90 -180q-75 -85 -166 -110q-46 -11 -137 -11q-96 0 -131 -59q-6 -8 -13 -20 t-10 -17l33 -475q0 -34 -70 -80q-20 12 -62 12h-18q-5 1 -12 1q-21 0 -61 -4q-56 -5 -70 -5q-95 3 -95 80q0 13 3 27l4 573q2 -2 12 -2q17 0 54 37v6q0 3 -13 16l-53 -12l-2 145q0 38 10 136q-8 3 -8 18v27l8 20zM150 874l12 -10l6 -2h2q6 0 37 25q-3 6 -17 6q-12 0 -40 -19 zM182 313q6 0 21 -11t20 -11q7 0 19 12q-6 1 -21 12t-20 11q-9 0 -19 -13zM182 471l13 -10v10h-13zM207 1190l10 -12h2q5 0 23 12q-9 12 -21 12q-8 0 -14 -12zM227 977l25 -23l10 11q-6 12 -18 12h-6h-11zM252 829l20 23h-10zM262 549l10 -10l15 10l-15 12zM262 1022l25 -23 l10 11l-25 22zM287 662h14v18h-14v-18zM297 874l8 -10q6 -2 12 -2h2q15 0 27 10l20 10l9 5q-18 12 -41 12q-31 0 -37 -25zM305 1055l12 -11l5 -2l20 13q-6 12 -18 12q-13 0 -19 -12zM330 768q0 -10 12 -16l8 12l2 2q0 3 -10 20q-12 -6 -12 -18zM330 1167q28 -28 53 -28 q9 0 12 6q-1 0 -8.5 4.5l-15 9t-16.5 8.5t-13 4t-12 -4zM342 668q0 -14 8 -17l25 23q-18 12 -19 12q-14 0 -14 -18zM342 1391h23q20 0 20 12q-3 12 -23 12q-12 -1 -17 -5q-4 -3 -4 -8q0 -2 1 -5v-6zM385 809h16v16h-16v-16zM395 1313q4 -20 21 -31l24 -25q2 -4 2 -10v-4 q0 -13 -22 -65q20 -17 20 -54q0 -8 -3 -36t-3 -37q0 -50 34.5 -84.5t86.5 -34.5q-12 -15 -12 -19l2 -4h8q15 0 22 11l-30 22q10 26 30 29q7 0 33.5 -20.5t32.5 -20.5q16 0 25 24q-21 3 -58 25q41 61 41 160q-3 119 -31 161q-20 29 -69 35q-71 13 -94 33l-15 -20h25 q10 -7 10 -23v-12q-10 -23 -24 -23q-7 0 -28 11.5t-28 11.5zM408 965h18v16h-18v-16zM420 549l10 -10v10h-10zM420 842h14v16h-14v-16zM455 696l12 17l-2 6h-10v-23zM465 887l10 -13l25 23l-15 2q-14 0 -20 -12zM485 819q18 -12 21 -12l4 2q10 13 10 16q0 17 -12 17 q-23 0 -23 -19v-4zM530 713q0 -14 15 -17h22q31 0 41 23q-9 12 -28 12l-35 -2q-15 -3 -15 -16zM545 1403l43 -23q20 13 45 13q18 0 61 -19q39 -16 60 -16h6h8v2q-58 22 -70 33q-38 17 -77 20q-9 -12 -19 -12q-5 0 -21 7t-20 7q-7 0 -16 -12zM563 1481l12 -11zM666 1190h16 v16h-16v-16zM733 897h10l35 35zM733 1044l2 -2q3 0 23 13l-15 12zM758 797h14v16h-14v-16zM758 1110h14v18h-14v-18zM846 1196q0 -11 10 -18l10 12l2 2q0 5 -12 20q-10 -7 -10 -16z" />
<glyph unicode="Q" horiz-adv-x="1034" d="M49 610q0 31 10 54q-10 27 -10 55q0 30 10 53q-6 4 -6 66q0 96 6 106q0 33 1 78.5t1 58.5q6 196 55.5 315.5t157.5 176.5q5 1 22 6t41.5 12t51.5 13q98 24 109 24q57 0 120 -18q17 -4 41.5 -11t36 -9.5t24 -5t19.5 -1.5q128 -68 193 -221q43 -100 43 -274v-23 q-1 -14 -3.5 -74l-4.5 -108q-3 -49 -3 -110t-1 -71q-1 -18 -1 -35q0 -84 13 -143v2l-35 -219q-17 -110 -92 -192q-13 -10 -34 -29t-34 -29q-45 -39 -45 -59q0 -18 15 -33q11 -35 98 -59q79 -25 76 -51q0 -18 -16 -25.5t-54 -9.5q-58 0 -129 14q-80 14 -102 14q-86 0 -154 74 q-78 82 -162 105q-16 28 -53 22q-149 124 -162 215q-43 268 -43 346zM133 1063h23v10l-4 2q-4 0 -19 -12zM133 1128h17v17h-17v-17zM145 330h35q18 0 31 10q-10 10 -21 10q-2 0 -6.5 -2t-16.5 -7.5t-22 -10.5zM178 588h15v16h-15v-16zM199 1430l12 -11h4h6q14 0 21 11 q-6 12 -21 12q-16 0 -22 -12zM242 762l12 10h-12v-10zM254 438l14 -12h6q2 3 4.5 5.5t3.5 4t2.5 3l2 2t0.5 1.5l-2 7h-11q-13 0 -20 -11zM254 643l31 -33l12 11q-25 22 -33 22h-10zM264 891l10 -10v10h-10zM297 1053l10 -11v11h-10zM297 1268l10 12h-10v-12zM307 264l21 -20 v10q3 14 -11 22zM317 686q4 -2 11 -2h2q14 0 55 35q-13 10 -23 10q-27 0 -45 -43zM350 1268h17v16h-17v-16zM371 1010l14 -11l8 11l-8 10zM383 1120l2 -2v-2q6 0 21 12q7 -7 10 -42.5t10 -43.5q-6 -15 -6 -32q0 -10 5 -42t5 -42q0 -56 -45 -68l29 -20q-4 -15 4 -25 q8 -12 8 -25q0 -7 -12 -16q12 -35 12 -65q0 -34 -12 -64l12 -12v-10q0 -19 -12 -21q12 -10 12 -25q0 -5 -6 -24t-6 -25q0 -15 12 -24q-15 -22 -12 -47v-8q0 -43 45 -107l-56 -21q9 -22 33 -22q10 -1 44 10.5t42 11.5q11 11 21 11q5 0 20 -4t19 -4q13 0 16 8l-23 20 q17 14 23 62q3 49 33 57v12q0 19 -10 21l30 43q-7 0 -13.5 4.5t-15.5 14.5t-14 14l23 22l2 6q0 12 -25 37l23 21v4q0 -1 -1 0t-3 3.5t-4 5.5t-6.5 8.5t-8.5 10.5l23 23q-23 16 -23 35q0 8 11.5 35.5t11.5 35.5q0 19 -23 33q0 1 -1 4t-1 4v11q0 10 12 41t13 38q-13 6 -13 13 q0 4 6.5 13t6.5 13q0 10 -10 15q12 15 12 32q0 8 -7.5 35t-7.5 33q0 23 23 39l10 -10l13 10l-13 12l-20 -22q-22 18 -27 55q-6 40 -16 53l-43 43q-17 17 -41 17q-26 0 -53 -43t-48 -50l11 -10q2 -3 2 -6v-37q0 -23 -13 -33l-10 11q-10 -10 -10 -19zM393 158l4 -2q5 0 17 12 l-11 10zM403 1376l11 -10l22 20h-10q-13 3 -23 -10zM403 1473h17v16h-17v-16zM414 221l12 -10h25q18 0 18 10q-9 12 -27 12q-19 0 -28 -12zM414 1290l12 -22l10 12q-4 2 -7.5 5t-5 4t-3.5 1h-6zM436 59l10 -20l13 10q-15 12 -19 12zM459 115q33 -13 35 -13q15 0 18 13 l-43 20zM459 330v16h14v-16h-14zM502 244l10 -11l2 -2q5 0 18 13q-2 10 -16 10q-9 0 -14 -10zM532 82l13 -12h2q6 0 18 12l2 4q0 4 -12 16zM545 1354h30q20 0 23 12q-7 10 -18 10q-19 0 -35 -22zM555 158l20 -23l13 10l-23 23zM555 1548h16v17h-16v-17zM598 221l23 -20l4 -2 q5 0 15.5 10t10.5 12q-9 12 -26 12q-18 0 -27 -12zM608 1280l56 -45l10 12q-5 13 -33.5 21t-32.5 12zM621 350l30 -43l13 12q-7 3 -21 14.5t-22 16.5zM641 -41v-4q9 -2 25 -2q15 0 18 12q-7 10 -20 10q-23 0 -23 -16zM641 395l10 -12l13 12l-13 11zM651 92l13 -22l10 12 l-17 10h-6zM664 1323q12 -12 18 -12h2v4q0 5 -10 18zM674 1042h16v17h-16v-17zM684 438l16 -12h7v4q-5 9 -13 19zM707 362h18v17h-18v-17zM717 815l10 -10v10h-10zM727 82h16v16h-16v-16zM737 1161l13 -12v12h-13zM750 696l10 -10q0 -2 37 -2q19 0 28 12q-13 13 -39 13 q-23 0 -36 -13zM760 891h22v4q0 4 -12 16zM770 201l12 -13l11 13l-11 10zM770 578h16v16h-16v-16zM770 1366h16v16h-16v-16zM793 319l10 -12q12 12 12 17l-2 6h-2q-1 0 -3 -1.5t-6.5 -4.5t-8.5 -5zM793 535l10 -23l10 12q-15 11 -16 11h-4zM836 631l10 -10l10 10l-10 12z M846 934l10 -10v10h-10zM954 782h17v17h-17v-17z" />
<glyph unicode="R" horiz-adv-x="1118" d="M66 178l36 928q-12 6 -12 24q1 31 2 31l6 2q7 -4 15 -12q4 5 8.5 10t7 8t4.5 5.5t3 3.5t1 0q0 18 -14 18q-2 0 -15.5 -5t-21.5 -3l-2 391q43 59 162 59h10q28 0 100 -8q79 -9 103 -8h4q7 -1 17 -1q25 0 71 5q59 6 80 6h8q121 0 197.5 -28t119.5 -93q43 -69 80 -315 q5 -43 2 -55v-10q0 -83 -47 -205q-11 -25 -47 -56q-39 -33 -39 -61q-3 -20 49 -96q56 -82 56 -127q0 -16 -9 -43q19 -32 25 -78q2 -18 2 -40.5t-2 -49.5q-2 -29 -2 -64v-22q0 -36 18 -103q19 -82 19 -100q0 -34 -14 -59q-25 -22 -60 -25q-81 14 -104 14q-25 0 -49 -12 l-13 10q-10 -10 -24 -10q-9 0 -34.5 12t-29.5 13q-58 58 -61 264q2 10 2 40.5t2 51.5q2 32 2 51.5t-2 28.5v7q0 160 -135 206q-20 -10 -37 -10q-7 0 -30 3t-30 3q-17 0 -26 -6q44 -14 47 -58q0 -9 -8 -43t-8 -47q0 -31 14 -45q-23 -16 -23 -33q0 -8 13.5 -34.5t13.5 -34.5 q0 -20 -14 -31q12 -86 12 -129v-12l-2 -152q-25 -49 -90 -49q-16 0 -66.5 9t-62.5 9q-8 0 -38 -8.5t-38 -7.5h-2q-35 0 -59 30q-25 31 -27 74q0 29 12 56zM158 936l12 -10h4q7 4 19 10q-6 12 -17 12q-12 0 -18 -12zM180 340h19v18h-19v-18zM180 510l13 -12v12h-13zM180 578 l13 -13h32q17 0 23 13q-9 12 -33 12q-23 0 -35 -12zM203 780l12 -12h27q15 0 18 12q-10 13 -29 13q-18 0 -28 -13zM215 858l23 -22l10 12q-3 10 -19 10h-6h-8zM225 285l13 -11v11h-13zM238 217l10 -10v10h-10zM238 442h16v17h-16v-17zM238 1229h16v16h-16v-16zM260 678 l45 -33l10 10q-5 9 -28.5 14.5t-26.5 8.5zM270 903l23 -10v10h-23zM283 1016l10 -12h4q3 0 18 12q-3 12 -16 12t-16 -12zM293 723l12 12h-12v-12zM305 1274l10 12h-10v-12zM315 510l13 -12q0 6 14 14q8 8 8 14v6zM315 1151l13 -12h4q3 0 18 12v4q-4 9 -12 19zM328 1083 q5 8 33.5 11.5t33.5 11.5q-13 10 -24 10q-34 0 -43 -33zM350 317q5 -10 17 -10q4 0 20 11t19 12q-9 12 -33 12q-14 0 -19 -5t-4 -15v-5zM350 584q0 -14 10 -19l35 35h-35q-10 -5 -10 -16zM350 858l10 -10l23 22h-12q-18 0 -21 -12zM373 758q12 -4 20 -4q23 0 58 18 q51 29 57 31v4q0 2 -12 20q-40 -53 -123 -69zM383 1477l12 -11q1 -2 2 -2h29q18 0 25 13q-12 12 -33 12q-23 0 -35 -12zM406 948q0 -16 12 -22l10 10v12q3 16 -10 23q-12 -6 -12 -23zM406 1206h16v17h-16v-17zM418 578h16v16h-16v-16zM418 825l10 -12l12 12l-12 11z M440 1286q9 -64 13 -117q-2 -34 -2 -63t1 -50l1 -20q15 -87 69 -90q14 0 57.5 14.5t55.5 14.5q24 0 41 -17l12 13l-35 22q-2 2 -2 6v2q0 12 25 37l33 -34h6q4 0 16 12l-22 22h-4q-2 0 -19 -10q1 33 1 64q0 81 -9 147q-6 47 -44 80q-36 31 -78 31h-5q-77 0 -111 -64zM451 907 q0 -26 18 -26h4q12 15 12 18q0 16 -22 16l-12 -2v-6zM508 713l22 -23q21 8 68 45h-14h-9q-48 0 -67 -22zM518 870l12 -12q9 6 25 6q5 0 27 -3t28 -3q27 0 43 23q-3 12 -18 12h-27zM530 791l23 -23l10 12q-7 11 -18 11h-6h-9zM541 1409h16v16h-16v-16zM631 1432l12 -11v11 h-12zM666 825q2 -2 8 -2h2q8 0 26 13l19 12q-10 10 -21 10q-31 0 -34 -33zM688 555l10 -12h4q9 4 19 12q-3 12 -16 12q-14 0 -17 -12zM688 713h17v16h-17v-16zM709 678l22 -23v13q-12 12 -18 12zM731 870q9 -12 21 -12q5 0 24 11t23 12q-9 12 -29 12q-29 0 -39 -23z M743 1061l11 -12l12 12l-12 10zM766 768l10 -10l12 10l-12 12zM766 1174l4 -4q3 -5 6.5 -9.5t9 -8t9.5 -3.5l4 2l2 2q0 5 -6 13t-12 13t-7 5zM776 668l12 -13q13 16 13 19l-2 4l-2 2q-6 0 -21 -12zM788 1409l11 -23v23h-11zM866 1286h19v17h-19v-17z" />
<glyph unicode="S" horiz-adv-x="1071" d="M49 414q0 102 45 121q15 -3 31 -3q13 0 61.5 3.5t61.5 3.5q88 0 133 -45q3 -59 30.5 -103.5t86.5 -85.5q15 -12 30 -12q7 0 29.5 7t30.5 7q15 0 30 -12q24 18 21 53h10q13 0 33 23q-20 17 -20 37q0 7 5 31.5t5 31.5q0 34 -58.5 90.5t-181.5 147.5q1 4 2 9.5t1.5 8.5 t0.5 6q0 40 -65 49q-136 94 -209 199q-81 113 -81 236q0 15 1 30v16q0 186 135 289q61 44 139 62t189 18q173 0 281.5 -64.5t140.5 -193.5q2 -6 17 -53.5t15 -69.5q0 -94 -127 -94q-38 0 -96 12q-25 5 -92 23l-22 84l10 -10l22 24q-74 49 -174 76q-27 -9 -65 -57 q-28 9 -52 28q-37 29 -49 29q-14 0 -30 -25q5 -5 61 -32q43 -21 43 -43q0 -15 -6 -23q3 -52 70 -113q57 -55 94 -104l-11 -12l21 -21q4 11 18 11h25l229 -197q11 -5 29 -21q17 -22 33 -63q12 -35 45 -57q38 -90 38 -176q0 -15 -1 -31q8 -24 8 -49l2 2q-11 -126 -57 -201 q-73 -117 -152 -135q-19 -19 -55 -43q-46 -32 -193 -35q-1 0 -19.5 0.5t-22.5 1t-21 1.5t-23.5 2t-21 3t-24 4.5t-21.5 6t-23 8.5q-96 13 -168 65q-55 42 -115 146q-57 124 -57 178zM203 1145h16v16h-16v-16zM248 1354q3 -13 22 -13t29 13h-51zM281 305h16v17h-16v-17z M299 1092l14 10v10zM344 219h18v17h-18v-17zM387 154l12 -13l13 13l-13 10zM399 1014l13 -10v10h-13zM412 862l43 33h-11zM422 1069h16v16h-16v-16zM498 948h14v17h-14v-17zM563 1516h17v16h-17v-16zM586 164l20 -23l12 13q-8 10 -20 10h-4h-8zM596 862h16v17h-16v-17z M651 186l11 -12l10 12l-10 11zM672 676l10 -10h27q16 0 16 10q-6 12 -25 12t-28 -12zM705 371q7 -13 18 -13q27 0 27 2v11q-6 12 -25 12q-14 0 -20 -12zM717 469h16v16h-16v-16zM737 154h17v16h-17v-16zM737 731l13 -22v12zM836 600l12 -10zM868 371q6 -13 19 -13q26 0 26 2 v11q-29 0 -32 10z" />
<glyph unicode="T" horiz-adv-x="1044" d="M37 1427q1 6 2.5 33.5t3.5 46.5q8 49 8 80q0 26 31 35q47 12 47 14l668 -12q8 -1 47.5 6.5t50.5 7.5q59 -3 90 -22q20 -63 23 -119q-1 5 -2 -5q-2 -12 -11 -144q-24 -43 -73 -43q-9 0 -51 6t-56 4h-7q-40 0 -68 -30q-30 -33 -44 -103q13 -6 13 -23l-2 -12l-21 -23 q20 -26 23 -84v-7q0 -29 -13 -87q13 -41 13 -88q0 -2 -4.5 -27.5t-5.5 -37t1 -27.5l19 -674q-13 -13 -21.5 -32t-13 -31.5t-10.5 -14.5q-12 -8 -41 -8q-14 0 -33 2q-41 -8 -127 -8q-90 3 -133 43l-2 229q0 70 4 156q7 77 11 78q2 0 5 -6q-3 149 -9 289q-7 140 -9 201 q-1 34 -1 53q0 15 1 20q0 43 12 61q-12 27 -12 62q0 38 12 59q-35 53 -102 64q-11 -1 -18.5 -0.5t-42 2t-66.5 2.5l-27 4q-59 24 -59 102v8zM352 1303q5 0 23 -11.5t24 -11.5q10 0 19 12q-10 23 -35 23q-19 0 -31 -12zM362 1198q0 -13 13 -16l22 20q-15 12 -18 12 q-17 0 -17 -16zM375 1059l2 -2q5 0 20 12l-12 12zM408 670l10 -11l12 11l-12 10zM430 991h16v17h-16v-17zM430 1169l10 -10l4 -2q9 4 19 12q-3 13 -17 13q-13 0 -16 -13zM440 358q15 -12 19 -12l4 2v2q0 6 -10 19zM440 1335q12 -10 19 -10h4v4q0 2 -10 19zM453 715h16v16 h-16v-16zM496 1380q10 -32 30 -32q8 0 41.5 17t42.5 17h4q2 -2 4 -2q-15 15 -28 15q-8 0 -33.5 -14.5t-32.5 -14.5q-14 0 -28 14zM553 1448l10 -12l10 12l-10 10zM573 936l13 -23l10 13q-13 10 -16 10h-7zM573 1315l13 -12v12h-13zM586 1257l22 -10l-12 10h-10zM596 358 q3 -12 18 -12q27 0 27 2v10q-29 0 -33 11zM651 1358l13 -10q23 16 43 55zM764 1348q6 22 33 22q35 0 45 10q-13 13 -23 13q-15 0 -31 -19z" />
<glyph unicode="U" horiz-adv-x="1085" d="M59 1503q21 62 33 103q16 27 127 30q49 0 107 -12q10 10 22 10q5 0 26 -5t27 -5q33 -26 33 -61v-9q0 -6 -2 -8l-8 -10q10 -49 10 -77v-9q1 -8 1 -17q0 -28 -7 -73q-2 -22 -2.5 -51.5t-1.5 -36.5q-1 -10 -1 -19q0 -35 9 -67q-8 -24 -8 -58q0 -14 5 -59t5 -57 q0 -31 -10 -58q10 -17 10 -32q0 -4 -4 -27t-4 -31q0 -15 6 -30q-2 -9 -2 -25.5t2 -40.5q1 -9 1 -17q0 -30 -9 -49q10 -17 10 -32q0 -8 -5 -34t-5 -34q0 -15 8 -31q-8 -13 -8 -28q0 -5 5 -27t5 -29q0 -13 -10 -26q22 -64 31 -76q21 -41 57 -55l2 2q4 0 8 2q11 0 42.5 -18.5 t37.5 -18.5q22 0 31 33q-5 13 -35 10q3 4 33 11.5t35 21.5q-17 11 -17 30q0 8 9.5 38t9.5 38q0 25 -15 37q13 16 13 41q0 8 -7.5 40t-7.5 40q0 40 58 43q-38 6 -41 39q-9 57 -13 57q-1 0 -1.5 1t-0.5 5t-0.5 8.5t0 12t0.5 15.5v19.5v22.5q0 51 11 84q-13 35 -13 76l2 79v-1 q13 16 13 28q0 7 -7.5 31t-7.5 31q0 13 15 31q-15 6 -15 22l2 33l23 20l-23 23l11 285q68 36 150 36h13q100 -3 179 -22q4 -26 7.5 -74t4.5 -53q1 -10 -1.5 -40.5t-2.5 -57.5t6 -39l-4 -748q-6 -18 -6 -37q0 -7 3 -31.5t3 -31.5q0 -20 -10 -43l12 -8l-37 -201q0 -5 -14 -33 q-65 -115 -160 -156q-41 -38 -131 -51q-16 -1 -44.5 -3t-52 -4t-44.5 -5q-5 1 -123 16q-72 8 -123 27q-61 28 -100 76.5t-68 126.5q-22 94 -25 282q-3 154 -8 347q-6 193 -6 219v12q0 27 2 80q-1 8 -1 16q0 32 11 47q-13 41 -13 96q0 16 1 33q1 12 1 23q0 61 -24 102z M150 801l10 -10v10h-10zM180 1153h19v16h-19v-16zM195 692q22 -22 45 -22q8 0 18 10q-6 12 -29 12h-34zM195 889q12 -12 16 -12l2 2l2 2q0 8 -10 18zM225 504l13 -10l10 10l-10 12zM248 307h14v17h-14v-17zM268 614l13 -10q12 12 12 17v4l-4 2q-1 0 -21 -13zM268 1108h19v16 h-19v-16zM281 922l20 -11v11h-20zM301 471h10q15 12 15 18v5h-4q-21 0 -21 -19v-4zM326 231h16v17h-16v-17zM346 1350l43 -43l12 10zM358 154l11 -11l12 11l-12 10zM358 242h17v16h-17v-16zM369 866h12l33 33zM369 1020l12 -10v10h-12zM379 762q0 -10 10 -17l25 23 q-15 12 -21 12q-14 0 -14 -18zM389 494h19v16h-19v-16zM477 307q18 -12 19 -12l6 2v2q0 5 -13 18zM565 164l23 -21l10 11q-3 12 -16 12h-7zM633 197l8 -21l12 10q-13 13 -16 13zM686 373l12 -11h11q13 0 20 11q-6 12 -20 12q-17 0 -23 -12zM686 471h19v16h-19v-16zM686 1174 q18 -11 19 -11h4l2 4q0 3 -13 19zM698 725q15 -12 17 -12h6v12q0 17 -12 20zM709 154h16v16h-16v-16zM772 1360l14 -10h2q1 0 21 10q-6 12 -16 12q-15 0 -21 -12zM797 592l12 -10l8 16v6h-4q-1 0 -16 -12zM817 932l12 -10l13 10l-13 12zM829 539h17v16h-17v-16zM842 373 q6 -13 20 -13q33 0 33 2v11h-4q-36 0 -39 12zM852 471h14v16h-14v-16zM938 1130h18v17h-18v-17z" />
<glyph unicode="V" horiz-adv-x="1062" d="M39 1552q0 36 8 60q54 22 116 22h15q15 2 32 2q45 0 107 -12l54 -55v-19q0 -36 22 -49q-4 -16 -4 -22q0 -13 8.5 -44.5t8.5 -39.5q0 -21 -13 -37l23 -23l33 -288q15 -19 10 -56q0 -40 12 -55h-4q-9 -9 -29 -23q2 -1 10.5 -10t18 -16.5t14.5 -7.5q3 0 8 1l5 1 q-1 -7 3.5 -14.5t15 -17.5t13.5 -13q2 0 6 -1t5 -1h12q21 0 51 18q14 8 26 15.5t17 10.5t6 3q-9 24 -37 24q-18 0 -43 -14q43 88 52 237q9 172 30 240q14 117 21 154q18 88 76 112q14 -4 43 -4q53 0 120 10q87 -3 115 -61l-8 -10q-13 -60 -59 -313t-87 -443 q-34 -48 -47 -141q1 -16 1 -31q0 -74 -21 -115q-4 -7 -23.5 -13t-19.5 -13q0 -19 31 -19q-4 -8 -15 -65q-6 -41 -41 -35l-22 -21l22 -22l15 10l12 2l-47 -278q-6 -37 -60 -60q-27 -12 -86 -12q-8 -1 -17 -1q-30 0 -81 7q-19 3 -102 10l-29 25l-90 453q8 8 8 14q0 3 -12 18 t-12 19l-41 280q-2 3 -15 29q-20 65 -20 121v29q-8 23 -27 38l-84 449zM260 1247h16v17h-16v-17zM315 793l25 -23q10 17 10 18q0 17 -18 17q-11 0 -17 -12zM315 858h17v16h-17v-16zM360 670q26 -13 50 -13q30 0 49 13q-12 24 -53 24q-40 0 -46 -24zM360 1147h19v16h-19v-16z M371 870h45v11q-6 12 -23 12q-12 0 -18 -5q-5 -4 -5 -10q0 -2 1 -4v-4zM385 549l8 -23q13 16 13 19l-3 4h-18zM385 737q9 -12 14 -12h4q13 16 13 18v5h-13q-15 3 -18 -11zM393 958h17v17h-17v-17zM403 498q0 -10 13 -17h10q16 0 23 13l-11 11q-10 11 -16 11q-19 0 -19 -18z M426 293l12 -23l11 19v4h-23zM426 371h16v16h-16v-16zM459 604q15 -12 18 -12h4q13 16 13 18q0 17 -15 17q-20 0 -20 -19v-4zM471 780q7 -10 18 -10h17v10q-6 13 -19 13t-16 -13zM481 449q3 5 24 11t21 15v6q-10 13 -14 13q-31 0 -31 -37v-8zM506 205h14v16h-14v-16z M526 526l11 -12h4q6 0 18 12q-3 13 -16 13q-14 0 -17 -13zM537 692h4q5 0 18 10l-8 13zM551 137h14v17h-14v-17zM557 748q0 -25 25 -25q9 0 26.5 18t18.5 19q-7 10 -25 10h-31q-14 -7 -14 -22zM559 614l12 -11q12 -11 17 -11h6v22q-3 13 -19 13q-9 0 -16 -13zM571 471l2 -2 q6 0 21 12l-12 13zM582 549l22 -23v11q-12 12 -18 12h-4zM614 588q0 -14 13 -17l22 21q-12 12 -18 12q-17 0 -17 -16zM649 948l21 -12v12h-21zM670 1147l12 -10l2 -2q6 0 21 12q-6 12 -19 12q-7 0 -16 -12zM682 836l10 -11l13 11l-13 12zM692 481h17v17h-17v-17zM715 936h16 v16h-16v-16zM737 571h17v17h-17v-17zM737 1137l25 -23l8 10q-3 13 -18 13h-7h-8zM748 1014l14 -10l8 10l-8 10zM762 858h14v16h-14v-16zM805 1303q7 -13 18 -13h15v13q-5 -2 -23 10zM815 1059l10 10h-10v-10zM815 1202h16v17h-16v-17z" />
<glyph unicode="W" horiz-adv-x="1644" d="M49 1575q0 28 14 39q47 21 130 24h14q43 0 121 -14l61 -70q0 -25 1.5 -51.5t5 -62t6.5 -63t10 -76.5l11 -77t13.5 -92t14.5 -96q-23 -10 -23 -20q0 -2 19 -25.5t16 -32.5q16 -32 16 -51q3 -34 -61 -71q10 -20 65 -23q101 82 101 168v10q4 -2 14 -2q13 0 51 35l2 6 q0 4 -10 17q-4 -11 -20 -11l-19 2l47 467q11 109 53 119q80 12 138 12h16q63 -3 96 -14q44 -47 44 -173q0 -22 -1 -46q24 -30 27 -98q0 -18 -4 -58q22 -49 22 -63v-6q0 -7 -2 -9l-10 -12q-6 12 -24 12h-31l-23 -22q11 -19 60 -25q43 -6 43 -35q0 -10 -4 -18q6 -40 -21 -55 q12 -14 39 -41q4 -12 4 -55q0 -45 37 -48q6 -14 16 -14q5 0 21.5 12.5t21.5 12.5q4 0 15 -11q12 2 12 13q0 2 -5 13.5t-3 18.5q-1 9 -1 18q0 66 32 159l-9 14l66 485q33 45 119 45q32 0 77 -2q20 -1 36 -1q27 0 42 3q45 -26 45 -75q0 -23 -12 -72q-10 -55 -10 -76 q-14 -33 -23 -100q-9 -51 -12 -107q-5 -8 -13.5 -26.5t-11.5 -24.5l-84 -518q-13 -17 -13 -39q0 -16 7 -35l-69 -368q-11 -17 -11 -95q3 -100 -154 -100h-9q-2 -1 -8 -1q-28 0 -152 15l-29 33l-92 590q-14 74 -80 108q-73 -56 -90 -231q-9 12 -16 12l-6 -2l-23 -26l2 -6 q41 -3 41 -27q1 -10 -8.5 -44.5t-9.5 -45.5q0 -4 -13 -17l11 -10l-46 -301q-44 -47 -123 -47h-10h-26q-74 0 -140 14q-29 6 -55 78q2 2 2 8v11q0 26 -8 57q-15 43 -12 57l-47 299q-2 11 -15 51q-10 33 -10 52v10q0 2 1 5t1 5q4 -2 12 -2q16 0 54 35q-9 12 -23 12 q-5 0 -23.5 -6t-23.5 -6l-10 10q-15 135 -109 623v10q0 36 -16 88q-17 50 -21 90q0 15 4 35q-12 15 -12 39zM106 1425q12 -12 19 -12h4v4q0 7 -12 19zM283 836q7 -11 20 -11h14l13 11q12 12 12 18l-2 4q-2 0 -4.5 1t-3.5 1h-4q-7 0 -24.5 -11.5t-20.5 -12.5zM317 436l11 -10 v10h-11zM328 281l22 -11v11h-22zM350 1147h17v16h-17v-16zM360 936l25 -23l10 13q-5 10 -18 10h-6h-11zM373 793q2 0 4.5 -1t3.5 -1h2q7 0 35 22l-12 12zM395 514l11 -10l12 10l-12 10zM395 981l23 -23l10 11l-22 22zM406 625l12 -11h4q6 5 16 11q-3 12 -14 12 q-15 0 -18 -12zM451 559l12 -12l10 12l-10 10zM461 725q0 -17 12 -23l11 12q12 13 12 19l-2 2q-13 13 -17 13q-16 0 -16 -23zM463 625q7 -11 18 -11h13q14 6 14 21v12q-2 0 -4.5 1t-3.5 1h-4q-9 0 -33 -24zM494 537h18v16h-18v-16zM516 436h23v13h-4q-7 -5 -19 -13zM516 758 l12 12h-12v-12zM528 692h19v17h-19v-17zM539 510q4 -8 12 -18q45 22 92 22h6q-34 12 -53 12q-22 0 -57 -12v-4zM539 582l12 -13q3 18 29 21t26 16l2 8zM539 803l16 -12l6 2v2q0 5 -10 18zM561 358h17v17h-17v-17zM571 670l13 -11l2 -2q4 0 20 13q-6 12 -16 12q-13 0 -19 -12 zM596 403l14 -12h6v4q-2 7 -10 19zM596 836h20q11 22 39 22q51 0 64 23q-14 22 -27 22q-6 0 -27 -19.5t-30 -19.5q-10 0 -19 6l-10 -12q-10 -11 -10 -16v-6zM606 784q0 -16 17 -16l26 2q2 3 4.5 5.5t3.5 4t2.5 3l2 2t0.5 1.5v7q-9 12 -33 12q-23 0 -23 -21zM641 1137l8 -13 h4q1 0 21 13v2q0 6 -12 18zM649 670q26 -13 51 -13q27 0 50 13q-15 24 -54 24q-38 0 -47 -24zM674 543q0 -12 10 -19l10 13v2q0 7 -10 20q-10 -7 -10 -16zM674 735q0 -14 16 -14q18 0 29 14l-25 23q-20 -9 -20 -23zM684 958l21 -22v10q-12 12 -17 12h-4zM684 1358l43 -10v10 h-43zM719 1102q11 -11 43 -21q10 3 10 21v12h-33q-14 0 -20 -12zM727 926l23 -35h24q32 0 43 22q-13 13 -41 13h-49zM762 780q5 -10 18 -10h8h7v2q0 10 -9 16l-14 15zM772 981l10 -12h4q3 0 21 12q-3 10 -19 10q-13 0 -16 -10zM795 1147h16v16h-16v-16zM795 1358h16v16h-16 v-16zM807 1069h14v16h-14v-16zM827 848q9 -6 25 -6q11 0 42.5 20.5t41.5 18.5h2q-11 16 -33 16q-40 0 -78 -49zM827 1348l56 -45l14 10zM852 1008q0 -12 8 -17l23 23q-15 12 -17 12q-14 0 -14 -18zM860 748q0 -25 25 -25q33 0 45 35q-9 12 -27 12h-31q-12 -6 -12 -22z M860 1059l12 -12h2q5 0 23 12v2q0 6 -14 20zM872 1157h19v19h-19v-19zM915 582q16 -13 21 -13h2l12 17q0 16 -12 16q-23 0 -23 -18v-2zM930 958l31 -32q8 4 16 4q5 0 21.5 -8.5t21.5 -8.5q8 0 18 23q-2 1 -8 2.5t-16 5t-21 6.5q-33 11 -47 11q-7 0 -16 -3zM950 991l11 -10 l4 -2q6 0 18 12q-7 13 -16 13q-14 0 -17 -13zM961 524l12 -20l10 10q-12 12 -16 12zM983 848l23 -23l12 11q-3 12 -21 12h-6h-8zM991 481q0 -24 29 -24h4q2 2 4 2v10q-25 25 -29 25l-6 -2q0 -1 -1 -4.5t-1 -4.5v-2zM993 559q9 -12 27 -12h29l5 3l8 8t7.5 9t3.5 8l-2 7 q-2 2 -6 2h-6q-9 0 -35 -11q-10 -5 -20 -9zM1006 702q10 -10 18 -10q7 0 25 11t22 12v10q3 17 -8 23q0 -16 -29 -31zM1006 793l12 -13h4q3 0 16 13q-2 10 -14 10q-16 0 -18 -10zM1018 358l10 -10l6 -2h2q10 0 35 25q-5 10 -12 10q-6 0 -22 -11t-19 -12zM1038 858l25 -22 q10 17 10 18q0 16 -18 16q-14 0 -17 -12zM1063 303l14 -12l6 2q11 11 11 16v4l-13 2q-12 0 -18 -12zM1063 498q0 -19 18 -19q7 0 35 25q-2 10 -18 10h-27q-8 -3 -8 -16zM1108 670q19 -13 47 -13q66 0 66 39q0 6 -13.5 28.5t-13.5 23.5q-7 -23 -35 -23q-33 0 -43 -10l35 -23z M1116 371l10 -23l13 10q-13 13 -19 13h-4zM1126 180h21v19h-21v-19zM1126 547l35 -23l-22 23h-13zM1161 803l10 10h-10v-10zM1171 358q7 -10 21 -10h12v10q-3 13 -14 13q-16 0 -19 -13zM1171 459l11 -10v10h-11zM1182 692v17h18v-17h-18zM1204 602l13 -10v10h-13zM1217 813 h18v18h-18v-18zM1249 981h17v16h-17v-16zM1260 647l14 12h-14v-12zM1282 582q16 -13 18 -13h5l14 17v6h-14q-15 0 -23 -10zM1282 1368h16v18h-16v-18zM1319 735h14v19h-14v-19zM1319 926l8 -13l10 13l-10 10zM1337 358h21v17h-21v-17zM1438 1124h16v17h-16v-17z" />
<glyph unicode="X" horiz-adv-x="1083" d="M61 74q0 25 27 98q8 20 37 96q11 25 37 58l94 274q6 29 23 80q6 11 23 42t26 50q25 61 28 102q-8 62 -34 95q-5 7 -16 30t-34 73t-45 95q-6 19 -63 172q-8 22 -94 230q9 51 28 59q4 2 23 2q26 0 49 2q22 -2 35.5 -1.5t48 4t39.5 3.5h7q83 0 118 -67q21 -63 39 -146 q19 -91 75 -135l93 90l-13 13q4 16 16.5 63.5t18.5 75.5q35 83 90 98l264 -6q8 -27 5 -45q1 -5 1 -10q0 -37 -30 -103q-41 -90 -41 -106q-26 -31 -55 -119q-25 -78 -60 -119q-4 -57 -47 -129q-42 -76 -45 -123q0 -7 16 -57q9 -34 23 -74q13 -25 49 -104q24 -56 31 -103 q120 -300 176 -495v2q-51 -39 -141 -39q-4 -1 -12 -1q-35 0 -148 17q-79 60 -82 197q0 24 6 45q-32 21 -53 80q-24 58 -59 76l-43 -41l-91 -303q-46 -68 -177 -68h-11h-10q-38 0 -123 12q-19 28 -19 60zM291 1112l10 -10v10h-10zM301 291h39q20 0 29 12q-13 10 -23 10 q-6 0 -15 -4.5t-18.5 -10.5t-11.5 -7zM324 547h20v10l-2 2q-3 0 -18 -12zM344 1423l14 -10l6 -2h19q13 0 16 12q-10 13 -24 13q-21 0 -31 -13zM389 537h19v16h-19v-16zM389 735l10 -10l7 -2q3 0 18 12v4q-4 9 -10 19zM399 625q12 -41 50 -41q12 0 20 8zM412 408 q0 -11 12 -17h8q22 0 25 12l-33 21q-12 -3 -12 -16zM414 868l14 -12l6 2v4q-4 9 -10 19zM414 1247h14v17h-14v-17zM446 780l11 -12v12h-11zM446 1268q4 -2 7.5 -5t5.5 -4.5t4 -1.5h6v5q0 3 -12 18zM457 1036l20 -12l-8 12h-12zM469 670l23 -23q2 1 11 5t12.5 5.5t10.5 5.5 t10.5 7t6.5 8.5t4 11.5q-2 0 -4.5 1t-3.5 1h-7q-11 0 -63 -22zM477 836l15 -11l10 11l-10 10zM477 969h19v16h-19v-16zM489 741q0 -13 13 -16l10 10v4q0 6 -10 19q-13 -3 -13 -17zM502 1257l10 -22l10 12l-6 4t-4 3l-2 2t-2 1h-6zM535 592l20 -23v11l-14 12h-6zM535 836 q10 -13 22 -13q33 0 33 2q10 3 10 21v12q-1 0 -4 1t-4 1h-2q-7 0 -19 -5.5t-23 -11.5t-13 -7zM535 979h10q16 0 22 12q-3 10 -12 10q-20 0 -20 -18v-4zM535 1112l12 -10h2q1 0 18 10q-6 12 -16 12t-16 -12zM555 502h25q12 15 12 18l-2 4l-6 2q-29 0 -29 -18v-6zM555 1190 l20 -10h5q12 15 12 16q0 16 -14 16q-23 0 -23 -18v-4zM569 424q0 -6 6 -6q4 0 17.5 4t17.5 4q19 0 25 -12q10 17 10 18v4q-53 0 -65 10q-11 -18 -11 -22zM580 1280l10 -23l10 11l-14 12h-6zM590 1014h16v16h-16v-16zM590 1069h16v16h-16v-16zM600 1135l10 -11l15 17v6h-4 q-6 0 -21 -12zM610 936l25 -23l10 11q-6 12 -18 12h-4h-13zM635 514l10 -12h2q9 0 21 12q-3 10 -19 10q-7 0 -14 -10zM635 791l10 12v10zM645 979q17 -10 19 -10h4l2 4q0 3 -15 18zM668 625h16v16h-16v-16zM688 846l25 -10v10h-25zM688 1014l14 -13l11 13l-11 10zM725 1124 l8 -12v12h-8zM733 635h19v16h-19v-16zM733 1358h19v16h-19v-16zM821 1247h19v17h-19v-17z" />
<glyph unicode="Y" horiz-adv-x="1024" d="M39 1581q-4 7 -4 13q0 15 24 24l43 18q12 -4 43 -4q15 0 61.5 3t59.5 3q99 -3 125 -69l-2 -10q9 -60 23 -134q25 -75 25 -117q0 -9 -1 -16l78 -100l55 45q9 -7 16 -12.5t9.5 -8t1.5 -2.5h6l23 23q-3 3 -10 11t-11 11.5t-11 7.5t-13 5l77 317q87 47 182 47h11 q83 -5 131 -12q4 -28 4 -49h-2q0 -67 -27 -139q-21 -45 -49 -131l-127 -379q-8 -41 -12 -52q-5 -15 -17.5 -43.5t-17.5 -44.5q-20 -58 -20 -94h-8q5 0 -16 -17q-3 -2 -7 -5l33 -19l-2 -577q-36 -74 -142 -74l-111 9h-1h-1h-1h-1h-1l-1 1h-1h-1h-1h-1h-1h-1h-1h-1h-1h-1h-1 h-1h-1l-1 1h-1h-1h-1h-1h-1h-1h-1h-1h-1h-1h-1h-1h-1l-1 1h-1h-1h-1h-1h-1h-1h-1h-1h-1h-1h-1h-1h-1l-1 1h-1h-1h-1h-1h-1h-1h-1h-1h-1h-1h-1h-1h-1h-1l-1 1h-1h-1h-1h-1h-1h-1q-24 3 -44.5 24t-20.5 44q0 7 6 28.5t6 28.5q0 5 -2.5 19t0.5 14l2 520q-20 42 -37 105 q-24 100 -22 102q-21 36 -37 102q-27 50 -55.5 132.5t-71 217t-76.5 230.5zM135 1425q15 -12 19 -12h4l2 4q-5 9 -13 19zM326 1114h16v16h-16v-16zM338 838l8 -13h4q7 0 19.5 11.5t13.5 11.5q-5 8 -14 8q-1 -1 -4 -2.5t-6.5 -3.5t-9.5 -5.5t-11 -6.5zM346 1198q0 -13 12 -16 l11 10l2 4q0 2 -13 18q-12 -6 -12 -16zM369 1380h16v17h-16v-17zM383 283l8 -13v13h-8zM391 1147l10 -10v10h-10zM401 936l13 -21l12 11l-18 12zM426 815h14v16h-14v-16zM426 981l20 -23q13 16 13 19q0 16 -17 16q-13 0 -16 -12zM459 838q13 -13 18 -13q6 0 24 11.5t23 11.5 q-12 12 -30 12q-24 0 -35 -22zM469 1014l10 -10h4q2 0 19 10q-3 12 -17 12q-13 0 -16 -12zM492 1114q6 0 24 -11t23 -11q12 0 18 12q-15 15 -55 33zM502 715q12 12 12 16v6h-12v-22zM514 637h16v16h-16v-16zM580 1137l14 -11l8 17v4l-4 2zM594 1026q25 -25 33 -25q4 0 10 3 l10 16v6h-4q-39 0 -41 10zM602 1315l16 -12h7v4q0 2 -13 18zM657 793l13 -11v11h-13zM670 1137l12 -11l20 21l-12 2q-14 0 -20 -12zM725 881h16v18h-16v-18zM735 1358h17v16h-17v-16z" />
<glyph unicode="Z" horiz-adv-x="1007" d="M63 70q10 42 13 141q0 78 18 137q0 50 43 129q43 73 60 125q76 82 88 193q44 37 73 129q39 106 70 135q1 6 35 82q20 47 20 84l25 22l-43 62l-283 6q-9 -12 -16 -12q-6 0 -24 10t-23 10q-37 40 -37 127v14q0 40 12 127l45 37l598 -4q10 0 50 7q31 5 46 5h7h7q56 0 83 -45 q-4 -8 -4 -14q0 -7 6 -27t6 -24q0 -15 -8 -23v-86q-3 -65 -12 -92q0 -1 1 -4t1 -4v-6q0 -15 -28 -51t-28 -52q0 -12 6 -24q0 -4 -92 -172q-49 -90 -73 -185q-66 -106 -117 -225q-64 -146 -117 -199q32 -6 55 -41q27 -36 60 -36l284 20q50 -20 68 -65q-12 -24 -12 -58 q0 -19 6 -71.5t6 -59.5l2 -2q-3 -90 -113 -90q-35 0 -100 12q-82 15 -96 15h-2q-16 0 -117 -15q-18 0 -92 11l-256 -19q-37 10 -64 19q-31 17 -37 47zM227 315h19v17h-19v-17zM227 471l13 -12v12h-13zM240 537l12 -11h6q20 0 27 11q-6 12 -25 12q-14 0 -20 -12zM252 82l8 10 h-8v-10zM272 170l13 -10l4 -2q4 0 16 12q-3 12 -14 12q-13 0 -19 -12zM272 248h19v16h-19v-16zM285 416h14v16h-14v-16zM340 403l35 -22v12q-10 10 -23 10h-4h-8zM350 471l12 -12q13 16 13 18v4h-4q-1 0 -21 -10zM375 293q9 -12 35 -12h41v22q-21 14 -45 14q-31 0 -31 -24z M385 537h23q12 15 12 18l-2 4h-4q-8 0 -17 -8.5t-12 -13.5zM418 1425l10 -12h33q16 0 22 12q-13 13 -32 13q-20 0 -33 -13zM463 537h14v16h-14v-16zM463 737l8 -12l12 12l-12 11zM483 205h19v16h-19v-16zM483 610q-3 -18 27 -18h6q2 8 -6.5 13.5t-26.5 8.5v-4zM516 1270 q5 -3 9.5 -6.5t6.5 -5t3 -1.5l6 3v2q0 6 -15 18zM526 1393l15 10h-15v-10zM541 1036h14v17h-14v-17zM551 215h14v16h-14v-16zM551 670q7 -11 18 -11h17l10 17v6h-27q-12 0 -18 -12zM571 1260l15 -23l10 10q-5 3 -8.5 6.5l-5 5t-2.5 1.5h-9zM571 1358h19v16h-19v-16z M618 1114h17v16h-17v-16zM629 838l12 -13q8 13 8 17v6h-4q-6 -2 -16 -10zM639 1198q0 -14 10 -16l13 10l2 4l-15 18q-10 -5 -10 -16zM641 1370q0 -8 10 -8q31 0 31 18l-23 2h-2q-16 0 -16 -12zM641 1470l8 -12l13 12l-13 11zM649 281l33 -33h4q3 0 21 12v2q3 23 -29 23 q-17 0 -29 -4zM649 1280l13 -20l12 10q-15 12 -19 12zM682 1147l12 -10v10h-12z" />
<glyph unicode="[" horiz-adv-x="786" d="M221 1604q-1 18 1 30t3 19.5t10 13.5t13 8.5t22 9.5t27 11q24 4 90 -6l25 -2h-1q-7 7 11 12q3 -2 52 -1t67 -20q12 -12 17 -75t-9 -88q-5 -7 -85 -4q-30 0 -30 -3q-7 -94 -10.5 -198.5t-6 -139.5t-9.5 -26q25 -30 43 -843q1 -35 1.5 -54.5t1 -50.5t1.5 -58q-4 -9 16 -16 q12 -5 96 -19q29 -5 28 -9q0 -2 -3 -3q-14 -3 -9.5 -88.5t-9.5 -85.5l-258 -10h-9t-4 1t-3 2t-8 4t-19 7q-5 8 -12.5 17t-12.5 19t-9 28q-1 8 -6 34.5t-5 37.5t2 40q9 58 9 193q0 1 -9 129q-2 26 -3 69t-3 58q0 41 6 127q7 99 17 119q-5 122 -7 247.5t-1 199.5t0 159 q0 41 -15 157z" />
<glyph unicode="\" horiz-adv-x="786" d="M63 1526q5 26 10 38.5t19 28.5q16 10 47 19l39 12q6 4 15 2t32 -2q7 -7 17 -13t18 -13.5t16 -22.5q3 -6 15 -29.5t18.5 -41.5t9.5 -36q4 -37 19 -88q4 -13 45 -118q11 -28 24.5 -68.5t18.5 -52.5q23 -79 33 -123q24 -91 20 -119q41 -116 71.5 -208.5t59.5 -185.5t39 -124 q6 -20 34 -83l28 -62l16 -46q6 -17 8 -29t2.5 -19.5t-5.5 -15.5t-10 -12t-18 -15.5t-22 -18.5q-26 -11 -88 -21h-39q-27 9 -33 29q-2 7 -4 32t-4 32q-3 14 -20 24q-71 297 -72 327q1 14 6 11q-30 22 -299 818q-43 126 -66 194z" />
<glyph unicode="]" horiz-adv-x="786" d="M220 1510q0 2 3 3q14 3 9.5 89t9.5 86l258 10q8 0 10.5 -0.5t3 -1.5t8 -4.5t21.5 -8.5q5 -9 13 -17.5t13 -18t9 -27.5q1 -6 6 -35t4.5 -38t-2.5 -40q-8 -52 -8 -90q0 -76 8 -190q2 -26 3 -69t3 -58q0 -42 -6 -127q-7 -99 -17 -119q5 -122 7 -221t1.5 -192t0.5 -132 q0 -26 5.5 -132t8.5 -128l2 -47q1 -18 -1 -30t-3 -19.5t-10 -13.5t-13 -8.5t-22 -9.5t-27 -11q-24 -4 -90 6l-25 2h1q6 -7 -11 -12q-3 2 -52 0.5t-67 19.5q-12 12 -17 75.5t9 88.5q5 7 85 3q30 0 30 3q7 94 11 209t6.5 160.5t9.5 36.5q-19 23 -27 201t-21 763q4 9 -16 16 q-18 7 -73 16q-51 7 -51 12z" />
<glyph unicode="^" horiz-adv-x="786" d="M39 1194q15 16 18 23q3 6 -2 14q80 125 90 132q4 3 5 1q-7 13 118 287q11 26 18 40.5t17.5 39t20.5 45.5q-2 0 -2 4q3 12 12 18l4 8q18 13 41 15q17 0 45 -4q2 0 29 -2q3 -2 11 -7t11 -8l8 -4q0 -1 1 -2t1 -2q2 -4 9 -13.5t11 -17.5t5 -16q8 -30 12 -39q3 -5 27 -51 q5 -10 15 -25.5t17 -27.5t9 -17q8 -17 20 -53q14 -45 13 -51q29 -61 61.5 -124.5t44.5 -90.5q3 -7 19.5 -33t19.5 -33l10 -18q2 -10 3.5 -14.5t-5.5 -9.5t-12 -7l-17.5 -7t-21.5 -9q-16 -5 -59 -7q-19 0 -21 3q0 1 -6 -1q-13 3 -21 15q-1 2 -1.5 12.5t-2.5 13.5q-4 8 -14 13 q-13 41 -53 135q-6 14 -4 15l2 -1q-19 10 -133 252q0 -1 -1 -4t-1 -4q-26 -44 -29 -49q-24 -39 -37 -45q-20 -51 -39.5 -91.5t-39 -76.5t-27.5 -51q-11 -25 -23 -68l-4 -22q-2 -8 -5 -12.5t-5.5 -7.5t-10 -4t-11 -1.5t-16.5 0t-20 0.5q-52 6 -75 14q-18 7 -18 9q0 1 -1 2h-4 q-9 9 -6 20z" />
<glyph unicode="_" horiz-adv-x="694" d="M-10 90q0 10 2 12l35 25q-2 -2 -9 -2h-6q-18 0 -18 18l2 -23l2 -22q0 12 -6 21q8 8 8 20q0 3 -2 15t-2 16q0 11 12 23q98 12 308.5 13t373.5 -11l23 -58l-8 -18q-4 -14 8 -17q0 2 0 -1q0 -1 1 -4l1 -8v3v8q0 16 -5 3q-21 -57 -23 -62q-12 -24 -25 -29q-139 6 -410 2 q-152 0 -244 15q0 8 -9 31t-9 30z" />
<glyph unicode="`" horiz-adv-x="569" d="M152 1815q-16 26 0 59.5t47 52.5q15 10 24 11.5t13.5 -2t15 -8.5t24.5 -7l136 -248l-2 -2q2 -8 5 -17.5t3.5 -13.5t1 -9t-2 -9t-7 -9.5t-13.5 -13.5q-24 -12 -69 -12q-49 3 -58 33z" />
<glyph unicode="a" horiz-adv-x="1001" d="M39 61q15 29 18 50l80 409q4 20 4 78q24 85 74 360l64 365q16 88 24 104q21 46 84 46q8 -1 54.5 -6t60.5 -5q35 0 57 11l68 2h2q42 0 61 -25l29 -66q0 -14 6.5 -68t7.5 -63q0 -13 -4 -41q28 -31 37 -100q4 -34 16 -106l86 -504q31 -42 31 -84v-6l-10 -11l16 -18 q1 -28 31 -158q21 -95 25 -162l-3 -22q-23 -39 -104 -39h-35q-15 18 -37 18q-9 0 -41 -10q-29 -10 -41 -10h-2q-47 0 -67 86q-24 88 -33 115q-38 12 -82 12q-101 -3 -129 -55q-11 -50 -29 -103q-15 -55 -96 -55q-12 0 -52 2t-52 2q-4 0 -20 -1t-21 -1q-49 0 -78 59zM199 322 q15 -11 16 -11h2l2 4q0 4 -10 17zM229 872h15v15h-15v-15zM268 262l21 -20l10 12q-8 8 -20 8h-11zM307 453l17 -13l4 2v4q0 1 -1.5 3.5t-3.5 6.5t-4 7zM319 532h15v15h-15v-15zM328 633l20 -21l10 11l-20 18zM338 332h16v14h-16v-14zM348 512q3 -10 17 -10h24q8 5 8 20v10 h-10q-25 3 -39 -20zM348 702l17 -12l4 2q12 12 12 15l-2 6l-12 2q-13 0 -19 -13zM348 1042h14v17h-14v-17zM369 332l28 -31l23 21q-8 10 -25 10h-26zM369 1112l10 -10h12q12 0 19 10q-6 12 -21 12q-14 0 -20 -12zM369 1219q-1 -2 -1 -4q0 -6 5 -10q6 -5 18 -5l6 2v10 q-3 13 -16 13l-12 -2v-4zM379 221q10 -10 16 -10l2 2q13 13 13 14v4h-13q-15 0 -18 -10zM379 967q0 -12 10 -15l8 11v4q-2 6 -8 16q-10 -3 -10 -16zM387 649q0 -9 19.5 -16.5t21.5 -9.5q-13 -21 -10 -39q0 -12 5 -43t5 -41q0 -35 -39 -47l8 -11q21 21 68 21h74q10 -3 10 -21 v11q2 1 4.5 4t8 8.5t13.5 11.5q17 14 17 31q0 3 -2 7.5t-4 4.5l-19 252l21 21l-23 -2q-18 52 -18 100q0 16 2 31q-16 25 -39 22l-12 -2q-30 -22 -30 -56q0 -7 1 -14q-29 -27 -29 -105v-15q0 -86 -51 -101zM410 1012q4 13 29.5 18.5t29.5 11.5h-8q-5 0 -17 -19t-20 -19 q-9 0 -14 8zM420 270l8 13v10zM420 1163l18 -20q7 10 47 10q22 0 25 21h-1h-1h-1h-1h-1h-1h-1h-1h-1h-1h-1h-1h-1h-1h-1h-1h-1h-1h-1h-1h-1h-1h-1h-1h-1h-1h-1h-1h-1h-1h-1h-1h-1h-1h-1h-1h-1h-1h-1h-1h-1h-10q-24 0 -39 -11zM428 356q0 -11 10 -14q9 6 21 6q19 0 35 -22 q23 -23 28 -23q8 0 17 19l-9 -3q-17 0 -45 25q-32 29 -47 29q-10 -7 -10 -17zM428 1274l10 -10l21 18h-8h-5q-13 0 -18 -8zM449 1364l20 -10v10h-20zM479 1102l19 -21h4q3 0 16 13q-18 18 -29 18q-7 0 -10 -10zM498 1012l20 -29l10 10zM498 1253q15 -12 18 -12h2l2 4 q0 2 -10 19zM510 401l8 11h-8v-11zM549 1073l8 -8q12 9 12 14l-2 2l-4 2q-6 -4 -14 -10zM580 360l8 -8q20 8 26 8q9 0 34.5 -8.5t29.5 -9.5v10q-13 23 -45 23q-33 0 -53 -15zM588 231l10 11h-10v-11zM588 913l10 -10v10h-10zM598 713h12q12 0 19 10q-3 8 -13 8 q-18 0 -18 -16v-2zM608 674q6 -12 23 -12h8v12l-2 -4q-4 0 -16 12zM621 1032l8 -8q10 10 10 14v4h-4q-4 0 -14 -10zM629 453q2 -7 7 -12.5t13.5 -10t14.5 -7t17.5 -6t16.5 -5.5q-2 5 -4.5 9t-7.5 7.5t-9 6t-11.5 5.5t-11 4.5t-13 4.5t-12.5 4zM629 512q7 -1 31.5 -10.5 t31.5 -9.5q14 0 27 10q-6 1 -32 10.5t-32 9.5t-26 -10zM629 862h14v15h-14v-15zM639 602l10 -10l8 10l-8 10zM719 262l20 -20q11 15 11 16q0 14 -17 14q-11 0 -14 -10zM768 602l12 -10l8 10l-8 10z" />
<glyph unicode="b" horiz-adv-x="985" d="M68 1374q0 11 9.5 42t10.5 38l41 23l391 -13l12 -10q16 8 37 8l16 -3q43 -7 79 -13q130 -23 192 -125q36 -63 39 -229v-11q0 -185 -100 -282q-1 -2 -7 -19q0 -13 24.5 -28.5t35.5 -18.5q73 -122 82 -325v-2q0 -165 -45 -254q-48 -91 -201 -132q-4 7 -14 7q-4 0 -10 -2 t-14 -5t-13 -4l-324 2q-16 -8 -116 -8h-15q-13 -10 -24 -10q-8 0 -33.5 10t-32.5 10q-16 16 -16 35q0 5 4 23t4 24q0 3 -1 8q0 6 1 6t4 -3l-6 1230q-10 17 -10 31zM178 909l12 -10v10h-12zM211 807l8 -8h33q18 0 29 8q-15 12 -35 12q-23 0 -35 -12zM211 1241h14v16h-14v-16z M219 981h12q14 0 19 8q-3 10 -12 10q-19 0 -19 -16v-2zM229 342l11 -8l10 8l-10 12zM240 637l10 -10h14q10 0 17 10l-21 18zM250 111h14v16h-14v-16zM250 444l14 -12l6 2q2 5 5 9l4.5 6t1.5 4v2h-13q-15 0 -18 -11zM250 526h14v15h-14v-15zM270 1200l11 -8h12q13 0 16 8 q-3 12 -20 12q-16 0 -19 -12zM281 1020q24 -21 30 -21h2q4 0 6 2q13 10 13 15q0 16 -27 16q-18 0 -24 -12zM289 748l10 -11h4q1 0 16 11q-3 10 -14 10t-16 -10zM299 272l10 -8l6 -2q7 4 15 10q-3 11 -15 11q-13 0 -16 -11zM309 606h25q13 0 16 10q-4 11 -12 11t-29 -21z M309 909l10 -20l11 10l-17 12zM330 170l12 -18v10zM330 383l12 -8q23 26 41 26q20 0 29 -18q0 -17 -23 -33q-24 -18 -29 -28q32 -3 58 -39q28 -42 45 -52h6q49 0 84 43l61 80l29 -12v6q1 7 -8 10.5t-20 7t-13 9.5q23 26 23 67q0 14 -1 32t-1 22v20l10 -10l10 10l-10 10 l-10 -10q-8 15 -26 41.5t-26 40.5q-34 42 -79 49l12 8q-16 13 -19 13h-4l11 -31q-8 0 -29 -10.5t-29 -10.5q-13 0 -22 21l-11 -10q21 -24 21 -33l2 -8q-23 -23 -23 -121q0 -43 -17 -62.5t-54 -19.5zM350 668l10 -13h5q3 0 16 13q-3 10 -14 10q-10 0 -17 -10zM360 840l11 -13 v13h-11zM360 969h4q45 0 66 -70l-49 -20v-5q0 -5 8 -16q2 0 5.5 -1t6.5 -1q9 0 30 11.5t22 11.5h10q5 -1 11 -1q44 0 81 44q17 19 59 98l-10 4q-16 156 -92 199q7 10 16 10q7 0 23 -11.5t24 -11.5q1 0 3.5 1t3.5 1l2 5q0 1 -11 16q-7 0 -34 7t-37 7q-25 0 -39 -14 q-34 -15 -51 -59q-25 -61 -41 -74q30 -3 30 -53v-9q0 -1 1 -5.5t1 -6.5q-3 -42 -43 -57zM381 1384l8 -12h14q13 0 19 12q-7 11 -21 11q-13 0 -20 -11zM389 768l33 -31v21q-5 10 -21 10h-12zM412 696l30 -28v10zM440 729l2 -2l17 -10h4q8 11 8 16q0 15 -12 15q-19 0 -19 -19z M520 696q15 -12 23 -12q7 0 20 21t19 22q-3 -3 -37 -6q-25 -3 -25 -21v-4zM532 840h15v14h-15v-14zM553 848l8 -8q12 12 12 14v4h-6q-6 -4 -14 -10zM561 213q12 -12 19 -12l2 2l12 16v4h-12q-14 0 -21 -10zM573 637q5 -10 23 -10h6q12 6 12 18v10h-10h-6q-28 0 -25 -14v-4z M573 1323h15v14h-15v-14zM602 1174q6 -13 19 -13h22q10 13 10 17v4h-28q-15 0 -23 -8zM614 1282l9 -10q10 10 10 18v2l-4 2q-3 0 -15 -12zM623 1372l20 -8v8h-20zM633 807l10 -8h29q10 0 22 8q-12 12 -30 12q-19 0 -31 -12zM633 848h16v16h-16v-16zM653 678h17v12h-17v-12z M664 1092l10 -13h4q3 0 16 13q-7 10 -16 10q-11 0 -14 -10zM674 322q6 -9 20 -9h11v9h-5q-4 0 -16 12zM674 516q3 -10 20 -10h11v10q-3 10 -17 10q-11 0 -14 -10zM684 848l10 -8h4q7 2 17 8q-7 10 -17 10q-11 0 -14 -10zM684 1264h14v14h-14v-14zM825 516l29 -10v10h-29z " />
<glyph unicode="c" horiz-adv-x="966" d="M57 893q0 25 29 35q12 9 12 20t-26 8q-1 25 -1 49q0 91 15 162q24 122 90 185q27 21 68 47q7 5 29 20t33.5 22t30 14t34.5 7q22 0 41 -8q36 19 82 19q30 0 84 -11q78 -8 86 -8v-6q0 4 22 -21q53 -3 88 -63q56 -75 72 -84q63 -204 63 -295q0 -52 -18 -115q-37 0 -94 -8 q-59 -6 -83 -6h-9h-6q-45 0 -77 15q-34 16 -47 47q13 20 13 36q0 8 -6.5 37t-6.5 37q0 18 13 37q-1 3 -7 17t-10 26.5t-4 19.5q0 15 8 23q-4 1 -63 25q-39 23 -63 26q-59 -82 -62 -145q0 -13 4 -33q-10 -20 -10 -43q0 -10 5 -48t5 -48q0 -26 -10 -43q10 -7 10 -15 q0 -3 -5 -12.5t-5 -13.5q0 -54 4 -101q4 -45 4 -102l2 -100q0 -27 -10 -144q13 -9 44 -40.5t52 -49.5q12 24 58 39q49 18 49 39q0 10 -17 41q17 31 17 72q0 9 -4.5 47.5t-4.5 48.5q0 60 37 94h256q41 -30 41 -100l4 -4q-1 -13 -3 -53t-3.5 -56.5t-4.5 -46t-7.5 -52 t-11.5 -44.5q-50 -157 -125 -217q-44 -38 -66 -41q-11 -3 -133 -33q0 2 -248 20q-20 13 -46 28t-41 24.5t-23 15.5q-63 48 -82 98l-13 49q-2 7 -12 45t-12 56q-3 79 -8 213q-12 346 -17 346zM86 451l23 -13v13h-23zM184 938h41v10q-5 8 -12 8q-11 0 -29 -18zM197 1104h14v14 h-14v-14zM215 256h14v12h-14v-12zM215 850h14v14h-14v-14zM225 772h15v12h-15v-12zM225 1200h15v17h-15v-17zM264 360h19l2 5q0 5 -13 18zM295 516h12v16h-12v-16zM295 664h12v16h-12v-16zM295 1200l8 10h-8v-10zM295 1300h12v15h-12v-15zM311 1112l23 -18q10 13 10 16l-2 2 h-31zM350 897l12 -8v8h-12zM362 244l9 -11v11h-9zM362 1210q10 -10 15 -10h4q10 13 10 17v4h-10q-19 3 -19 -11zM422 127h12v14h-12v-14zM430 272h14v15h-14v-15zM487 180q0 -14 25 -14h6v8q-6 12 -20 12h-9zM528 1386l39 -38l8 8zM596 272q1 0 13.5 -8t19.5 -8q11 0 14 8 q-3 10 -20 10q-27 0 -27 -2zM655 1221l9 -11h4q1 0 16 11q-3 10 -14 10q-12 0 -15 -10zM702 516l11 -8q10 10 10 16v2h-4q-5 0 -17 -10zM702 1221l29 -29l10 8zM723 342l18 -20l13 10q-5 10 -23 10h-8zM723 1104l8 -10l10 10l-10 8zM741 244l13 -11v11h-13zM754 479h14v15 h-14v-15zM782 1153h15v12h-15v-12zM793 371h14v14h-14v-14z" />
<glyph unicode="d" horiz-adv-x="993" d="M70 72q10 3 10 14q0 2 -5 12t-5 15v24q0 21 2 33q3 43 6 53q2 30 2 80v25q0 22 -1 44q0 41 1 74q0 10 -1 50.5t-1 70.5v117v164q0 3 1.5 7.5t2 6.5t-1.5 4l-10 547q6 25 36 43q23 14 43 13q7 0 13 -1l448 -14q79 -3 160 -72q83 -70 94 -141v-8q0 -9 19.5 -27.5 t19.5 -31.5q0 -22 15 -97q-1 -1 -1 -18q0 -66 21 -363q-14 -26 -14 -77q0 -17 2 -37q2 -23 2 -42q0 -45 -10 -73q8 -32 8 -49q0 -45 -29 -105v-57q-21 -3 -31 -29q-3 -9 -5.5 -21.5t-4.5 -17.5t-6 -8q-97 -157 -270 -157h-7q-24 -21 -61 -21q-10 0 -44.5 3t-43.5 3 q-29 0 -41 -6l-21 21q-32 -22 -96 -25q-43 2 -94 2l-23 1l1 1l-50 27q-27 12 -30 43zM98 737h15v17h-15v-17zM137 799q11 -11 25 -11h8q4 5 12 13q8 5 8 14v2q-25 -4 -53 -18zM201 948l8 -8l4 -2h4q10 0 33 23q-5 8 -12 8q-6 0 -37 -21zM201 1079l8 13h-8v-13zM219 303h17 v16h-17v-16zM219 446l7 -7q6 -7 10.5 -11.5t11.5 -9t12 -4.5h2q4 0 8 2q11 15 11 16q0 23 -33 23q-17 0 -29 -9zM229 354l11 -10h14q13 0 16 10q-7 11 -20 11q-14 0 -21 -11zM229 578l7 -3q1 0 2 1.5t4.5 4t7.5 5.5l-10 12zM250 203l10 -21l10 11q-12 12 -16 12zM260 1233 h14v14h-14v-14zM270 256l39 -12v4q0 6 -14 13.5t-14 12.5zM270 1040l11 -18l10 8q-13 10 -19 10h-2zM291 657h14v17h-14v-17zM291 930h14v16h-14v-16zM291 1079l18 -16l13 8l-21 21zM309 375l13 -10l4 -3q6 5 16 13q-7 10 -16 10q-10 0 -17 -10zM330 948h30q13 0 23 13 q-13 10 -31 10q-12 0 -17.5 -5.5t-4.5 -15.5v-2zM330 1110l12 -8h2q5 0 18 8q-6 12 -18 12q-8 0 -14 -12zM342 223l8 -10h6q7 2 15 10v4q0 1 -1.5 3t-3.5 6l-4 8zM342 467h14v14h-14v-14zM350 850l12 -10q2 3 4 6.5t3.5 5t1.5 2.5v4h-6q-1 0 -2.5 -1t-5 -3t-7.5 -4z M350 1212q15 -23 41 -20h8q-16 25 -37 25zM371 293l12 -19l8 9q-12 12 -16 12zM371 768h14v14h-14v-14zM373 457q30 -13 30 -74q3 -66 24 -93.5t46 -27.5q29 0 62 29l49 43q-11 15 -11 31q0 13 17 47q22 39 22 43h-10q-18 21 -18 55q0 8 4 38.5t4 37.5l-8 12l-2 2v4 q0 9 20 35l-18 18q4 12 4 23q0 7 -3 32t-3 31q0 44 30 56q-26 3 -26 16q0 7 4 22t4 19q0 16 -10 23q10 17 10 28q0 6 -5 27.5t-5 28.5q0 14 8 26q-6 23 -4 39q0 42 3 39q1 0 1 -2q-2 51 -37 93q-34 41 -76 40h-2q-44 0 -65 -37l-13 -69q0 -22 13 -41q-11 -27 -11 -62 q0 -17 6 -68t7 -59v-12q0 -8 -2 -10q-13 -23 -13 -52q0 -8 7.5 -53.5t5.5 -60.5q0 -29 -13 -58l11 -49q1 -5 8 -47q-3 -57 -45 -63zM422 1323q7 -10 16 -10h25v10q-29 0 -31 10zM432 1223l8 -11l23 21h-8h-6q-14 0 -17 -10zM440 102h27q11 0 14 11q-7 10 -18 10 q-23 0 -23 -19v-2zM440 233l23 -20l8 10q-3 10 -18 10h-13zM463 1384l8 -12v12h-8zM522 223l13 -10v10h-13zM522 1223l13 -11l8 17v4h-4q-7 -4 -17 -10zM584 113h14v14h-14v-14zM602 1192l10 -10h13q15 0 18 10q-3 10 -18 10q-16 0 -23 -10zM625 737l8 -10l10 16v5h-4 q-2 0 -3.5 -1.5l-4.5 -4.5t-6 -5zM625 1010q15 -11 16 -11l2 2q12 12 12 17l-2 4l-4 -2q-3 0 -16 10zM643 264l10 10h-10v-10zM653 606h11l12 17l-2 4l-4 2q-17 0 -17 -19v-4zM664 375l10 -10q4 3 17.5 11.5t23.5 16.5q-4 -3 -26.5 -6.5t-24.5 -11.5zM694 313l21 -20 q10 13 10 16q0 15 -14 15q-13 0 -17 -11zM705 969l10 -8l51 40v-2q-4 -5 -31 -12t-30 -18zM715 1110l10 -8v8h-10zM723 874q0 -9 10 -16l21 21q-12 12 -17 12q-14 0 -14 -17zM864 516q17 -10 19 -10h2q12 9 12 16v4h-12q-14 0 -21 -10zM918 647h14v15h-14v-15z" />
<glyph unicode="e" horiz-adv-x="925" d="M68 74q0 5 7 20.5t7 20.5q0 12 -12 6q12 635 16 635q3 14 3 29t-2.5 79.5t-5.5 130.5t-6.5 182.5t-4.5 235.5l71 64l506 -15q7 0 40 6.5t42 6.5q53 0 70 -11q42 -24 45 -125q0 -61 -27 -147l-47 -29l-264 6q-4 0 -11.5 3.5t-11.5 3.5q-24 0 -45 -35q-17 -35 -35 -39 q7 -11 7 -25q0 -7 -0.5 -23t-1 -26t1.5 -21.5t6 -17.5q-14 -4 -39 -14q-23 -9 -35 -27q9 -20 39 -20q20 0 43 10q-2 -2 -2 -4v-2q0 -12 18 -33l287 -2q41 -28 41 -61q0 -19 -10 -29q12 -71 12 -102v-6q0 -47 -29 -85l-297 -18q-6 -6 -14 -6q-4 0 -20 6t-21 6q-10 0 -16 -27 l20 -20q3 10 21 10h10q-6 -10 -10 -41q0 -4 1 -11.5t1 -10.5v-25v-12q-2 0 -5.5 1t-4.5 1q-7 0 -33 -23q3 -6 24 -18t21 -20v-5q0 -1 -1 -3.5t-1 -4.5l-33 -31q36 -19 72 -67q23 -12 86 -12q35 0 92 8q43 6 94 6q35 0 49 -4q10 10 19 10q6 0 23 -10t22 -10q18 -24 18 -60 q0 -9 -2 -39.5t-2 -38.5q0 -24 4 -34q-6 -57 -20 -74q-18 -37 -60 -37l-96 4q-74 6 -93 6h-5l-99 -2q-14 0 -96 4q-21 2 -53.5 6.5t-42.5 4.5q-13 0 -61.5 -9.5t-61.5 -9.5q-34 0 -66 19q-36 17 -36 51zM141 1210h15v17h-15v-17zM152 193h16v14h-16v-14zM152 455 q7 -11 18 -11h23l10 17q0 14 -19 14q-23 0 -32 -20zM162 678l20 18h-12zM223 678h15v12h-15v-12zM223 745q2 0 23.5 -13t29.5 -13t17 6q-27 24 -52 24q-5 0 -10 -1zM223 848l29 20l-8 11zM242 561q0 -13 10 -16h12q16 0 19 10l-31 20q-10 -3 -10 -14zM244 383h12v14h-12v-14 zM244 979q12 -12 16 -12l4 2v4q0 4 -12 16zM264 152h15v14h-15v-14zM264 889l8 -10q11 11 11 16v2l-4 2q-5 0 -15 -10zM283 193q13 -13 16 -13l2 2l2 2q0 2 -10 19zM283 1128l18 -8l-8 8h-10zM293 401q0 -18 22 -18h7q3 14 -29 20v-2zM293 807l20 -21q3 2 12 6t14 6.5t11 7 t9 9.5t3 12q-2 2 -12 2q-11 0 -57 -22zM301 948l12 -10l9 10l-9 10zM301 1071h16v14h-16v-14zM313 868l9 -10l12 10l-12 11zM342 82l12 -21l8 9q-12 12 -16 12h-4zM354 725l19 -18v10q-10 10 -17 10zM354 1079h2q4 0 17 13l-11 10zM354 1210l8 -10h7q6 4 14 10q-3 13 -14 13 q-15 0 -15 -13zM373 301l10 -8v8h-10zM383 647l4 -2q6 4 16 10l-10 13zM383 1282h14v16h-14v-16zM403 203l21 -21l10 11q-7 10 -18 10h-13zM424 1241h14v16h-14v-16zM434 254h2q4 0 14 -6t13 -6q6 0 12 12l-31 18zM455 655l10 -8l10 8l-10 13zM475 768l8 -10v10h-8zM535 231 h16v17h-16v-17zM535 768l10 -10l10 10l-10 10zM535 1223l10 -13v13h-10zM614 1323h17v14h-17v-14z" />
<glyph unicode="f" horiz-adv-x="876" d="M68 72q0 5 8 63q3 9 6.5 23.5t6.5 24t7 16.5l-28 1216q28 60 61 60q3 0 14 -6.5t15 -6.5q6 0 12 13q67 -2 134 -3.5t114 -3.5t90 -3.5t69.5 -2t46 -1t25.5 0t2 2.5q13 0 55 5.5t58 5.5q30 0 70 -21q1 -5 10.5 -24t9.5 -27q0 -9 -10 -19q10 -33 10 -65v-78 q-1 -2 -6.5 -10.5t-7 -10.5t-7 -9.5t-8 -10t-8 -8.5t-10 -8t-10 -5t-12 -4t-13.5 -1q-5 0 -50 4t-63 4h-45q-17 0 -59 5t-45 5q-61 0 -121 -72l-2 -57v-9q0 -128 84 -175q33 0 82 8q74 8 84 8q89 0 117 -66l-2 -88q-4 -51 -9 -73q9 -9 9 -17q0 -7 -10.5 -25.5t-10.5 -19.5 q-28 -16 -67 -16h-13q-13 -2 -39.5 0t-58.5 5.5t-41 4.5q-50 -1 -73.5 -16t-49.5 -58q10 -15 10 -41q0 -32 -14 -55l23 -299l-15 -90q-11 -41 -84 -41h-92q-16 2 -46 6t-46 6q-57 6 -57 60zM96 799q0 -2 10 -2q8 0 31 20h-8h-8q-25 0 -25 -16v-2zM147 948l11 -8q4 -2 8 -2 q7 0 33 23q-6 6 -15 6q-15 0 -37 -19zM176 444l23 -20h12q13 0 16 10q-4 0 -17 10.5t-17 10.5q-9 0 -17 -11zM176 578l6 -3q7 5 17 11l-13 12zM217 264l10 -10h6q7 2 15 10q-3 10 -15 10q-13 0 -16 -10zM217 1038l10 -16l11 8q-13 10 -17 10zM227 586h17v14h-17v-14z M227 909l21 21h-10zM238 655l10 -8l10 8l-10 13zM238 1079l20 -18l10 10l-20 21zM258 768l10 -10l11 10l-11 10zM268 948q8 -8 17 -8q6 0 14.5 4t17.5 10t11 7q-8 8 -27 8q-27 0 -33 -21zM276 1114l3 -4q13 -8 16 -8h4q10 13 10 16q0 12 -14 12q-19 0 -19 -16zM289 707 l10 -11l10 11l-10 10zM299 854q0 -12 10 -14l10 8v6q-4 4 -10 14q-10 -2 -10 -14zM299 1223q24 -27 45 -27q10 0 14 4q-15 15 -49 27zM309 772q0 -9 10 -14l21 20l-16 10q-15 0 -15 -16zM369 598h16v14h-16v-14zM389 647l10 -10l11 10q12 10 12 15l-2 6zM389 717l10 10h-10 v-10zM389 1233l10 -10l11 10l-11 8zM389 1333l21 -20v10l-7 -2q-1 0 -2 1l-4.5 4.5t-7.5 6.5zM420 799l10 10h-10v-10zM420 1372l10 12h-10v-12zM479 1241l13 -8v8h-13zM502 817q1 0 7 -5t13.5 -9t12.5 -4q8 0 18 10q-11 8 -23 8h-28z" />
<glyph unicode="g" horiz-adv-x="974" d="M61 932q-1 18 -1 26.5t1 8.5q0 30 21 37q-1 11 -2 30.5t-2 30.5q6 397 399 412q127 -7 189 -43l8 -2h7q31 0 65 -26q38 -28 88 -89q18 -45 49 -164q14 -14 14 -39q0 -4 -3 -24t-3 -25q0 -15 8 -31l-45 -39l-256 9q-20 28 -20 56v7l2 14l18 21q-23 6 -47 43q-28 39 -51 39 q-7 0 -19 -4l-28 28q-24 -12 -21 -49q-47 -47 -47 -141v-23q10 -10 10 -20q0 -4 -5 -19t-5 -20q0 -10 8 -18l-8 -11q10 -10 10 -16q0 -3 -5 -17t-5 -20t8 -14q-18 -12 -18 -29q0 -7 11 -31t11 -32q0 -13 -12 -25q10 -10 10 -16q0 -5 -5 -18.5t-5 -18.5q0 -6 8 -17 q-8 -36 -8 -198v-35h-12q-11 0 -19 -4q81 -144 197 -160l18 18l-39 27q60 38 60 119v14q0 11 -2 17h6q4 0 18 -4.5t17 -4.5q8 0 18 17q-15 24 -51 18l-76 88l21 21l-21 18l-8 -8q-20 17 -20 47q0 6 2 28.5t2 28.5q0 15 -4 31l10 10q-10 3 -10 13q0 4 5 13.5t5 12.5l45 29 l274 -8q10 10 27 10q20 0 35 -12l22 -68q-2 -37 -3 -68t-2 -60t-2 -53t-2 -45t-1.5 -37.5t-1 -30.5t-0.5 -23.5t-0.5 -16t-0.5 -9.5l1 -3q-1 -1 -1 -12q0 -46 19 -264v2v-6q0 -31 -21 -58q-23 -29 -54 -29q-34 0 -95 25q-66 27 -90 27q-48 0 -80 -52q-58 -16 -119 -16h-20 h-14q-115 0 -187 48q-76 52 -110 165q-53 98 -53 399q0 101 -2.5 192t-4.5 126zM102 684l9 -10h14q6 0 16 10q-10 10 -20 10q-16 0 -19 -10zM121 868l10 -18l10 8l-16 10h-4zM131 360l10 -8l9 8l-9 11zM131 428h14v16h-14v-16zM188 1065h15v12h-15v-12zM209 635l8 -10v10h-8 zM209 1180l8 -11l10 11l-10 12zM217 205q7 10 45 10q32 0 35 18q-22 -4 -80 -28zM217 459q10 -10 33 -10h31l7 1l-1 1v28q-20 10 -45 10t-25 -20v-2v-8zM217 1122l39 19h-29zM227 684h29q12 9 12 16v2q-2 0 -5 1.5t-5 1.5q-3 0 -31 -21zM248 946h14v15h-14v-15zM307 684h15 v14h-15v-14zM307 850h19v8h-4q-3 0 -15 -8zM315 383l11 -12l10 12l-10 8zM315 762l39 -39l8 8q-5 9 -25 19t-22 12zM326 565q3 -2 7 -4.5t6 -4t3 -1.5h2l12 18l-2 2h-4q-3 0 -14 11zM326 975q11 -8 16 -8h2v2q0 5 -8 16zM336 176l8 -10l10 10l-10 10zM354 889h17v14h-17v-14 zM362 215q17 -10 19 -10h4v4q0 1 -1 2.5t-4 5.5t-5 8zM362 1122l13 -12v12h-13zM403 1307h17v14h-17v-14zM424 109l8 -21l10 10l-16 11h-2zM461 1260l10 -13l10 13l-10 8zM481 225l21 -20l10 10q-10 10 -18 10h-13zM502 1221h12v12h-12v-12zM530 664h15v16h-15v-16zM580 246 l8 -13h6q1 0 14 13v2q0 3 -10 16zM598 1200l20 -8l-10 8h-10zM608 313l10 -20l9 8q-9 12 -17 12h-2zM608 770h15v14h-15v-14zM639 371l18 -19l2 -2q4 0 10.5 5t11.5 11l5 5q-6 12 -24 12q-17 0 -23 -12zM647 479l39 -41l8 13l-28 18l12 10q-10 10 -16 10q-12 0 -15 -10z M678 526l8 -10l8 10l-8 11zM686 137l8 -10v10h-8zM686 246h14v14h-14v-14zM686 1298h14v15h-14v-15zM725 479h8v19zM793 352l10 -10l10 10l-10 8zM813 451l8 -13l13 17l-3 4h-4q-2 0 -14 -8z" />
<glyph unicode="h" horiz-adv-x="989" d="M68 1354q0 6 5.5 37t4.5 41q30 43 104 43q3 0 11 -1t22.5 -2t30.5 -2q37 -3 63 3l60 -11l26 -39l4 -249q-5 -5 -16.5 -13.5t-17.5 -15.5t-7 -15l11 -8q3 8 18 8h12q-12 -12 -12 -26q0 -6 6 -27t6 -28q0 -18 -12 -27q4 -5 21 -29.5t24.5 -32.5t25.5 -18t40 -10q8 0 45 5 t49 5q20 0 47 -10l31 31q-11 20 -29 20q-7 0 -31 -10t-30 -10q18 21 26 61l15 68q-23 30 -23 61q0 26 12 47q-14 118 -14 143q0 78 33 119q37 11 61 11h70q15 -11 31 -11q15 -3 32 0q11 0 22 1t13 1q23 0 42.5 -15.5t19.5 -37.5q-9 -456 -9 -576v-32q1 -7 0 -18t-4 -29.5 t-4 -30.5q-5 -53 -2 -53l19 -580q-12 -12 -21 -69q-38 -13 -108 -13h-27q-11 1 -45.5 -4.5t-42.5 -5.5q-10 0 -58 23q-20 55 -20 155q-2 92 -2 140.5t2 54.5q0 10 8 41q0 21 4 41q-4 59 -12 96q-42 59 -103 59h-6h-2q-31 0 -61 -27q-30 -28 -37 -61l10 -30q-2 2 -6 2h-4 q-5 0 -11.5 -4.5t-11.5 -9.5t-11 -11.5t-7 -7.5q3 -1 18 -17t23 -16h4q1 0 3 1t3 1q-3 -15 0 -59q3 -37 -10 -60q7 -16 12 -55q-5 -36 -12 -53q10 -31 10 -86t-10 -86q-23 -29 -67 -29q-11 0 -54.5 5t-54.5 5q-30 0 -53 -10h-6q-37 0 -56 25q-3 3 -28 55q10 7 10 12 q0 4 -5 17t-5 16q0 6 8 14l-4 6q11 300 16 312q-1 16 -2 78.5t-6 109.5q0 43 -2 102t-2 76v30q0 92 10 198q-9 38 -9 79q0 11 1 23v14q0 41 8 131q-20 27 -20 54zM98 522l13 -10v10h-13zM119 1223l18 -13v13h-18zM137 723h17v14h-17v-14zM168 373q13 -13 16 -13h4v5 q0 5 -10 18zM168 1210l10 -10l10 19v4h-4q-3 0 -16 -13zM188 612h35q21 0 35 9q-10 10 -18 10l-22 -9q-13 -5 -30 -10zM217 1012l21 -8v8h-21zM229 543l9 -13v13h-9zM238 481l12 -10v10h-12zM238 682q21 -12 32 -12t29 12q-10 20 -29 20q-22 0 -32 -20zM248 274l2 -4h10 q12 0 19 13q-3 10 -13 10q-18 0 -18 -19zM252 862q0 -7 6 -10h31q15 0 20 10q-3 3 -9.5 10.5t-10 11t-9 6.5t-10.5 3q-9 -12 -16 -28zM258 932l12 -10h11q11 0 18 10q-6 12 -20 12q-15 0 -21 -12zM270 422l9 -21l12 17l-2 4h-19zM279 360l20 -18l10 10q-3 11 -18 8h-12z M279 561h20v4q0 5 -10 17zM279 772q40 -31 83 -31h17l10 11q-3 2 -9 3.5t-17 4.5t-21 6q-40 8 -49 8q-10 0 -14 -2zM279 1032h14v15h-14v-15zM309 983l19 -20l12 8q-6 12 -21 12h-10zM319 821q13 -10 17 -10h4v2q0 3 -12 18zM319 1071l9 -8h4l16 8q-3 10 -14 10 q-12 0 -15 -10zM340 561l29 -18v8q-7 10 -21 10h-8zM348 621q9 -9 17 -9q10 0 27 10l18 11q-13 10 -37 10q-25 0 -25 -22zM348 862l10 -10q11 15 11 16v4h-7zM358 1200l11 -18l10 10l-17 8h-4zM369 201l10 -8v8h-10zM369 690q3 -14 16 -14q5 0 24 7t25 7q19 0 27 -28l8 8 q-55 37 -68 37q-15 0 -32 -17zM379 942l10 -10l21 18l-11 2h-2q-11 0 -18 -10zM399 842q4 -11 23 -11l6 3q80 25 90 67q-8 4 -12 4q-17 0 -47 -35q-24 -28 -53 -28h-7zM438 752l11 -11q6 0 28 -10t29 -10q11 0 24 10l-2 2q-45 29 -63 29q-14 0 -27 -10zM438 901h4q4 0 19 12 l-12 9zM518 799q0 -4 12 -19q1 0 4 -1t5 -1h8q49 0 61 43h-20q-6 2 -15 2h-10q-45 0 -45 -24zM530 862l9 -10h22q17 0 19 10q-9 12 -27 12q-17 0 -23 -12zM539 682h14v14h-14v-14zM588 651h35q18 0 26 11q-8 8 -24 8q-27 0 -37 -19zM588 731l20 -29l13 11q-18 18 -27 18h-6z M621 442q2 -1 18 -10.5t23 -9.5q4 0 16 8q-7 23 -33 23q-13 0 -24 -11zM623 580q0 -2 4 -2t16.5 2t15.5 2q15 0 19 -11q12 12 12 19v2q-2 -2 -12 -2q-4 0 -19 6t-20 6h-4q-2 0 -6 -2q-6 -12 -6 -20zM639 373l10 -21q10 10 10 17v4h-20zM649 213h15v14h-15v-14zM659 913 l11 -12l39 31q-4 4 -13 4q-20 0 -37 -23zM670 1040l8 -18l12 10q-13 10 -18 10zM678 270l12 -8v8h-12zM678 662l12 -11h4q5 3 15 11q-3 12 -15 12q-10 0 -16 -12zM690 803h15v12h-15v-12zM690 1081q10 -10 17 -10h2l2 4q-5 7 -13 17zM698 762l11 -10h6q6 2 14 10 q-3 10 -14 10q-14 0 -17 -10zM721 950q5 -8 14 -8q8 0 25 10.5t18 10.5q-10 10 -26 10q-25 0 -31 -23zM729 461l10 -8l11 8l-11 10zM729 1110l10 -8l11 8l-11 12zM750 852l10 -10l8 10l-8 10zM760 768q0 -13 8 -16l10 10l2 6l-12 12q-8 -3 -8 -12zM778 461h17v16h-17v-16z M819 360h15v17h-15v-17z" />
<glyph unicode="i" horiz-adv-x="479" d="M63 139q14 184 21.5 251.5t15.5 53.5q-13 19 -19 213.5t-14 668.5q-1 57 -1 87q18 40 57 60l24 2h3h118q58 0 125 -23q21 -40 23 -78q-2 -7 -6.5 -33t-8.5 -47q-8 -47 -8 -82q0 -40 6 -114q2 -22 3.5 -61.5t3.5 -53.5q0 -22 -7 -115q-7 -90 -14 -106q16 -496 16 -547 q0 -17 6 -65l7 -56h-2v-8q0 -41 -27 -63q-29 -23 -85 -23h-5h-3q-19 0 -102 10q-58 11 -92 11q-8 0 -14 -1q-18 15 -18 35q0 6 5 28t5 28q0 12 -13 28zM123 571h16v15h-16v-15zM123 741l20 -10v10h-20zM174 803q3 -13 21 -10h10l12 12q6 6 6 14v2q-24 -4 -49 -18zM233 952 l13 -10l2 -2h4q11 0 31 23q-4 4 -13 4q-13 0 -37 -15zM262 440l21 -18l4 -2q3 0 16 10q-20 23 -27 23q-8 0 -14 -13zM262 592l12 -10v10h-12zM315 270h15v15h-15v-15z" />
<glyph unicode="j" horiz-adv-x="909" d="M14 571q0 71 140 74q10 -2 34 -2q29 0 43 -2q17 -2 36 -4t29 -3t15 -3q33 -17 33 -76v-12q0 -19 -2 -33q-3 -30 0 -45q-10 -17 -10 -33q0 -3 12 -40t8 -54q4 -4 17.5 -18.5t20 -20.5t18.5 -12.5t24 -7.5q31 0 53 40q25 48 45 58q-20 11 -20 47q0 31 10 51l6 -2 q-1 0 1 2.5t8.5 8t15.5 10.5v6q0 -1 -2.5 1.5t-7.5 9.5t-11 15q-9 -12 -12 -12h-8v72v6q0 27 6 110q4 102 4 109v14q0 25 -4 74q-7 75 -6 88q0 43 4 90l8 80l-20 246q-3 26 27.5 48t60.5 22q4 0 17.5 -2.5t17.5 -2.5q16 0 106 9q64 -1 89 -28t28 -95q0 -38 -27 -84 q11 -211 13 -418q1 -103 1 -169t-1 -95v-28q0 -42 4 -79v-15q0 -64 -23 -112q12 -12 12 -32l-1 -1q0 -1 -0.5 -4.5t-2 -8.5t-3 -12.5t-3.5 -15.5t-4.5 -19.5t-5.5 -22.5q-23 -87 -105 -152q-78 -66 -154 -66h-7q-28 3 -39 -18q1 -1 -1.5 -1h-10h-17h-26t-33.5 -1 q-36 0 -72 20q-19 9 -61 17q-59 12 -68 12q-60 20 -94 72q-27 48 -68 108l-33 297l9 9q-13 22 -13 36zM174 199l12 -11l9 11l-9 10zM195 297q10 -10 22 -10h6q10 14 13 14l-3 6h-20q-15 0 -18 -10zM205 377h14v14h-14v-14zM283 238l12 -9l39 37zM311 178l23 -20q10 7 10 20 l-2 10l-6 2h-6q-13 0 -19 -12zM401 121l11 -10v10h-11zM502 188l18 -18l10 8q-6 12 -18 12zM510 317q12 -12 16 -12l4 2q3 4 5.5 7.5t4 5t1.5 2.5l-2 4l-9 2q-16 0 -20 -11zM520 90h17v14h-17v-14zM551 367l8 -13h4q4 0 17 13q-7 10 -15 10q-11 0 -14 -10zM559 219l12 -20 l9 10q-13 10 -17 10h-4zM559 1008h14v16h-14v-16zM571 1204l9 -8v8h-9zM580 651l10 -8q-1 -1 3 -2h19q12 0 19 10q-10 13 -27 13q-14 0 -24 -13zM608 367q3 -13 19 -13h20v13q-3 12 -16 12q-17 0 -23 -12zM608 938l10 -8l13 8l-13 10zM618 465h17v14h-17v-14zM618 1098 l21 -11v11h-21zM639 178h14v15h-14v-15zM639 702l8 -20v10zM709 1255h10v21zM758 367l18 -13v13h-18z" />
<glyph unicode="k" horiz-adv-x="1044" d="M72 1364v9q0 64 39 89q43 0 82 6q18 2 44 4t31 3q90 0 133 -43q5 -20 5 -27q0 -10 -8.5 -46t-8.5 -46q0 -23 12 -41h-4q1 0 -1 -2.5t-8.5 -7.5t-14.5 -11q18 -22 28 -20l5 -10q0 -10 -15 -19q-18 -7 -18 -10l18 -18l-18 -21q19 -10 33 -47q12 -37 36 -43v-10h-10 q-15 -3 -20 10q-11 -7 -11 -25v-6q14 -21 50 -41q25 14 22 39l-2 10l-8 13q0 -2 4 -2h2q8 0 33 22q-4 8 -4 17q0 11 17 49.5t17 52.5h11q27 -3 39 18l-21 21q16 26 37 96q17 68 39 98q26 45 86 45h14q1 0 4 -1t4 -1h7q12 0 50 2.5t50 2.5q81 0 106 -43q-31 -97 -57 -146 l-123 -237q-94 -184 -100 -269l115 -266q1 -1 3.5 -5t5.5 -9.5t5 -10.5q19 -74 45 -96q-2 -2 -2 -12q0 -31 29 -57q9 -39 59 -129q47 -75 47 -134q0 -18 -4 -34q-22 -19 -43 -19q-6 0 -28 3t-31 3q-13 0 -37 -8q-8 3 -37 8q-13 3 -37 0q-6 0 -14 -1t-11 -1h-14q-66 0 -88 43 q-5 14 -37 117q-30 102 -43 131q-8 11 -18.5 32.5t-16.5 31.5q-20 36 -20 63q0 20 6 35q-1 1 -6.5 4t-19 11t-27.5 16q-26 18 -58 18l-28 -29q29 -19 26 -49q0 -6 -5 -34t-5 -38q0 -16 12 -28q-13 -20 -10 -35q0 -8 7.5 -37t7.5 -37q0 -2 -5 -22h-4q3 0 -24 -21 q30 -12 30 -48v-7q0 -84 -2 -84l-30 -31q-23 0 -78 -8q-18 -2 -44 -3.5t-32 -2.5q-88 0 -133 45q-8 20 -8 68q0 22 10 84q7 71 14 90q-3 116 -5.5 234.5t-3.5 188.5t-2.5 128.5t-3 81t-3.5 18.5v9q0 17 4 59l4 53q-2 86 -7.5 162t-8.5 108.5t-2 36.5zM162 780h31q15 0 18 13 q-3 10 -16 10q-20 0 -33 -23zM162 950l10 -8l10 8l-10 13zM193 602l10 -10q10 13 10 16l-2 4v2q-6 0 -18 -12zM193 682l10 10h-10v-10zM193 1053l30 -21v8zM244 432l8 -10v10h-8zM252 203h14v14h-14v-14zM252 862h14v15h-14v-15zM252 1153l31 -18q4 0 10 6q-20 20 -29 20 q-4 0 -12 -8zM262 494q0 -16 10 -23q12 27 37 27q34 0 43 6q-38 10 -49 10q-14 0 -41 -10v-10zM262 553q3 15 27 18q12 2 17.5 5.5t4.5 9.5v6q-3 -2 -15 -7t-17 -8t-10.5 -9.5t-6.5 -14.5zM262 752l10 -11v11h-10zM262 1063l10 -10l11 14v6h-4q-4 0 -17 -10zM272 352h15v15 h-15v-15zM272 963q9 -21 41 -21h19q20 20 20 25v4q-12 -6 -26 -6h-19t-15 -0.5t-10.5 -1t-7.5 -0.5h-2zM283 643l10 -10h2q3 0 16 10q-3 8 -14 8t-14 -8zM283 1210q13 -10 14 -10h4v4q0 6 -8 19zM301 391q13 -8 16 -8h5v2q0 1 -11 16zM301 780q12 5 33.5 10.5t25.5 6.5 q41 10 52 24q-9 23 -23 23q-4 0 -23.5 -18.5t-29.5 -18.5q-5 0 -14 6q-21 -21 -21 -29v-4zM311 735q0 -12 17 -12h24q10 13 10 14v4q-10 13 -28 13q-23 0 -23 -19zM311 852h17v14h-17v-14zM322 322h14v16h-14v-16zM322 682h14v14h-14v-14zM322 901l10 -8h4q3 0 16 8 q-3 12 -16 12q-11 0 -14 -12zM342 592l10 10h-10v-10zM342 1067q0 -11 10 -14h8q21 -3 21 10q0 2 -10 10t-15 8q-14 0 -14 -14zM342 1122l10 8h-10v-8zM352 643q18 -12 43 -12q26 0 47 12v2q0 5 -12 17q2 0 2 1t-8 1h-43q-25 0 -29 -21zM360 526q0 -14 21 -14h10l12 16 q0 17 -22 17q-21 0 -21 -19zM373 682q1 0 3 -1t3 -1h2q9 0 31 22q-10 13 -15 13q-11 0 -17.5 -9t-6.5 -24zM373 883l43 -17q21 -17 26 -35h19q31 0 41 21h-2q-98 16 -119 61zM430 582q9 -9 19 -9h14q8 8 8 15q0 14 -12 14q-9 0 -29 -20zM442 731q21 -14 37 -14q7 0 13 6 q-12 15 -50 41q11 -7 11 -19q0 -7 -11 -14zM461 915l2 -2h6q17 0 23 9q-2 10 -13 10q-18 0 -18 -17zM481 1004l11 -21l10 8q-13 13 -17 13h-4zM502 512l10 -8l2 -2q1 0 18 10q-6 12 -16 12q-8 0 -14 -12zM502 662l10 -11l20 23l-12 8zM512 793q7 -7 20 -7q8 0 32.5 17.5 t33.5 17.5h4q-13 8 -39 8q-45 0 -51 -36zM520 948q0 -16 17 -16q5 0 15 9l9 9q-7 13 -18 13h-11q-12 -6 -12 -15zM532 592l29 -19q12 9 12 15q0 16 -22 16q-17 0 -19 -12zM532 702q0 -12 15 -12h18q7 0 8.5 0.5t3 4t5.5 7.5q10 5 10 15v6q-3 2 -6 2h-35q-19 0 -19 -23z M543 991q4 4 18 -8l10 8l2 4q0 5 -12 17zM543 1081l8 -8v8h-8zM551 463l10 -8l10 8l-10 8zM571 532l11 -20v10zM592 573l10 -12h2q8 0 17 12q-3 9 -15 9q-8 0 -14 -9zM633 883h14v14h-14v-14zM641 1073l10 -10h2q6 0 19 10q-3 8 -17 8q-9 0 -14 -8zM662 463q13 -10 14 -10 l6 2q0 6 -10 16zM682 352q7 -10 16 -10h13l12 16v4h-25q-13 0 -16 -10zM711 1063l12 -23v13zM721 477q0 -11 10 -14l21 20l-17 11q-14 0 -14 -17zM723 174h14v14h-14v-14zM723 301l8 -8l10 14v6h-2q-7 0 -16 -12zM780 1200l13 -8v8h-13z" />
<glyph unicode="l" horiz-adv-x="882" d="M68 61q14 222 14 336q0 46 -2 74q7 75 14 92q-8 161 -8 330q0 105 -4 281q-3 34 -6 108q-3 43 -3 76q0 20 1 35q-3 51 57 80q4 0 11 1t10 1h18q25 0 100 -7q26 -2 60 -3.5t43 -2.5q33 0 39 -35q2 -2 2 -55q0 -26 12 -41q-18 -131 -18 -176v-8l4 -76l-15 -20l15 -543 q-9 -15 -9 -23t5.5 -25.5t5.5 -21.5q0 -13 -11 -20q11 -18 11 -35q0 -25 -11 -39q53 -59 106 -60q3 0 5 1l252 20q27 2 60.5 -17t39.5 -42q-12 -21 -12 -53q0 -13 6 -55.5t6 -53.5q0 -80 -98 -80q-31 0 -78 8q-38 9 -62 9q-9 0 -16 -1l-419 -16q-8 8 -17 8q-3 0 -16 -6 t-17 -6q-5 0 -75 61zM100 639l13 -12h8q8 0 31 20q3 0 0 1q-2 1 -5 1h-24q-16 0 -23 -10zM162 778l8 -10h6h4q11 0 31 20q0 7 -12 7q-13 0 -37 -17zM193 274l18 -18h8q20 0 25 8q-5 0 -19 10.5t-18 10.5q-7 0 -14 -11zM193 418l2 -2q3 0 16 10l-8 10zM244 102l8 -8v8h-8z M252 496h14v16h-14v-16zM252 758h14v16h-14v-16zM264 920l8 -11v11h-8zM301 295h16v14h-16v-14zM301 788l12 -10v10h-12zM301 948h16v17h-16v-17zM334 606h14v17h-14v-17zM342 295l12 -10v10h-12zM373 184h30v11q0 10 -14 10q-16 0 -16 -17v-4zM524 174l11 -10l10 10l-10 10 zM563 285v16h17v-16h-17z" />
<glyph unicode="m" horiz-adv-x="1265" d="M68 172l16 313l6 17q0 101 -3 211.5t-3 120.5v16q0 44 14 61l-24 500q21 64 102 64h23q5 0 14.5 -1t15.5 -1h58q21 0 67 -9q25 -4 46 -4q14 0 28 2q40 -32 51 -102q6 -20 14.5 -60.5t14.5 -60.5h-4q-9 9 -27 23l-8 -13q60 -31 66 -119q6 -107 32 -143l-2 -45v-2 q0 -24 23 -31h6q-4 -2 -14 -2q-19 0 -23 11q-10 -3 -10 -15q0 -11 10 -14q8 -22 37 -29q41 -10 43 -12l33 29l-21 20q1 14 29 28t31 23q-23 20 -23 37q0 7 13.5 39t13.5 43q0 15 -4 23h10q12 -3 26.5 5.5t14.5 18.5q0 5 -12 14h-21q15 38 12 52q4 -2 6 -2q10 0 35 22 q-20 26 -20 68q0 32 16 88q5 15 16.5 43.5t16.5 42.5q39 31 106 31q14 0 68 -5q11 -1 20 -1q26 0 46 6q15 -4 30 -6.5t34 -5.5t30 -5q51 -15 51 -65v-2q-9 -136 -10 -150q-13 -115 -13 -145q0 -51 11 -115q-19 -9 -19 -23q0 -20 33 -30l-4 -764q-4 -8 -8 -31q-3 -6 0 -27 q0 -3 1 -9t1 -9v-10q0 -56 -49 -68q-16 -4 -90 -4q-17 2 -35 -2q-20 8 -66 8q-27 0 -47 33q13 50 13 94q0 9 -1 17q0 14 -8 108q-5 41 -5 76q0 17 1 33q-1 10 -1 20q0 49 13 94h4q2 0 15 -10l20 21q-3 30 -51 30l39 39h-4q-30 -3 -33 41q-1 23 -10.5 33t-24.5 8h-6 q-8 -7 -38.5 -45.5t-43.5 -46.5q13 -10 17 -10h6l8 10q-6 -31 -14 -57q-13 -40 -27 -54q6 -24 6 -26q0 -14 -8 -55.5t-8 -53.5q0 -4 2 -19t2 -20q-3 -53 -35 -88q6 -12 6 -35q0 -53 -28 -96q-36 -51 -84 -51q-11 0 -29.5 16.5t-24.5 16.5t-6 -2q-35 132 -49 227 q-4 26 -17 108t-18 119h2q9 7 29 21q-9 4 -16 9t-10 8l-3 3h-2l-12 -14v6q0 85 -78 148l-47 2h-2q-33 0 -33 -27q0 1 2.5 -1t8 -8.5t10.5 -15.5h51q-11 -53 -11 -73q0 -6 1 -8h-7q-4 0 -14 10q-17 -26 -20 -25v-6l20 -18l6 8l2 -221q13 -23 13 -60v-30h-7q5 0 -10 -10 q-6 -4 -14 -9q33 -10 33 -53q0 -1 -0.5 -5.5t-1.5 -14t-2 -19.5q-2 -18 2 -39l-31 -33q-24 4 -37 4q-12 0 -64 -6q-45 -6 -64 -6h-5q-88 0 -88 50q0 8 3 26t3 24q0 19 -10 29q10 5 10 12q0 17 -16 29zM125 799l20 -13v13h-20zM125 948h14v17h-14v-17zM156 606h14v15h-14v-15 zM156 1049l8 -21v10zM205 1151l28 -21q9 0 13 9l-31 30zM213 492q0 -9 14 -9q16 0 19 13h-31zM215 1061l10 -12q2 4 5 8.5t4.5 6.5t1.5 3v2h-5q-6 -2 -16 -8zM225 354h15v15h-15v-15zM225 958q6 -20 35 -20h35q22 22 22 27l-2 2l-51 -9q-10 0 -28 9zM236 1221q3 -3 6 -5.5 t4 -4t2 -2.5t2 -1l6 2v2q0 6 -10 19zM246 627l10 10v10zM256 799l8 -4q7 0 27 7t26 7q9 0 9 -2h28q11 0 23 8q-9 25 -27 25q-22 0 -45 -33l-10 8l-6 2h-2q-7 0 -31 -18zM264 313h17v15h-17v-15zM264 393h17v17h-17v-17zM264 737q14 -22 41 -22l10 2l11 14q0 27 -29 27 q-24 0 -33 -21zM285 496l10 -11h4q1 0 16 11q-7 10 -16 10q-7 0 -14 -10zM295 1128l10 -10l10 10h-20zM305 1061l10 -12h2q4 0 19 12l2 2q0 4 -12 16zM336 686l10 -8l21 18l-13 11zM336 897q11 -15 41 -25q29 -19 31 -34h18q32 0 41 18l-10 12q-12 -4 -23 -4q-25 0 -53 17 q-35 18 -41 16h-4zM346 1159l8 -8v8h-8zM346 1200l8 -8l13 8l-13 10zM346 1262q3 -13 16 -13h25v13q-28 0 -33 8zM377 1028l31 -29l4 -2q6 5 14 11q2 6 2 12v8q0 14 -10 14q-9 0 -41 -14zM406 733q0 -26 38 -26q13 0 23 10l-41 41q-20 -9 -20 -25zM426 909h31v9q0 12 -13 12 q-18 0 -18 -19v-2zM444 999l13 -20l10 8l-14 12h-9zM444 1061l13 8h-13v-8zM457 799l10 -13h8q17 0 23 13q6 0 28 9t29 9q8 0 25 -10v8q-17 33 -39 33q-18 0 -45 -21q-3 -2 -17.5 -12.5t-21.5 -15.5zM467 655l14 -10l4 2q13 10 13 15q0 16 -15 16q-16 0 -16 -19v-4zM485 707 l23 -21q2 -2 6 -2h2q7 0 17.5 4.5t21.5 11.5t12 7q-9 20 -30 20q-26 0 -52 -20zM485 889h19v14h-19v-14zM485 938q5 -2 9.5 -5t6.5 -4t3 -1l4 2q8 8 8 14q0 14 -10 14q-21 0 -21 -16v-4zM498 598q19 -51 59 -51q19 0 31 18zM498 987l10 -8h2q1 0 2.5 1t5.5 3l8 4l2 4 q0 5 -12 17zM508 465l8 -10l10 10l-10 10zM516 514q3 -8 21 -8h6h4v2q0 6 -9 16.5t-12 10.5zM580 506l36 -31l-8 -10q26 -23 31 -23q2 0 5 1t5 1q-29 50 -69 62zM598 786l10 -8h8q15 -3 21 8l-21 21zM608 375h15v14h-15v-14zM608 535l8 -9h19q45 0 63 29h-8h-8q-23 0 -37 -6 q-8 -3 -17 -6.5t-13.5 -5t-6.5 -2.5zM616 666l21 -19q4 6 26 16t25 15q-2 10 -14 10q-6 0 -30 -11t-28 -11zM616 737q6 -12 19 -12h14l10 16q0 17 -14 17q-8 0 -29 -21zM637 354l12 -10l4 -2h2q7 0 33 23q-7 10 -14 10q-4 0 -18 -10.5t-19 -10.5zM657 807q1 0 12 -10.5 t17 -10.5h2q10 17 10 19q0 12 -20 12q-14 0 -21 -10zM678 293l10 -10q16 3 25 8.5t6 11.5h-25q-13 0 -16 -10zM678 479q0 -14 22 -14q25 0 39 20q-7 11 -22 11h-29q-10 -7 -10 -17zM688 848l21 -21h6q16 -2 30 19q22 31 23 31l-8 12q-9 -21 -29 -21q-40 0 -43 -20zM709 999 l30 -20q7 7 39 10q28 3 31 19q-5 2 -8 2h-41q-29 0 -51 -11zM721 637q17 -5 32 -8t25.5 -4.5t12.5 -1.5q44 3 59 32q-8 37 -33 37q-7 0 -26 -3t-23 -3q-19 0 -29 10l21 -41zM739 354l9 -10l12 10l-12 11zM748 526l30 -20v8zM748 737l12 -12q6 8 28 53q-30 -8 -40 -41z M760 1061h14v14h-14v-14zM768 932q0 -7 10 -14h25q10 0 16 12q-24 18 -33 18q-18 0 -18 -16zM778 838l23 -23h6q16 0 22 12q-2 1 -15.5 11t-18.5 10q-10 0 -17 -10zM778 1090l31 -21l10 14q0 19 -18 19q-17 0 -23 -12zM817 778q0 -10 24 -28t27 -25h9h4q7 0 19 20t20 23h-9 h-6q-4 0 -22.5 -2t-22.5 -2q-27 0 -41 22zM840 909l14 -12h6l8 16q0 17 -12 17q-16 0 -16 -19v-2zM850 807l10 -8l8 8l-8 8zM868 1262q13 -13 17 -13q7 0 20.5 15.5t14.5 15.5zM879 948q9 0 26.5 -15t20.5 -15q6 0 12 12q-7 -2 -23 13t-20 15q-6 0 -16 -10zM879 1028l12 -8 l8 8l-8 10zM899 696l12 -10h21q11 0 18 10q-8 11 -24 11q-22 0 -27 -11zM899 868q3 -12 19 -12h12q10 12 10 18q0 15 -12 15q-8 0 -29 -21zM911 807l9 -8q2 1 29 7.5t32 20.5q-9 9 -16 9q-3 0 -24.5 -15t-29.5 -14zM920 354q32 -14 59 -14q10 0 22 4q-7 0 -29 10.5t-30 10.5 q-7 0 -22 -11zM920 1155q0 -9 10 -16l8 12l2 2q0 6 -10 16q-10 -7 -10 -14zM930 434l8 -10l12 10l-12 10zM971 264h14v15h-14v-15zM971 1008l10 -9q10 3 10 17v6v6zM981 1262q17 4 39 18q-10 0 -39 -18zM991 555l10 -10l11 10l-11 10zM991 647l10 8h-10v-8zM1001 606h15v15 h-15v-15zM1012 717l8 -10h4q3 0 16 10q-2 10 -14 10t-14 -10zM1012 1049q23 -23 30 -23q2 0 5 1t4 1v10q-23 23 -29 23q-7 0 -10 -12zM1020 893q0 -16 16 -16l15 12l-21 20q-10 -10 -10 -16zM1061 434l10 -10l10 10l-10 10zM1071 514h16v16h-16v-16zM1071 979h16v14h-16v-14 zM1081 1249q9 23 33 23q37 0 49 8q-11 11 -20 11q-2 0 -4 -1h-1q-10 0 -57 -41zM1153 596h12v14h-12v-14z" />
<glyph unicode="n" horiz-adv-x="1007" d="M68 145q5 115 8 222.5t3.5 167.5t2.5 81q0 29 12 41q-4 34 -5.5 73.5t-1.5 100t-1 89.5l-2 233l8 12l-18 248q23 57 67 57q14 0 23 -6q6 -2 24 -2q5 0 33 1t49 1q60 0 86 9q69 -45 97 -138q15 -81 45 -164q27 -77 39 -120q-22 22 -31 22h-2q-1 0 -3 -1t-3 -1l-23 -20 q12 -15 49 -37q30 -17 41 -53q12 -31 66 -31h28q2 2 7.5 7t8 8t6.5 7.5t5.5 8.5t1.5 8q-6 12 -20 12h-9l-10 -14q8 52 8 127q0 72 -6 133q-8 110 -8 133q0 26 6 74q4 23 60 41q26 -13 59 -13q10 0 46 3t46 3h5q69 0 75 -75q-10 -3 -10 -11q0 -2 2 -8t1 -11.5t-7 -10.5 q-3 -256 -4 -444t-1 -267.5t1 -77.5q-2 -2 -2 -31q0 -89 20 -430l-2 -2q-3 -29 -6 -45.5t-16 -34t-35 -18.5q-33 9 -54 9q-7 0 -12 -1q-13 0 -57 -4t-56 -4q-40 0 -77 21q-50 74 -50 170q-3 4 -9 23t-20.5 64t-29.5 89q-43 178 -59 209q9 -3 22 -3q65 0 86 41q-11 11 -24 11 h-35q-6 -17 -19 -17q-4 0 -18.5 7.5t-19.5 7.5q-13 0 -23 -19l-10 10q-33 -15 -39 -61q-9 -46 -33 -59q21 -12 21 -33q0 -6 -4.5 -27.5t-4.5 -27.5q0 -20 21 -35v1v1v1v1v-1v-1v-1v-1v-1v-1v-1v-1v-1v-1v-1v-1v-1v-1v-1v-1v-1v-1v-1v-1v-1v-1v-1v-1v-1v-10q0 -7 0.5 -32.5 t0.5 -55t-1 -61.5q0 -13 -1 -46.5t-1.5 -47.5t-3 -36.5t-6.5 -39.5q-36 -25 -103 -25l-129 4q-59 20 -59 88q0 29 10 41zM113 1040h16v17h-16v-17zM133 303l31 -10v10h-31zM164 1323l8 -10h25q13 0 16 10q-6 12 -25 12q-18 0 -24 -12zM203 696h10q16 0 23 11l-13 10z M213 598q9 -39 43 -39q12 0 18 6zM223 393l13 -8v-2q5 0 18 10q-3 13 -16 13q-8 0 -15 -13zM223 817l13 -8v-2q5 0 18 10q-3 12 -16 12q-9 0 -15 -12zM236 948q3 13 14 13q3 0 14.5 -6.5t14.5 -6.5q9 0 16 13q-12 12 -25 12q-18 0 -34 -25zM244 727l10 -10l20 20l-10 11z M264 1174l10 8h-10v-8zM274 639l21 -21q21 9 31 14t21 20t11 36q0 11 -4 19q-3 -23 -35 -37q-36 -12 -45 -31zM274 909l11 -10h4q1 0 2.5 1t5.5 4t8 5q-4 11 -14 11q-13 0 -17 -11zM283 791q2 0 36 -10.5t46 -10.5q26 0 41 18v21q-2 2 -9 2h-8q-13 0 -53 -8q-40 -12 -53 -12 zM295 717l18 -21l13 11q-6 12 -19 12h-4zM295 1030l10 -8v8h-10zM305 850h14v14h-14v-14zM305 1174l8 -21l13 8q-4 2 -7.5 5.5l-5.5 5.5t-4 2h-4zM326 930l8 -10q5 0 41 8q23 3 31 20q-4 2 -9 2h-2q-17 0 -35 -6q-9 -4 -17 -7.5t-12 -4.5t-5 -2zM334 565l20 -20v10 q-3 2 -5 4l-3.5 3.5l-2.5 2.5l-1.5 1.5t-1.5 0.5zM334 981q0 -2 33 -2q26 0 39 10q-9 12 -21 12q-7 0 -26 -10t-25 -10zM334 1034q0 -9 10 -12q4 2 14 10q7 7 7 15v4q-3 2 -5 2t-4 2q-22 0 -22 -21zM354 1120l11 -10h8q12 0 22 10q-7 15 -20 15t-21 -15zM365 879 q6 -1 28 -11t31 -10q10 0 22 12l-20 19l49 20q-26 23 -31 23q-18 0 -18 -19q0 -11 8 -14q-16 -8 -28 -8q-32 0 -41 -12zM375 1192l10 -18l10 8l-14 10h-6zM385 1063q6 -12 16 -12h15q10 5 10 20v8q-6 13 -14 13t-27 -29zM385 1282h14v16h-14v-16zM395 707q15 -11 17 -11h4 l2 4q-4 7 -12 17zM395 748q4 -11 23 -11h8q13 19 57 35q51 16 64 27q-16 16 -39 16q-28 0 -59 -24q-16 -12 -29.5 -23t-18.5 -15.5t-6 -4.5zM426 639l8 -12h4q4 0 19 12q-8 8 -17 8q-10 0 -14 -8zM426 1010l14 -11l6 2v3q0 6 -12 18zM434 829l12 -12q5 9 27.5 20t24.5 13v2 q0 1 -1.5 2.5t-4 6t-5.5 9.5zM446 1092l11 10h-11v-10zM457 1200l10 -8zM467 948l20 -18l19 18l-19 21zM475 688q3 -10 19 -10q22 0 22 2q10 10 10 12q0 15 -18 15q-17 0 -33 -19zM487 537l37 -31l13 10q-8 0 -22.5 13.5t-16.5 13.5q-11 0 -11 -6zM537 717l10 -10l51 51 q-10 10 -16 10q-9 0 -24 -24t-21 -27zM545 420q0 -4 2 -4l31 18q-6 12 -17 12q-16 0 -16 -22v-4zM547 657l14 -10h4q13 13 13 15q0 16 -15 16q-16 0 -16 -19v-2zM557 870l8 -12h4q7 0 19 12q-3 9 -17 9q-11 0 -14 -9zM565 496q15 -21 33 -21q9 0 39.5 10.5t40.5 10.5 q-24 18 -55 18t-58 -18zM565 545q9 9 44 20t38 13q-20 8 -26 8q-44 0 -56 -41zM578 354l10 -10l10 14v7h-4q-6 -5 -16 -11zM588 627l10 -11q1 1 22 11t21 18v4q0 1 -1 4t-1 4q-13 13 -16 13q-4 0 -16.5 -21t-18.5 -22zM588 829h12v15h-12v-15zM588 909l10 -10l8 10l-8 11z M606 788q1 0 4 -1t4 -1h9q20 0 59 17l55 26l-28 21q-13 -28 -52 -37q-41 -9 -51 -25zM618 840h9q12 12 12 14v4zM627 393l12 -8l2 -2q1 0 18 10q-10 13 -18 13q-4 0 -14 -13zM639 741q0 -14 14 -14h25l10 14v7q-9 12 -29 12t-20 -19zM647 324h15v16h-15v-16zM647 688h15v14 h-15v-14zM659 909h15v17h-15v-17zM668 586l10 12h-10v-12zM668 1141h14v16h-14v-16zM670 1062v1q0 -12 10 -12q6 0 18 12v8q0 14 -10 21q-4 -7 -11 -19zM678 639q14 -14 45 -14t45 14q0 31 -47 31q-23 0 -33.5 -7t-9.5 -22v-2zM688 516l10 -10h2q7 0 17 10l2 4q-4 7 -10 17z M698 696h9q15 0 22 11l-12 10zM709 174l8 -12l12 12l-12 8zM709 899l8 -20l12 10q-4 2 -7.5 5t-5 4t-3.5 1h-4zM717 365q15 -11 16 -11h4l2 2q0 2 -10 19zM717 481q0 -14 12 -14l8 -2q18 0 21 10q-4 2 -10 14q-10 7 -15 7q-16 0 -16 -15zM729 283q3 -2 6.5 -5t5 -4.5 t2.5 -1.5l7 2q10 10 10 17l-2 2l-10 2q-16 0 -19 -12zM750 1030l18 -20l20 20q-7 10 -20 10q-15 0 -18 -10zM758 858l10 -9q11 -9 16 -9h4l13 14q0 16 -23 16q-14 0 -20 -12zM768 578l10 -13h4q7 5 17 13q-3 10 -15 10q-13 0 -16 -10zM799 446h12l10 15l-2 6h-4 q-16 0 -16 -16v-5zM858 817l12 -8l11 8h-23zM870 707h2q2 0 4.5 1.5t7 4t7.5 4.5l-10 10z" />
<glyph unicode="o" horiz-adv-x="964" d="M57 772q2 0 3.5 31t6 122t11.5 189q9 116 67 174q29 100 140 148q100 41 207 41q214 0 325 -134q-4 -6 -4 -14q0 -9 20.5 -32.5t22.5 -30.5q20 -63 25 -127q24 -262 24 -365l-2 -295q-16 -10 -17 -20q0 -4 5.5 -21.5t5.5 -21.5q0 -11 2 -17q-34 -201 -106 -288 q-48 -60 -117 -84.5t-174 -24.5q-159 0 -271 66q-61 49 -102 135q-41 81 -55 162q-5 107 -8 217t-4 148.5t-5 41.5zM117 459h14v14h-14v-14zM127 526l10 -10h8q19 0 19 10q0 13 -19 13q-15 0 -18 -13zM145 713l11 -21l8 10q-13 13 -14 13zM203 901q0 -8 12 -14l8 10v2l-8 16 q-12 -3 -12 -14zM205 596h14v14h-14v-14zM233 469l11 -10v10h-11zM233 1032l11 -18l10 10q-4 2 -7.5 5t-5 4t-3.5 1zM244 965q3 5 21 11t18 13v4q-18 -3 -39 -24v-4zM254 305q0 -12 14 -12h25q10 13 10 16l-2 4q-7 11 -29 11q-18 0 -18 -19zM262 526h10q11 18 11 19v2h-4 q-17 0 -17 -17v-4zM283 1296q6 -12 18 -12q31 0 31 2v10q-11 11 -25 11q-13 0 -24 -11zM322 526h14v17h-14v-17zM332 692l8 10h-8v-10zM340 236h14v16h-14v-16zM340 399q11 -8 16 -8h4q11 15 11 17v4q-4 -2 -21 8zM340 586l31 -19q7 0 10 8l16 -20v-10q0 -14 -8 -19 q8 -8 8 -37v-38q-10 -17 -10 -25q0 -9 16.5 -37.5t16.5 -38.5v-8q34 -70 106 -70h9q6 0 10 2q-10 13 -10 27q1 6 24.5 44.5t26.5 64.5q-2 27 -3.5 60t-2.5 49.5t-2.5 32t-4.5 23.5q13 7 13 19q0 5 -5.5 18t-5.5 17q0 11 9 14l-11 10v9q0 16 11 20l-11 10q0 2 -1 5.5t-1 4.5 v15q0 74 50 74h4q5 0 8 -3q-10 13 -15 13q-4 0 -14 -4t-14 -4q-17 0 -17 20q5 6 11 16q-11 19 -9 31q0 12 9.5 45.5t9.5 40.5l10 -10l8 10l-8 8l-10 -8q-21 21 -21 45l13 78q-2 40 -36.5 75.5t-72.5 35.5q-43 0 -65 -58q-12 -16 -23 -90v-2q0 -4 4 -21t4 -22q0 -16 -16 -22 q16 -16 16 -39q0 -6 -3 -28.5t-3 -29.5q0 -16 6 -28q-10 -7 -10 -15q0 -3 6 -11t6 -11q0 -8 -10 -15q11 -16 8 -57v-57q-10 -10 -10 -23q0 -6 5 -25t5 -24q0 -17 -16 -27q-30 23 -33 23q-6 0 -8 -2v-10zM340 1128l10 11h-10v-11zM350 809h17v14h-17v-14zM371 1159 q13 -10 14 -10l4 2v2q0 2 -8 14zM397 256l23 -20v10q-7 -3 -23 10zM420 1237h14v14h-14v-14zM467 168h14v14h-14v-14zM475 1245q4 -8 12 -8q9 6 27 20q0 7 -8 7q-8 -5 -31 -19zM475 1343h17v15h-17v-15zM487 215l11 -8h20q14 0 17 8q-6 12 -23 12q-16 0 -25 -12zM535 129 l20 -10v10h-20zM573 1178l11 -19v8zM584 236h14v16h-14v-16zM594 293l57 20h-47zM612 1042q23 -20 31 -20h4q2 0 4 2v8q-1 -2 -3.5 -1t-4 1t-4 2t-3.5 3t-3.5 4t-3.5 4t-3 4t-3 4zM612 1229h39v8q-3 10 -10 10q-6 0 -17 -9zM623 692h14v15h-14v-15zM672 215l10 -8l8 8l-8 12 zM672 440h14v15h-14v-15zM682 1139q6 -11 14 -11h15v11q-3 12 -17 12q-12 0 -12 -12zM690 508l10 -10v10h-10zM690 1053l10 -11l11 11l-11 10zM700 360h17v17h-17v-17zM711 1198l6 -4t4 -3l2 -2t2 -1l4 2l2 2q0 4 -10 14zM721 954h12v15h-12v-15zM758 741l10 -10v10h-10z M788 1063h15v12h-15v-12zM797 653q6 -12 34 -12q13 0 17 2q-7 10 -21 10h-30zM797 817q3 -1 6 -2.5t4 -3t2 -2t2 -0.5h6v4q-4 6 -8 16zM827 489h15v15h-15v-15z" />
<glyph unicode="p" horiz-adv-x="933" d="M70 1407q3 31 57 63l448 -6q14 -14 35 -14q6 0 27 2t27 2q26 0 47 -24q28 -22 41 -17q137 -101 137 -285v-8q18 -38 18 -84l4 2q-2 -3 -4 -12t-4 -25t-4 -34.5t-5 -49t-7 -59.5q-11 -81 -80 -162q-72 -79 -152 -100q-33 -10 -120 -10q-88 0 -119 -54q-2 -3 -9 -14.5 t-12 -17.5l29 -428q3 -31 -62 -72q-21 11 -55 11q-8 0 -16 -1q-7 2 -21 2q-18 0 -48 -3q-52 -5 -60 -5q-48 0 -70 24q-17 18 -17 46q0 11 3 24l4 518q2 -2 10 -2q16 0 49 33v4q0 5 -12 17l-47 -13l-2 131q0 30 10 123q-8 3 -8 17v22l6 19zM141 786l11 -8q2 -2 6 -2h2 q7 0 33 23q-3 6 -15 6q-15 0 -37 -19zM170 283q5 0 19.5 -10.5t19.5 -10.5q4 0 14 10q-5 1 -19 11t-18 10q-6 0 -16 -10zM170 424l12 -8v8h-12zM193 1071l10 -10h2q1 0 18 10q-7 10 -16 10q-11 0 -14 -10zM211 879l20 -21l13 10q-7 11 -19 11h-6h-8zM231 745l21 23h-8z M244 494l8 -9l12 9l-12 12zM244 920l20 -21l8 10l-20 21zM264 596h15v16h-15v-16zM272 786l11 -8l8 -2h4q11 0 22 8q25 14 25 15q-17 10 -37 10q-24 0 -33 -23zM283 948l10 -8l4 -2q1 0 2.5 1t5.5 4t8 5q-7 13 -14 13q-13 0 -16 -13zM301 690q0 -9 12 -12l9 10h2q0 4 -11 19 q-12 -3 -12 -17zM301 1051q27 -27 49 -27q9 0 12 6l-11 7q-11 7 -22 12.5t-16 5.5q-4 0 -12 -4zM313 600q0 -8 9 -14l20 20l-14 10q-15 0 -15 -16zM313 1251h23q15 0 18 13q-7 10 -20 10q-24 0 -21 -17v-6zM354 727h15v14h-15v-14zM362 1182q3 -13 19 -29l22 -23 q0 -1 1.5 -3.5t1.5 -4.5v-4q0 -9 -23 -57q20 -20 20 -49q0 -7 -3 -32.5t-3 -33.5q0 -44 31.5 -75t77.5 -31q-12 -15 -12 -19l2 -4h8q13 0 20 10l-28 21q14 24 28 24q6 1 30 -16.5t30 -17.5q13 0 22 20q-20 4 -51 23q35 52 35 130v13q0 106 -27 145q-21 28 -63 33 q-57 9 -84 29l-13 -19h21q10 -7 10 -20v-10q-9 -21 -22 -21q-6 0 -25 10.5t-25 10.5zM373 868h16v15h-16v-15zM383 494l10 -9v9h-10zM383 758h14v14h-14v-14zM416 627l4 6t3 4l2 2t1 2l-2 6h-8v-20zM424 799l10 -13l21 21l-11 2q-17 0 -20 -10zM444 737q12 -12 17 -12l4 2 q10 13 10 14q0 17 -12 17q-19 0 -19 -17v-4zM483 641q0 -11 13 -14h20q30 0 39 20q-10 10 -27 10q-32 -1 -32 -2q-13 -3 -13 -14zM496 1264l39 -23q18 12 40 12q18 0 58 -16q42 -18 55 -14h8q-18 7 -61 30q-43 19 -70 19q-10 -10 -16 -10q-4 0 -19 6t-18 6q-6 0 -16 -10z M514 1333l10 -10zM606 1071h15v14h-15v-14zM668 807h8l31 33zM668 940l2 -2q3 0 16 10l-10 13zM686 717h16v14h-16v-14zM686 999h16v17h-16v-17zM768 1075q0 -9 8 -14l10 10l2 2q0 7 -12 19q-8 -5 -8 -17z" />
<glyph unicode="q" horiz-adv-x="942" d="M49 549q0 29 10 49q-10 20 -10 49q0 27 10 47q-6 4 -6 60q0 86 4 96q0 59 4 125q5 176 48.5 281.5t142.5 158.5q6 1 19 5t36.5 11t46.5 13q73 20 94 20h5q48 0 108 -14q88 -25 108 -25h3q115 -61 172 -198q39 -94 39 -269q-1 -14 -4 -67.5t-5 -95.5q-2 -19 -2 -97v-65 q0 -115 11 -162v2q-23 -129 -31 -197q-24 -109 -84 -174q-18 -14 -59 -51q-41 -35 -41 -53q0 -16 12 -31q8 -28 88 -53q71 -21 68 -45q1 -15 -14 -22.5t-50 -10.5q-82 8 -115 14q-66 13 -92 13q-75 0 -139 67q-69 72 -143 95q-17 23 -50 20q-131 110 -145 193 q-39 234 -39 311zM127 956h18v11h-4q-3 0 -14 -11zM127 1016h12v14h-12v-14zM135 297h33q11 0 27 8q-10 10 -19 10zM166 528h12v17h-12v-17zM184 1286l11 -8h4h6q10 0 18 8q-6 12 -18 12q-15 0 -21 -12zM223 686l10 8h-10v-8zM233 393q13 -10 15 -10h4q10 13 10 14l-2 6h-8 q-16 0 -19 -10zM233 580l27 -31l10 10q-24 21 -26 21h-11zM244 803l8 -10v10h-8zM270 948l13 -10v10h-13zM270 1141l13 12h-13v-12zM283 238l16 -19v10q4 16 -8 19zM291 616h8h2q13 0 49 31q-12 8 -18 8q-29 0 -41 -39zM322 1141h14v14h-14v-14zM340 909l10 -10l10 10l-10 9 zM348 1008l2 -2l2 -2q5 0 17 12q7 -7 10 -39t10 -39q-6 -12 -6 -29q0 -8 4.5 -37t3.5 -38q0 -50 -41 -62l29 -18q-4 -15 2 -23q8 -16 8 -22q0 -5 -10 -15q10 -33 10 -57t-10 -57l10 -13v-8q0 -15 -10 -18q10 -13 10 -25q0 -4 -5 -21t-5 -22q0 -13 10 -20q-12 -18 -12 -43v-5 q0 -41 41 -100l-49 -18q11 -21 28 -21q8 0 39 10.5t39 10.5q7 10 19 10q4 0 17.5 -3t16.5 -3q11 0 17 6l-23 18q15 10 21 56q3 46 30 51v10q0 14 -10 21l29 36q-7 0 -13 4t-15 14.5t-11 12.5l20 21l2 4q0 10 -22 35l20 18v2q0 -1 -2.5 1.5t-7 9.5t-10.5 16l20 20 q-20 11 -20 33q0 6 10 30.5t10 30.5q0 18 -20 31q0 1 -1 4t-1 4v8q0 6 22 72q-12 6 -12 12q0 3 6 12t6 11q0 4 -10 14q12 12 12 29q0 7 -7 30.5t-7 30.5q0 19 23 35l8 -10l10 10l-10 10l-19 -20q-18 12 -24 51q-6 37 -14 47l-39 39q-15 15 -37 15q-23 0 -47 -37 q-26 -39 -43 -45l10 -11v1v-1v-1v-1v-1v-1v-1v-1v-1v-1v-1v-1v-1v-1v-1v-1v-1v-1v-1v-1v-1v-1v-1v-1v-1v-1v-1v-1v-1v-1v-1v-10q0 -21 -10 -28l-9 8q-12 -9 -12 -16zM360 141l2 -2q1 0 17 13l-10 8zM369 1237l10 -8l18 18h-10q-13 3 -18 -10zM369 1325h14v14h-14v-14z M379 199l10 -9h23q13 0 16 9q-9 12 -25 12q-18 0 -24 -12zM379 1161l10 -20l8 12q-3 2 -6.5 4t-5 3t-2.5 1h-4zM397 53l11 -18l10 8q-12 12 -17 12zM418 102q22 -10 33 -10q9 0 16 10l-39 19zM418 297v14h14v-14h-14zM457 219l10 -8l2 -2q3 0 16 10q-7 10 -16 10 q-5 0 -12 -10zM485 74l11 -11h2q5 0 16 11l2 4q0 4 -10 14zM496 1219h26q16 0 23 10q-5 8 -19 8q-20 0 -30 -18zM506 141l16 -20l13 8l-21 23zM506 1393h14v16h-14v-16zM545 199l18 -19l4 -2q4 0 10 5t11 11l4 5q-9 12 -25 12t-22 -12zM553 1153l49 -43l10 12q-4 13 -30 19 t-29 12zM563 315l29 -39l10 11q-4 3 -17.5 12t-21.5 16zM584 -37v-4q-1 -1 3 -2h17q17 0 17 10q-3 10 -19 10q-10 0 -15 -4q-4 -3 -4 -7q0 -1 1 -3zM584 354l8 -10l10 10l-10 11zM592 84l10 -21l10 11l-6 4t-4 3l-2 2t-2 1h-6zM602 1192q12 -12 16 -12h3v4q0 4 -9 16z M612 938h15v14h-15v-14zM621 393l6 -4t5 -3t3 -2t2 -1h4v4q0 3 -10 16zM641 326h16v16h-16v-16zM649 733l10 -8v8h-10zM659 74h17v14h-17v-14zM670 1044l10 -10v10h-10zM680 627l8 -11h35q19 0 25 11q-12 12 -35 12q-24 0 -33 -12zM688 803h23v2q0 4 -13 14zM698 180l13 -10 l8 10l-8 10zM698 520h15v15h-15v-15zM698 1229h15v14h-15v-14zM719 287l8 -11q12 12 12 17l-2 4h-2q-6 0 -16 -10zM719 481l8 -20l10 10q-13 10 -14 10h-4zM758 567l8 -8l10 8l-10 13zM766 842l10 -11v11h-10zM864 705h15v14h-15v-14z" />
<glyph unicode="r" horiz-adv-x="1021" d="M66 162l32 833q-10 7 -10 23q1 26 2 26l4 3l15 -11l20 25q0 14 -10 14q-3 0 -15 -4.5t-18 -3.5l-4 354q39 51 145 54q35 0 99 -9q43 -6 98 -6q43 0 78 4q44 5 65 5q10 0 15 -1q109 0 178 -25t106 -83q42 -61 72 -285q8 -27 2 -49v-10q0 -75 -41 -182q-8 -24 -43 -52 q-35 -30 -35 -55q0 -18 45 -86q49 -71 49 -115q0 -24 -8 -37q17 -29 23 -71q2 -15 2 -35t-2 -45q-1 -21 -1 -42v-28.5t-1 -7.5q0 -26 16 -92q15 -50 19 -90q0 -23 -15 -53q-20 -20 -53 -23q-10 0 -47 6t-47 6q-23 0 -43 -10l-13 8q-5 -8 -22 -8q-8 0 -30 10t-25 11 q-53 53 -56 237q1 10 1 38.5t1 45.5q2 18 2 45q0 23 -2 27v13q0 136 -120 179q-17 -10 -33 -10q-7 0 -27 3t-26 3q-16 0 -25 -6q40 -12 43 -49q0 -9 -8 -40.5t-8 -41.5q0 -25 14 -43q-21 -12 -21 -29q0 -7 11.5 -30.5t11.5 -30.5q0 -19 -12 -29q12 -78 12 -117v-10l-2 -137 q-22 -43 -82 -43q-14 0 -60 8t-57 8q-6 0 -32 -7.5t-35 -6.5q-33 -1 -54.5 26.5t-23.5 65.5q-2 18 10 51zM147 842l13 -8h4q1 0 2.5 1t5.5 3l8 4q-6 12 -14 12q-13 0 -19 -12zM170 305h14v17h-14v-17zM170 459l10 -10v10h-10zM170 520l10 -12h31q12 0 18 12q-10 10 -28 10 q-21 0 -31 -10zM188 702l13 -12h22q16 0 19 12q-10 13 -27 13q-14 0 -27 -13zM201 772l18 -20l10 12q-4 8 -16 8h-4h-8zM211 256l8 -8v8h-8zM219 195l10 -9v9h-10zM219 397h17v17h-17v-17zM219 1106h17v14h-17v-14zM242 610l41 -30l8 10q-4 7 -25 12t-24 8zM250 813l20 -8v8 h-20zM260 913l10 -10h4q4 0 17 10q-3 13 -15 13q-13 0 -16 -13zM270 651l13 11h-13v-11zM283 1147l8 10h-8v-10zM291 459l10 -10q0 4 14 12q7 11 7 12v6zM291 1036l10 -12h4q5 0 17 12v2q0 1 -11 19zM301 975q5 6 31 9.5t30 10.5q-9 9 -22 9q-29 0 -39 -29zM322 285 q9 -9 14 -9q4 0 19 10t18 11q-10 10 -31 10q-11 0 -16 -4.5t-4 -11.5v-6zM322 526q0 -11 10 -18l30 33h-30q-10 -10 -10 -15zM322 772l10 -8l20 18h-12q-15 0 -18 -10zM342 682q6 -2 18 -2q27 0 52 14q52 29 53 29v2q0 3 -12 18q-37 -48 -111 -61zM352 1329l10 -10q-3 0 3 0 h24q16 0 23 10q-10 10 -29 10q-21 0 -31 -10zM373 854q0 -15 10 -20l8 8v12q3 12 -8 20q-10 -5 -10 -20zM373 1085h14v17h-14v-17zM383 520h14v15h-14v-15zM383 741l8 -10l12 10l-12 11zM403 1157q9 -55 11 -104q-1 -24 -1 -47v-36t0.5 -24t0.5 -12q15 -79 63 -82 q11 0 51 12.5t52 12.5q22 0 34 -15l13 12l-31 21q-2 2 -2 4v2q0 13 20 33l29 -31h6q4 0 17 10l-23 21h-2q-5 0 -16 -8q1 27 1 53q0 72 -10 135q-6 44 -38 73q-30 27 -69 27h-5q-72 0 -101 -57zM412 815q0 -22 16 -22h4l12 16q0 14 -20 14l-12 -2v-6zM465 641l18 -18 q14 4 62 39h-13h-8q-44 0 -59 -21zM473 782l10 -10q9 6 25 6q4 0 23.5 -3t23.5 -3q26 0 41 21q-3 12 -16 12l-25 -2q-36 -10 -82 -21zM483 713l23 -23l8 12q-4 11 -16 11h-6h-9zM494 1268h14v14h-14v-14zM573 1288l13 -8v8h-13zM606 741h6h2q5 0 11.5 3t11.5 6.5t11 8t7 5.5 q-12 8 -18 8q-31 0 -31 -31zM627 500l8 -11h4q5 0 16 11q-3 10 -14 10t-14 -10zM627 641h14v14h-14v-14zM643 610l23 -20v10q-12 12 -19 12zM666 782q7 -10 16 -10q7 0 24 10t19 11q-6 12 -25 12q-27 0 -34 -23zM676 954l8 -10l12 10l-12 11zM696 690l9 -8l12 8l-12 12z M696 1057l4 -5q3 -4 6.5 -7.5t8.5 -7t8 -3.5l2 2l2 2q0 8 -9 18.5t-13 10.5zM705 600l12 -10l10 16l-2 4l-2 2q-3 0 -18 -12zM717 1268l8 -21v21h-8zM786 1157h17v17h-17v-17z" />
<glyph unicode="s" horiz-adv-x="974" d="M49 373q0 92 41 108q4 -2 12 -2h15q13 0 56 2t54 2q86 0 119 -39q3 -54 28 -93.5t79 -76.5q13 -10 26 -10q7 0 27 6t26 6q17 0 29 -12q25 19 19 49h10q10 0 31 21q-21 12 -21 33q0 7 5 29t5 30q0 30 -53 80.5t-164 132.5q4 16 4 23q0 34 -57 43q-121 81 -190 178 q-73 106 -73 217q0 11 1 22v8q0 176 123 267q55 40 125 55.5t170 15.5q322 0 378 -231q3 -13 11.5 -36t14 -41.5t5.5 -33.5q0 -86 -114 -86q-32 0 -89 13l-81 18l-21 78l8 -10l23 22q-57 37 -158 68q-28 -11 -59 -51q-29 12 -45 24q-34 27 -45 27q-16 0 -27 -23q4 -4 53 -28 q41 -17 41 -39q0 -10 -6 -19q3 -50 61 -102q31 -29 86 -94l-10 -11l19 -18q3 8 16 8h23l206 -178q10 0 25 -18q14 -10 31 -58q11 -34 41 -51q33 -77 33 -158q0 -13 -1 -26q7 -21 7 -45l2 2q-7 -114 -50 -181q-62 -99 -137 -122q-27 -22 -51 -37q-45 -30 -172 -33 q-3 0 -17.5 0.5t-20 1t-19 1.5t-20.5 2t-19.5 2.5t-21.5 4t-19.5 6t-20.5 7.5q-90 14 -151 59q-54 40 -105 129q-51 115 -51 162zM186 1030h17v14h-17v-14zM227 1219q3 -13 21 -13q20 0 26 13h-47zM256 274h14v17h-14v-17zM274 983l13 8v10zM315 197h17v16h-17v-16zM354 139 l11 -12l10 12l-10 8zM365 913l10 -10v10h-10zM375 776l39 29h-8zM385 963h14v14h-14v-14zM453 854h14v14h-14v-14zM512 1364h14v14h-14v-14zM532 147l19 -20l10 12q-5 8 -16 8h-6h-7zM541 776h14v15h-14v-15zM592 168l8 -10l8 10l-8 8zM608 608l13 -10h20q16 0 16 10 q-7 10 -22 10q-17 0 -27 -10zM639 334q3 -12 16 -12l25 2v10q-5 10 -23 10q-15 0 -18 -10zM649 422h17v14h-17v-14zM668 139h14v15h-14v-15zM668 657l12 -18v10zM758 541l10 -11zM786 334q6 -12 17 -12l24 2v10q-26 0 -30 8z" />
<glyph unicode="t" horiz-adv-x="948" d="M39 1284q0 41 4 74q8 44 8 69q0 24 29 33q33 8 43 13l598 -11q7 0 43 6.5t47 6.5q55 -3 80 -23q17 -46 20 -104q-1 5 -2 -4q-1 -12 -5 -87l-3 -45q-24 -38 -65 -38q-10 0 -48 5.5t-49 4.5h-5q-38 0 -64 -28q-27 -30 -39 -91q10 -5 10 -23v-10l-18 -20q17 -22 20 -74 q0 -31 -10 -86q10 -38 10 -80q-10 -77 -8 -84l16 -604q-16 -17 -25.5 -43t-15.5 -29q-9 -7 -41 -7q-11 0 -24 1q-87 -6 -115 -6q-83 3 -121 41v205q0 30 2 76t2 63q2 11 4 30q5 41 8 41q1 0 3 -5q-3 134 -8.5 260t-7.5 180q-1 30 -2 47q0 13 1 18q-3 33 11 56q-11 33 -11 55 q0 33 13 53q-34 46 -95 58q-9 -2 -27 -2q-30 0 -85 6l-27 4q-52 21 -52 84q0 7 1 14zM322 1174q5 0 21.5 -10.5t21.5 -10.5q9 0 16 10q-11 21 -31 21q-15 0 -28 -10zM332 1077q0 -9 10 -12l20 16l-16 13q-14 0 -14 -17zM342 952l2 -2q2 0 18 13l-12 10zM371 602l10 -8l10 8 l-10 10zM391 893h15v14h-15v-14zM391 1053l10 -11l5 -2q6 5 16 13q-3 12 -16 12q-12 0 -15 -12zM401 322q15 -11 17 -11l4 2v2q0 4 -10 17zM401 1200q16 -8 17 -8h4v4q0 1 -1 2.5t-4 5.5t-5 8zM412 643h14v14h-14v-14zM451 1241q10 -29 26 -29q8 0 39 15.5t39 15.5q4 0 6 -2 q-11 14 -24 14q-8 0 -30.5 -13t-29.5 -13q-14 0 -26 12zM504 1303l8 -11l8 11l-8 10zM520 842l10 -21l11 13q-13 8 -15 8h-6zM520 1184l10 -10v10h-10zM530 1130l23 -8l-12 8h-11zM541 322q4 -11 16 -11l25 2v9q-26 0 -29 10zM592 1223l10 -11q21 15 39 52zM692 1212 q6 21 29 21q29 0 41 8q-9 12 -21 12q-15 0 -26 -16q-5 -6 -10.5 -11.5l-8.5 -8.5t-4 -5z" />
<glyph unicode="u" horiz-adv-x="989" d="M59 1354q17 45 29 90q15 26 115 29q28 0 96 -11q8 8 20 8q4 0 23.5 -4t24.5 -4q30 -24 30 -55v-6q0 -6 -2 -10l-8 -11q10 -39 10 -66v-9q1 -7 1 -15q0 -26 -7 -67q-4 -33 -4 -78q-1 -9 -1 -18q0 -32 9 -60q-8 -21 -8 -51q0 -13 5 -54.5t5 -50.5q0 -26 -10 -53 q10 -13 10 -29q0 -5 -4 -25t-4 -26q0 -18 6 -26q-3 -18 0 -62q3 -32 -8 -57q10 -17 10 -31q0 -7 -5 -30t-5 -29q0 -16 8 -29q-8 -8 -8 -25q0 -6 5 -25t5 -26t-10 -24q17 -52 29 -68q18 -38 51 -49l2 2h6q11 0 39.5 -16.5t34.5 -16.5q17 0 26 31q-8 11 -30 8q3 5 29.5 11 t29.5 20q-14 10 -14 26q0 7 8 34.5t8 33.5q0 22 -10 35q8 11 8 37q0 6 -5 35t-5 36q0 36 49 39q-34 7 -37 35q-9 50 -10 51l-2 35v41q0 46 10 76q-10 23 -10 68q1 69 2 69q8 11 8 27q0 7 -5 28t-5 27q0 12 10 29q-10 7 -10 18q1 31 2 31l18 18l-18 21l8 256q64 33 148 33 q92 -3 159 -21q7 -48 11 -115q0 -3 -3 -61t5 -61l-4 -672q-7 -21 -7 -35q0 -6 3.5 -27.5t3.5 -27.5q0 -17 -9 -39l11 -8l-31 -181q0 -2 -1.5 -5t-5.5 -9.5t-7 -13.5q-59 -105 -146 -142q-41 -38 -117 -47q-14 -1 -58.5 -4t-68.5 -6q-21 5 -110 14q-10 2 -31 5t-31.5 5 t-24.5 6t-24 9q-56 24 -90.5 67.5t-60.5 114.5q-20 90 -23 254q-2 93 -4.5 199t-4 164t-2.5 113.5t-1 81.5t2 34q-3 39 8 57q-11 45 -11 91q0 13 1 26v16q0 64 -21 97zM139 721l11 -8v8h-11zM170 1038h14v15h-14v-15zM180 623l16 -11q17 -10 25 -10q9 0 19 10q-11 11 -27 11 h-33zM180 801q13 -13 15 -13l4 3l2 2q0 5 -11 16zM209 455l10 -11l8 11l-8 10zM227 276h17v17h-17v-17zM248 553l10 -8q10 10 10 14v2l-4 2q-3 0 -16 -10zM248 997h14v15h-14v-15zM258 829l21 -10v10h-21zM279 424h8q12 12 12 16v4h-4q-16 0 -16 -18v-2zM299 209h14v14h-14 v-14zM317 1214l39 -38l11 10zM328 139l10 -10l10 10l-10 8zM328 217h14v14h-14v-14zM338 778h10l31 31zM338 918l10 -9v9h-10zM346 686q0 -6 10 -16l23 20q-15 12 -19 12q-14 0 -14 -16zM356 444h17v15h-17v-15zM436 276q15 -12 17 -12l4 2v2q0 6 -11 17zM514 147l21 -18 l10 10q-4 11 -17 11h-4zM575 176l9 -18l12 10q-17 10 -18 10zM625 336l10 -10h8q11 0 21 10q-7 10 -21 10q-15 0 -18 -10zM625 424h16v14h-16v-14zM625 1057q10 -10 16 -10h2l2 4q0 3 -10 16zM635 651q13 -10 14 -10h4v10q0 19 -10 19zM643 139h14v15h-14v-15zM702 1225 l11 -11h2q3 0 18 11q-7 10 -14 10q-14 0 -17 -10zM723 532l10 -8q8 11 8 15v6h-2q-3 0 -16 -13zM741 840l11 -11l12 11l-12 10zM752 485h16v15h-16v-15zM764 336q6 -12 18 -12l29 2v10h-4q-32 0 -35 10zM772 424h14v14h-14v-14zM852 1018h14v14h-14v-14z" />
<glyph unicode="v" horiz-adv-x="962" d="M37 1397q0 25 8 53q55 21 101 21q9 0 18 -1q11 2 27 2q37 0 98 -10l49 -51v-16q0 -34 20 -43q-4 -8 -4 -21q0 -11 7.5 -40t7.5 -36q0 -17 -11 -32l19 -21l31 -260q13 -21 8 -49q0 -36 12 -51h-6q1 0 -4 -4.5t-21 -16.5q1 0 16.5 -15t22.5 -15q3 0 7 1t6 1q-2 -6 2 -12.5 t13.5 -16l12.5 -12.5h8h11q22 0 49 16q12 6 22.5 12.5t15 9.5t5.5 3q-6 20 -33 20q-24 0 -39 -10q39 83 45 213q6 145 29 217q2 15 5 43t6 50.5t7 43.5q14 75 68 100q24 -4 39 -4q45 0 108 11q75 -3 105 -56l-8 -10q-10 -46 -52 -276t-80 -404q-31 -41 -43 -127q1 -18 1 -34 q0 -64 -19 -97q-3 -6 -21 -11t-18 -11q0 -19 29 -19q-7 -7 -12 -57q-5 -36 -37 -33l-21 -18l21 -21l12 10l10 2l-43 -252q-5 -30 -51 -51q-32 -12 -78 -12q-8 -1 -17 -1q-28 0 -73 7q-3 0 -90 8l-29 23l-80 407q9 6 9 13q0 4 -11.5 16t-11.5 16l-37 252q-1 3 -5 12t-7 15 q-19 59 -19 109v26q-13 26 -22 35l-78 403zM238 1122h14v17h-14v-17zM287 715l20 -23l12 17q0 16 -18 16q-7 0 -14 -10zM287 772h14v14h-14v-14zM328 602q23 -10 45 -10q26 0 43 10q-9 23 -47 23q-35 0 -41 -23zM328 1032h14v15h-14v-15zM338 782h39v11q-3 12 -19 12 q-12 0 -17 -5q-4 -4 -4 -9q0 -2 1 -5v-4zM348 494l10 -21q11 15 11 16l-2 5h-19zM348 664q13 -13 14 -13h5q10 13 10 19v4h-10q-6 1 -11.5 -2t-7.5 -8zM358 862h15v15h-15v-15zM367 449q0 -10 10 -17h8q17 0 23 12q-2 0 -11 10.5t-14 10.5q-16 0 -16 -16zM387 264l10 -20 l4 6t3.5 5t2.5 3t1 2v4h-21zM387 334h14v14h-14v-14zM416 545q3 -2 5.5 -4.5t4 -3.5t3 -2.5l2 -2t1.5 -0.5h4l13 17q0 14 -15 14q-18 0 -18 -16v-2zM428 702q3 -10 16 -10h15v10q-7 13 -17 13q-11 0 -14 -13zM436 403q2 3 21.5 9.5t19.5 13.5v6q-9 12 -14 12q-27 0 -27 -32 v-9zM459 184h12v15h-12v-15zM477 473l8 -10h4q2 0 19 10q-3 12 -16 12q-12 0 -15 -12zM485 623h4q2 0 19 10l-10 10zM498 123h14v16h-14v-16zM506 674q0 -23 20 -23q7 0 15 6.5t16 15.5t10 11q-8 8 -20 8h-29q-12 -6 -12 -18zM508 553l10 -11q9 -10 14 -10h5v21 q-3 10 -17 10q-9 0 -12 -10zM518 424l2 -2q4 0 17 10l-11 12zM526 494l23 -21v10q-18 11 -19 11h-4zM557 528q0 -12 10 -14l21 18q-13 13 -17 13q-14 0 -14 -17zM588 854l18 -12v12h-18zM606 1032l12 -8l3 -2q5 0 18 10q-7 10 -18 10q-8 0 -15 -10zM618 752l9 -11l12 11 l-12 12zM627 432h14v17h-14v-17zM647 842h15v14h-15v-14zM668 514h14v14h-14v-14zM668 1024l20 -20l8 8q-6 12 -16 12h-6h-6zM676 913l12 -10l8 10l-8 9zM688 772h14v14h-14v-14zM727 1174q3 -13 18 -13h13v13q-6 -6 -21 8zM737 952l8 11h-8v-11zM737 1081h15v17h-15v-17z " />
<glyph unicode="w" horiz-adv-x="1490" d="M49 1417q0 23 12 35q38 20 117 23h9q35 0 112 -13l55 -63q0 -37 5.5 -91.5t11 -95.5t20 -136t21.5 -144q-21 -6 -21 -19q0 -1 16.5 -22t14.5 -29q14 -22 14 -45q3 -31 -55 -65q9 -19 59 -19q90 73 90 155v5q4 -2 13 -2q11 0 47 31l2 6q-4 6 -10 14q-3 -10 -19 -10l-16 2 l43 420q8 95 49 108q3 0 33.5 4.5t53 6t48.5 0.5q55 -3 88 -13q40 -45 40 -153q0 -20 -1 -43q23 -29 23 -90q0 -34 -4 -52q22 -37 22 -55v-6q0 -1 -1 -4t-1 -4l-8 -13q-10 13 -23 13h-28l-21 -21q10 -13 53 -22q39 -6 39 -31q0 -10 -4 -16q6 -35 -16 -50q5 -8 33 -36 q6 -9 6 -52q0 -40 30 -43q9 -12 17 -12q4 0 19 11.5t20 11.5q4 0 12 -11q12 3 12 13q0 2 -5.5 12t-4.5 16v12q0 66 29 148l-8 10l59 439q28 41 109 41q8 0 67 -3q16 -1 29 -1q27 0 43 4q41 -24 41 -68q0 -10 -11 -63.5t-10 -67.5q-10 -26 -20 -92q-4 -20 -13 -97 q-2 -3 -8 -19.5t-12 -25.5l-76 -467q-11 -17 -11 -36q0 -14 5 -29l-63 -334q-9 -24 -9 -67v-17q-3 -90 -138 -90h-9h-1q-10 0 -144 12l-25 31l-84 530q-12 72 -70 97q-64 -48 -82 -207q-10 10 -14 10l-4 -2q-5 -5 -11 -13l-9 -9l2 -7q34 -3 34 -24q0 -9 -8 -40t-8 -40 q0 -6 -10 -16l8 -9l-41 -270q-40 -43 -110 -43h-9h-15q-54 0 -134 12q-24 6 -49 72q0 1 1 3t1 3v10q0 10 -11 52q-10 45 -10 51l-41 268q-2 5 -5.5 20.5t-6.5 24.5q-10 33 -10 47v10q0 1 1 4.5t1 4.5q2 0 5.5 -1t6.5 -1q10 0 47 32q-11 11 -20 11q-4 0 -21.5 -5.5 t-21.5 -5.5l-9 11q-3 20 -22 101t-40 200.5t-36 257.5v10q0 24 -16 80q-17 60 -17 80t4 30q-12 12 -12 35zM100 1282q13 -10 17 -10h4l2 4q-4 6 -12 16zM260 752q4 -11 19 -11h12l10 11q10 11 10 16l-2 4q-1 0 -3 1t-3 1h-4q-5 0 -13 -4.5t-15.5 -10.5t-10.5 -7zM291 391 l8 -8v8h-8zM299 254l23 -10v10h-23zM322 1032h14v15h-14v-15zM330 842l20 -21l10 13q-3 8 -18 8h-2h-10zM342 715l4 -2h2q9 0 33 18l-10 10zM360 463l11 -8l10 8l-10 8zM360 883l21 -21l10 10l-20 21zM371 561l10 -8h4q6 2 14 8q-3 12 -14 12t-14 -12zM412 504l10 -12l10 12 l-10 8zM420 651q0 -12 12 -18l10 11q9 10 9 15v3q-12 12 -17 12q-14 0 -14 -23zM422 561q3 -8 16 -8h13q10 3 10 18v11q-2 2 -8 2h-2q-9 0 -29 -23zM451 483h16v15h-16v-15zM469 391h20v12h-2q-3 0 -18 -12zM469 682l12 10h-12v-10zM481 623h15v16h-15v-16zM489 459 q0 -1 1.5 -3l4.5 -6t5 -8q46 21 86 21h4q-33 10 -49 10q-19 0 -52 -10v-4zM489 524l11 -12q3 15 26 18q25 3 25 15l2 8zM489 723l17 -10l6 2q0 4 -12 16zM512 322h12v16h-12v-16zM520 602l10 -8l2 -2q6 0 19 10q-3 12 -16 12q-12 0 -15 -12zM541 362l14 -10h4v2q0 6 -8 19z M541 752h18q9 20 37 20q46 0 55 21q-14 20 -22 20q-5 0 -25 -17.5t-29 -17.5q-4 0 -16 4l-9 -10q-9 -9 -9 -14v-6zM551 707q0 -17 14 -17l25 2l10 15v8q-7 10 -29 10q-20 0 -20 -18zM582 1024l8 -12h4q4 0 16 12q0 6 -10 16zM590 602q20 -10 47 -10q23 0 43 10 q-12 23 -47 23q-34 0 -43 -23zM610 489q0 -11 13 -18l8 12v2q0 2 -1 4.5t-3 6.5l-4 8q-13 -6 -13 -15zM610 662q0 -13 17 -13q14 0 24 13l-20 20q-21 -7 -21 -20zM623 862l18 -20v10q-13 10 -16 10h-2zM623 1223l36 -11v11h-36zM651 991q4 -4 39 -18q10 3 10 18v13h-28 q-14 0 -21 -13zM659 834l21 -31h22q27 0 39 18q-13 13 -36 13h-46zM690 702q7 -10 19 -10h6h6v2q0 12 -8 15q-13 13 -13 14zM700 883l11 -11h2q1 0 16 11q0 10 -14 10q-8 0 -15 -10zM721 1032h14v15h-14v-15zM721 1223h14v14h-14v-14zM729 963h16v14h-16v-14zM750 764 q12 -6 22 -6q9 0 38 18.5t38 16.5h2q-8 14 -31 14q-37 0 -69 -43zM750 1212l51 -38l10 8zM770 907q0 -11 10 -14l21 20q-4 2 -8 5l-6 4.5t-3 1.5q-14 0 -14 -17zM780 674q0 -23 23 -23q30 0 39 31q-7 10 -23 10h-28q-11 -7 -11 -18zM780 952l11 -10h2q5 0 18 10v2 q0 6 -10 19zM791 1040h16v19h-16v-19zM829 524q12 -12 19 -12h2l10 14q0 17 -12 17q-19 0 -19 -17v-2zM842 862l28 -28q12 4 13 4q5 0 20 -8.5t19 -8.5q11 0 18 21q-3 3 -41 12q-27 10 -43 10q-8 0 -14 -2zM860 893l10 -10l4 -2q5 0 17 12q-7 10 -17 10q-11 0 -14 -10z M870 471l11 -16l10 8q-13 10 -17 10zM891 764l18 -23l11 11q0 12 -17 12h-6h-6zM897 432q0 -20 25 -20h4q4 0 6 2v8q-22 22 -27 22l-6 -2q0 -1 -1 -4t-1 -4v-2zM899 504q9 -12 23 -12h26l7 6q7 5 12.5 10t5.5 8l-2 8q-2 0 -4.5 1t-3.5 1h-7q-11 0 -28 -10q-10 -5 -20 -8z M909 633q10 -10 19 -10q5 0 21.5 10t21.5 10v8q3 13 -10 23q0 -15 -26 -27.5t-26 -13.5zM909 715l11 -13h4q3 0 16 13q-3 8 -14 8q-12 0 -17 -8zM920 322l12 -9q2 -2 6 -2q7 0 33 23q-5 8 -15 8q-6 0 -19.5 -9.5t-16.5 -10.5zM940 772l21 -20l12 16q0 14 -19 14 q-11 0 -14 -10zM961 272l14 -10l6 2q8 12 8 15v4h-10q-13 0 -18 -11zM961 449q0 -19 18 -19q6 0 31 25q0 8 -17 8h-22q-10 -3 -10 -14zM1001 602q21 -12 43 -10q60 0 60 35q0 5 -11.5 23.5t-11.5 23.5q-13 -23 -32 -23q-31 0 -39 -8l30 -20zM1010 334l10 -21l10 9 q-12 12 -16 12h-4zM1020 162h16v16h-16v-16zM1020 492l31 -21l-21 21h-10zM1051 723l10 8h-10v-8zM1061 322q3 -9 16 -9h13v9q-3 12 -15 12q-11 0 -14 -12zM1061 414l8 -11v11h-8zM1069 623v16h16v-16h-16zM1090 543l10 -11v11h-10zM1100 731h16v17h-16v-17zM1130 883h15v14 h-15v-14zM1139 582l12 12h-12v-12zM1159 524q15 -12 17 -12h4l12 14v6h-12q-16 0 -21 -8zM1159 1231h15v16h-15v-16zM1192 662h14v18h-14v-18zM1192 834l8 -13l8 13l-8 8zM1208 322h19v16h-19v-16zM1298 1012h17v14h-17v-14z" />
<glyph unicode="x" horiz-adv-x="987" d="M61 68q3 32 25 88q7 17 33 86q8 20 33 51l86 248q3 24 18 69l43 84q27 52 27 92q0 48 -31 84q-5 6 -15 28.5t-29.5 67t-39.5 85.5q-26 82 -57 153q-8 23 -20 52t-32 75t-34 80q9 47 26 53q4 2 21 2q4 0 18.5 1t24.5 1h6q21 0 104 7h7q78 0 106 -62q14 -35 35 -131 q16 -77 69 -121l82 80l-10 12q1 5 33 125q28 75 80 88l237 -4q4 -12 4 -41v-7q0 -36 -26 -95q-37 -76 -37 -96q-34 -44 -49 -107q-29 -79 -54 -104q-4 -51 -40 -117q-41 -74 -41 -113q0 -17 14 -51q3 -22 18 -65q20 -37 45 -95q27 -62 27 -92q111 -271 160 -446v2 q-43 -35 -127 -35q-2 -1 -9 -1q-28 0 -137 15q-68 53 -71 179q0 14 4 38q-30 23 -47 72q-21 54 -54 70l-38 -37l-80 -273q-42 -61 -159 -61h-11q-8 -1 -17 -1q-39 0 -104 11q-14 26 -17 56zM266 1001l13 -10v10h-13zM279 262h32q17 0 27 10q-11 11 -21 11q-7 0 -22 -10.5 t-16 -10.5zM297 492h20v10l-4 2q-4 0 -16 -12zM317 1280l11 -8q6 -2 22 -2q14 0 17 10q-9 12 -25 12q-19 0 -25 -12zM356 483h17v15h-17v-15zM356 662l11 -11h4q5 0 16 11v4l-8 16zM367 561q9 -35 43 -35q13 0 16 6zM377 367q0 -12 10 -15h8q21 0 21 10l-29 21 q-10 -3 -10 -16zM379 780q4 -3 8 -7q3 -3 4 -3l6 2v4q-4 7 -10 17zM379 1122h12v17h-12v-17zM408 702l8 -12v12h-8zM408 1141q3 -2 6.5 -4.5t5 -4.5t2.5 -2h4v7q0 6 -10 16zM416 932l20 -10l-10 10h-10zM426 602l23 -20q3 2 15 7t17 8t10.5 9.5t6.5 14.5q-4 2 -13 2 q-13 0 -59 -21zM436 752l13 -11l8 11l-8 10zM436 872h17v15h-17v-15zM446 668q0 -13 11 -17l12 11v4q0 4 -12 16q-11 -4 -11 -14zM457 1130l12 -20l8 12l-14 8h-6zM487 532l19 -20v10q-13 10 -14 10h-5zM487 752q7 -11 21 -11h29q10 3 10 21v10q-1 0 -4 1t-4 1h-2 q-5 0 -13 -3t-14 -6.5t-13.5 -7.5t-9.5 -5zM487 881h9q17 0 20 12q-4 8 -10 8q-19 0 -19 -16v-4zM487 1001l11 -10h2q3 0 16 10q-4 11 -14 11q-11 0 -15 -11zM506 453h20q13 13 13 16l-2 2l-7 2q-24 0 -24 -16v-4zM506 1071q16 -8 18 -8h2l13 12q0 17 -15 17q-18 0 -18 -17 v-4zM518 383q0 -6 6 -6q3 0 15.5 3t15.5 3q18 0 23 -10l4 6t3 5t2 3t1 2v2q-45 0 -62 10q-2 -4 -4 -8.5t-3 -6.5t-1 -3zM526 1153l11 -23l10 11l-15 12h-6zM537 913h16v15h-16v-15zM537 963h16v14h-16v-14zM547 1022l8 -10l12 14v6h-4q-3 0 -16 -10zM555 842l23 -21l10 10 q-6 11 -19 11h-4h-10zM578 463l10 -10h2q3 0 16 10q-3 8 -14 8t-14 -8zM578 713l10 10v8zM588 881l14 -9h4l2 5q0 4 -12 16zM606 561h17v17h-17v-17zM627 762l20 -10v10h-20zM627 913l12 -12l8 12l-8 9zM657 1012l11 -11v11h-11zM668 571h14v15h-14v-15zM668 1223h14v14h-14 v-14zM745 1122h17v17h-17v-17z" />
<glyph unicode="y" horiz-adv-x="927" d="M39 1423q-2 5 -2 9q0 13 20 24l39 17q30 -5 37 -5q15 0 57 3.5t54 3.5q85 -3 112 -64l-2 -8q2 -15 21 -121q22 -68 22 -109v-10l70 -90l49 39q25 -16 23 -18h8l18 18q-22 31 -39 33l70 285q81 43 172 43q33 0 119 -11q4 -12 4 -45q0 -55 -27 -125q-20 -43 -43 -118 l-114 -340q-1 -4 -4.5 -20t-8.5 -28q-23 -62 -30 -79q-19 -49 -19 -84h-6q3 0 -13 -13q-4 -4 -10 -8l31 -14l-2 -522q-34 -66 -127 -66l-114 9l-48 3q-20 2 -39.5 22t-19.5 40q0 6 5 25.5t5 25.5q0 5 -2.5 17.5t0.5 13.5l2 469q-19 45 -31 92q-22 81 -22 92q-18 32 -33 92 q-25 46 -50 117.5t-64 196t-68 208.5zM127 1282q13 -10 16 -10h2l2 4q-4 4 -10 16zM297 1004h16v14h-16v-14zM307 754l8 -13h4q5 0 17 11l12 12q-6 6 -12 6q2 0 -1 -1t-11.5 -5.5t-16.5 -9.5zM315 1077q0 -9 13 -12l8 8l2 2q0 2 -10 19q-13 -6 -13 -17zM336 1241h14v16h-14 v-16zM348 256l8 -12v12h-8zM356 1032l11 -8v8h-11zM367 842l10 -19l8 11q-10 10 -14 10zM385 733h16v15h-16v-15zM385 883l21 -21l12 17q0 16 -15 16q-12 0 -18 -12zM418 754q10 -13 16 -13q4 0 20.5 11.5t20.5 11.5q-10 10 -26 10q-22 0 -31 -20zM426 913l10 -10h4 q7 4 17 10q-4 11 -17 11q-10 0 -14 -11zM446 1004q5 0 21.5 -10.5t21.5 -10.5q10 0 17 10q-7 9 -49 31zM457 643q10 13 10 14v7h-10v-21zM467 573h14v15h-14v-15zM526 1024l13 -10l8 14v4l-4 2q-7 -4 -17 -10zM539 924q20 -23 28 -23t8 2l13 15v6h-4q-34 0 -37 8zM547 1184 q10 -10 14 -10h4v2q0 6 -10 16zM596 715l10 -10v10h-10zM606 1024l10 -10l21 18l-10 2q-18 0 -21 -10zM657 793h15v16h-15v-16zM666 1223h16v14h-16v-14z" />
<glyph unicode="z" horiz-adv-x="919" d="M61 63q10 39 13 127q0 73 16 123q0 50 39 115q32 55 53 115q70 76 78 172q40 29 68 116q33 95 63 121q1 5 31 74q18 59 18 76l21 20l-37 56l-254 6q-8 -10 -16 -10q-4 0 -21 9t-20 9q-35 32 -35 113q0 33 12 127l41 32l539 -2q7 0 43 6q28 5 40 5h7h7q52 0 75 -41 q-4 -12 -4 -13q0 -6 6 -24t6 -23q0 -13 -8 -18v-78q-3 -55 -13 -84q2 -2 2 -6q0 -3 3 -6q0 -15 -25 -47.5t-25 -45.5q0 -10 4 -22q0 -4 -8.5 -20.5t-31.5 -58.5t-41 -77q-53 -95 -66 -166q-54 -78 -106 -200q-56 -128 -105 -181q26 -3 49 -36t49 -33h4l256 18q45 -19 62 -57 q-12 -24 -12 -53q0 -19 6 -67.5t6 -49.5l2 -2q-3 -82 -102 -82q-32 0 -91 12q-56 12 -78 12q-6 0 -10 -1q-13 0 -54 -5.5t-52 -5.5q-32 0 -82 8l-231 -16q-52 12 -56 16q-27 15 -35 43zM211 283h14v16h-14v-16zM211 424l8 -10v10h-8zM219 483l12 -10h7q17 0 22 10 q-7 11 -20 11q-14 0 -21 -11zM231 74l9 10h-9v-10zM252 154l8 -11l4 -2q7 5 17 13q-3 10 -15 10q-11 0 -14 -10zM252 223h14v15h-14v-15zM260 375h14v14h-14v-14zM309 362l33 -20v12q-8 8 -18 8h-5h-10zM322 424l10 -10l10 14v4h-4q-1 0 -2.5 -1t-5.5 -3zM342 264 q5 -10 31 -10h37v18q-16 13 -39 13q-29 0 -29 -21zM350 483h21q12 12 12 17l-2 4h-4q-6 0 -27 -21zM381 1282l10 -10h29q13 0 20 10q-9 12 -30 12q-20 0 -29 -12zM422 483h12v15h-12v-15zM422 664l8 -13l10 13l-10 10zM440 184h17v15h-17v-15zM440 549q-2 -8 4.5 -12.5 t18.5 -4.5h6q2 8 -5 13t-24 8v-4zM469 1143l16 -13l7 5v2q0 3 -13 16zM479 1253l13 11h-13v-11zM492 932h14v16h-14v-16zM500 193h14v16h-14v-16zM500 602q8 -8 18 -8h14q1 3 3 6t3 4l2 2t1 2v6h-23q-12 0 -18 -12zM520 1135l12 -23l9 10q-3 2 -6.5 5.5l-5.5 5.5t-3 2h-6z M520 1223h15v14h-15v-14zM561 1004h14v14h-14v-14zM569 754l13 -13q2 5 4 9t3 5.5t1 2.5v6h-4zM580 1077q0 -9 10 -12l10 8l2 2q0 4 -12 19q-10 -7 -10 -17zM582 1233q3 -6 10 -6q26 0 29 14q0 2 -23 2q-13 0 -16 -10zM582 1323l8 -10l10 10l-10 10zM590 254l31 -31h2 q1 0 18 10v3q0 20 -27 20q-14 0 -24 -2zM590 1153l10 -18l10 8l-14 10h-6zM621 1032l10 -8v8h-10z" />
<glyph unicode="{" horiz-adv-x="786" d="M188 807q23 35 30.5 46.5t29.5 52.5t31.5 70t19 74t8.5 89q0 19 -31 101.5t-32 98.5l2 131q-2 35 9.5 56.5t45 52.5t51.5 53q13 2 42 17.5t63 27.5q29 10 47 6t33 0q4 -3 24 -11t42.5 -20.5t39.5 -29.5q13 -15 -36 -85q-2 -2 -3 -3.5t-2 -3.5q-3 -5 -77.5 -28.5 t-90.5 -47.5q-25 -28 19 -274q16 -95 12 -95q5 -7 6 -41.5t-4 -79.5t-28.5 -89.5t-63.5 -63.5q-8 -28 4 -27q39 -41 79 -117.5t36 -146.5q-1 -28 -15 -74.5t-27 -86t-18.5 -95t12.5 -100.5q45 -71 169 -116q44 -16 44 -21q0 -2 -4 -4q9 -19 14.5 -37.5t7.5 -34.5t-2.5 -25.5 t-15.5 -9.5h-178q-32 0 -102 23q-7 14 -37 24.5t-49 26.5q-9 12 -30 31t-27.5 38.5t-6.5 63.5q0 31 -3 59.5t3 55.5q4 32 8 46.5t11.5 30.5t13.5 39q8 27 35 68t25 57q0 83 -5 142q-4 40 -46 94.5t-83 91.5z" />
<glyph unicode="|" horiz-adv-x="569" d="M166 1616q11 23 19.5 33t29.5 20q19 6 49 6h41q8 -1 10 -1t4 -1t3 -2t8.5 -4.5t19.5 -7.5q3 -7 16.5 -22.5t18.5 -39.5q0 -4 5 -35t4.5 -37.5t-1.5 -39.5q-10 -49 -10 -90q0 -19 8 -129q2 -31 2.5 -74t1.5 -53q0 -70 -4 -127q-2 -14 -4 -37.5t-3 -35t-4 -25t-7 -21.5 q4 -124 5 -220t0 -197.5t-1 -129.5q0 -8 3.5 -75.5t7 -128.5t5.5 -76l2 -48q1 -18 -1 -29.5t-3.5 -18.5t-10.5 -13t-14 -9t-22 -9.5t-27 -10.5q-23 -4 -90 6q-28 6 -28 12q1 1 -0.5 1h-8.5q-20 14 -20 37q0 7 5 31t5 30q0 18 -12 33q3 36 5.5 78.5t5 78t4.5 73t4 67.5 t4 58.5t4 49t4.5 35t4.5 20.5t5 3q-15 20 -22 201.5t-17 669.5q-3 132 -4 204z" />
<glyph unicode="}" horiz-adv-x="786" d="M227 1650q-14 50 33 50l139 -2q31 0 101 -23q7 -14 37 -23.5t49 -25.5q8 -12 28 -31.5t26.5 -38.5t6.5 -61q0 -31 3.5 -60.5t-3.5 -54.5q-4 -31 -7.5 -45t-11 -30.5t-14.5 -38.5q-4 -16 -16 -54.5t-17 -60t-3 -35.5q0 -22 6 -92q4 -42 47.5 -108t77.5 -95 q-45 -66 -88.5 -178.5t-42.5 -214.5q0 -18 32 -85.5t33 -84.5l-10 -98q1 -27 -8.5 -48t-21.5 -33t-36 -35t-41 -44q-12 -2 -40.5 -17t-61.5 -26q-30 -10 -47 -6.5t-33 -1.5q-11 6 -21 1t-29 -2.5t-36 19.5q-12 11 -3 60.5t26 74.5q3 5 76 28t89 48q25 27 -32 239 q-16 62 -13 62q-3 5 -4 34.5t3.5 73.5t15 88.5t33.5 83.5t55 54q8 28 -4 27q-38 40 -77.5 116.5t-35.5 145.5q1 27 14.5 73t26 84.5t17.5 93t-13 99.5q-45 72 -144 109q-25 10 -25 13q0 2 5 5q-30 30 -41 71z" />
<glyph unicode="~" horiz-adv-x="1204" d="M90 754q-7 6 1.5 60.5t17.5 72.5q5 8 55.5 46t71.5 48q87 20 177 31q20 3 15 0q4 2 20.5 2t40.5 -3t53 -15.5t52 -32.5q50 -54 70 -62l73 -41q12 0 54.5 -8.5t60.5 -1.5q21 8 31.5 13.5t16.5 10t11 7.5q30 24 40 37t9 22.5t1 13.5q4 6 4.5 12.5t-0.5 10t-1.5 6.5t1 4.5 t6.5 1.5l73 4q71 0 82 -35q-2 -5 -11.5 -20t-16.5 -30.5t-8 -30.5q-1 -4 -4.5 -15.5t-5.5 -18t-5.5 -17.5t-7 -18t-7.5 -14.5t-8.5 -12t-9.5 -5.5q-4 -1 -26 -22t-31 -23q-18 -6 -36 -10.5t-27.5 -6.5t-12.5 -5q-5 -5 3 -14q4 -6 -7 -8q-19 -3 -100 -3q-8 1 -34.5 -4 t-43.5 -4q-14 1 -32 10t-32 19t-31 23.5t-22 16.5q-12 10 -24.5 35t-33 42t-63.5 24q-11 1 -30.5 12t-30.5 12l-59 -16q-12 -6 -20.5 -11.5t-20 -11.5t-41.5 -18q-6 2 -12 -8.5t-16 -26.5t-23 -24q-11 -7 -23 -12.5t-19.5 -8.5t-20 -6.5t-17.5 -5.5q-3 2 -14.5 5.5t-25.5 10 t-26 17.5z" />
<glyph />
<glyph unicode="&#xa2;" />
<glyph unicode="&#xa3;" />
<glyph unicode="&#xa5;" />
<glyph unicode="&#xa7;" />
<glyph unicode="&#xa8;" />
<glyph unicode="&#xa9;" />
<glyph unicode="&#xad;" horiz-adv-x="694" d="M66 676q0 10 2 14l34 23q-2 0 -4.5 -1t-3.5 -1h-6q-18 0 -18 20q0 4 2 17.5t2 17.5q0 14 -6 20q8 8 8 21q0 3 -2 15t-2 16q0 9 12 24q205 22 518 2l23 -59l-9 -19q-3 -10 9 -16l1 3q1 -1 1 -13v-74q0 -66 -54 -88q-73 7 -245 4q-136 -3 -244 12q0 8 -9 31.5t-9 30.5z M182 719h41q-20 4 -41 4v-4zM217 748q35 0 43 4q-7 10 -22 4l-10 -4l-7.5 -3t-3.5 -1zM238 655h34l-28 7zM260 723l23 -4v4h-23zM289 748q12 -3 33 0q24 6 30 4q-25 7 -63 -4zM295 655h45l-39 7zM324 780l16 6h-10zM330 719q27 -7 39 -25q-5 3 -15 19q-9 9 -24 6zM387 748 h35q-16 16 -35 0zM397 821l25 -6zM403 655l35 7zM432 741q7 2 28.5 5t35.5 6q-15 5 -33 -2z" />
<glyph unicode="&#xae;" />
<glyph unicode="&#xb0;" />
<glyph unicode="&#xb1;" />
<glyph unicode="&#xb4;" />
<glyph unicode="&#xb5;" />
<glyph unicode="&#xb6;" />
<glyph unicode="&#xc4;" />
<glyph unicode="&#xc5;" />
<glyph unicode="&#xc6;" />
<glyph unicode="&#xc7;" horiz-adv-x="710" />
<glyph unicode="&#xc9;" />
<glyph unicode="&#xd1;" horiz-adv-x="710" />
<glyph unicode="&#xd6;" />
<glyph unicode="&#xd8;" />
<glyph unicode="&#xdc;" />
<glyph unicode="&#xdf;" />
<glyph unicode="&#xe0;" />
<glyph unicode="&#xe1;" />
<glyph unicode="&#xe2;" />
<glyph unicode="&#xe3;" />
<glyph unicode="&#xe4;" />
<glyph unicode="&#xe5;" />
<glyph unicode="&#xe7;" />
<glyph unicode="&#xe8;" />
<glyph unicode="&#xe9;" />
<glyph unicode="&#xea;" />
<glyph unicode="&#xeb;" />
<glyph unicode="&#xec;" />
<glyph unicode="&#xed;" />
<glyph unicode="&#xee;" />
<glyph unicode="&#xef;" horiz-adv-x="468" />
<glyph unicode="&#xf1;" horiz-adv-x="694" />
<glyph unicode="&#xf2;" />
<glyph unicode="&#xf3;" horiz-adv-x="1734" />
<glyph unicode="&#xf4;" />
<glyph unicode="&#xf5;" />
<glyph unicode="&#xf6;" />
<glyph unicode="&#xf9;" />
<glyph unicode="&#xfa;" />
<glyph unicode="&#xfb;" />
<glyph unicode="&#xfc;" />
<glyph unicode="&#x2000;" horiz-adv-x="969" />
<glyph unicode="&#x2001;" horiz-adv-x="1938" />
<glyph unicode="&#x2002;" horiz-adv-x="969" />
<glyph unicode="&#x2003;" horiz-adv-x="1938" />
<glyph unicode="&#x2004;" horiz-adv-x="646" />
<glyph unicode="&#x2005;" horiz-adv-x="484" />
<glyph unicode="&#x2006;" horiz-adv-x="323" />
<glyph unicode="&#x2007;" horiz-adv-x="323" />
<glyph unicode="&#x2008;" horiz-adv-x="242" />
<glyph unicode="&#x2009;" horiz-adv-x="387" />
<glyph unicode="&#x200a;" horiz-adv-x="107" />
<glyph unicode="&#x2010;" horiz-adv-x="694" d="M66 676q0 10 2 14l34 23q-2 0 -4.5 -1t-3.5 -1h-6q-18 0 -18 20q0 4 2 17.5t2 17.5q0 14 -6 20q8 8 8 21q0 3 -2 15t-2 16q0 9 12 24q205 22 518 2l23 -59l-9 -19q-3 -10 9 -16l1 3q1 -1 1 -13v-74q0 -66 -54 -88q-73 7 -245 4q-136 -3 -244 12q0 8 -9 31.5t-9 30.5z M182 719h41q-20 4 -41 4v-4zM217 748q35 0 43 4q-7 10 -22 4l-10 -4l-7.5 -3t-3.5 -1zM238 655h34l-28 7zM260 723l23 -4v4h-23zM289 748q12 -3 33 0q24 6 30 4q-25 7 -63 -4zM295 655h45l-39 7zM324 780l16 6h-10zM330 719q27 -7 39 -25q-5 3 -15 19q-9 9 -24 6zM387 748 h35q-16 16 -35 0zM397 821l25 -6zM403 655l35 7zM432 741q7 2 28.5 5t35.5 6q-15 5 -33 -2z" />
<glyph unicode="&#x2011;" horiz-adv-x="694" d="M66 676q0 10 2 14l34 23q-2 0 -4.5 -1t-3.5 -1h-6q-18 0 -18 20q0 4 2 17.5t2 17.5q0 14 -6 20q8 8 8 21q0 3 -2 15t-2 16q0 9 12 24q205 22 518 2l23 -59l-9 -19q-3 -10 9 -16l1 3q1 -1 1 -13v-74q0 -66 -54 -88q-73 7 -245 4q-136 -3 -244 12q0 8 -9 31.5t-9 30.5z M182 719h41q-20 4 -41 4v-4zM217 748q35 0 43 4q-7 10 -22 4l-10 -4l-7.5 -3t-3.5 -1zM238 655h34l-28 7zM260 723l23 -4v4h-23zM289 748q12 -3 33 0q24 6 30 4q-25 7 -63 -4zM295 655h45l-39 7zM324 780l16 6h-10zM330 719q27 -7 39 -25q-5 3 -15 19q-9 9 -24 6zM387 748 h35q-16 16 -35 0zM397 821l25 -6zM403 655l35 7zM432 741q7 2 28.5 5t35.5 6q-15 5 -33 -2z" />
<glyph unicode="&#x2012;" horiz-adv-x="694" d="M66 676q0 10 2 14l34 23q-2 0 -4.5 -1t-3.5 -1h-6q-18 0 -18 20q0 4 2 17.5t2 17.5q0 14 -6 20q8 8 8 21q0 3 -2 15t-2 16q0 9 12 24q205 22 518 2l23 -59l-9 -19q-3 -10 9 -16l1 3q1 -1 1 -13v-74q0 -66 -54 -88q-73 7 -245 4q-136 -3 -244 12q0 8 -9 31.5t-9 30.5z M182 719h41q-20 4 -41 4v-4zM217 748q35 0 43 4q-7 10 -22 4l-10 -4l-7.5 -3t-3.5 -1zM238 655h34l-28 7zM260 723l23 -4v4h-23zM289 748q12 -3 33 0q24 6 30 4q-25 7 -63 -4zM295 655h45l-39 7zM324 780l16 6h-10zM330 719q27 -7 39 -25q-5 3 -15 19q-9 9 -24 6zM387 748 h35q-16 16 -35 0zM397 821l25 -6zM403 655l35 7zM432 741q7 2 28.5 5t35.5 6q-15 5 -33 -2z" />
<glyph unicode="&#x2013;" horiz-adv-x="1157" d="M66 676q0 10 4 14l62 23q-4 0 -8.5 -1t-6.5 -1h-11q-33 0 -33 20q0 4 4 17.5t4 17.5q0 14 -11 20q14 8 14 21q0 3 -3.5 15t-3.5 16q0 9 22 24q374 22 945 2l42 -59l-16 -19q-6 -10 16 -16l2 3q2 -1 2 -13v-74q0 -66 -99 -88q-133 7 -447 4q-248 -3 -445 12 q0 8 -16.5 31.5t-16.5 30.5zM278 719h75q-37 4 -75 4v-4zM342 748q64 0 78 4q-13 10 -40 4l-18 -4t-14 -3t-6 -1zM380 655h62l-51 7zM420 723l42 -4v4h-42zM473 748q22 -3 60 0q44 6 55 4q-46 7 -115 -4zM484 655h82l-71 7zM537 780l29 6h-18zM548 719q49 -7 71 -25 q-9 3 -27 19q-17 9 -44 6zM652 748h64q-29 16 -64 0zM670 821l46 -6zM681 655l64 7zM734 741q13 2 52 5t65 6q-27 5 -60 -2z" />
<glyph unicode="&#x2014;" horiz-adv-x="2181" d="M66 676q0 10 7 14l124 23q-7 0 -16 -1t-13 -1h-22q-65 0 -65 20q0 4 7 17.5t7 17.5q0 14 -22 20q30 8 30 21q0 3 -7.5 15t-7.5 16q0 9 44 24q748 22 1891 2l84 -59l-33 -19q-11 -10 33 -16l3 3q4 -1 4 -13v-74q0 -66 -197 -88q-267 7 -895 4q-496 -3 -890 12 q0 8 -33 31.5t-33 30.5zM489 719h150q-73 4 -150 4v-4zM617 748q128 0 157 4q-25 10 -80 4q-18 -2 -36.5 -4t-27.5 -3t-13 -1zM694 655h124l-102 7zM774 723l84 -4v4h-84zM880 748q44 -3 121 0q87 6 109 4q-91 7 -230 -4zM902 655h164l-142 7zM1008 780l58 6h-36zM1030 719 q98 -7 142 -25q-18 3 -55 19q-32 9 -87 6zM1238 748h128q-59 16 -128 0zM1274 821l92 -6zM1296 655l128 7zM1402 741q26 2 104.5 5t129.5 6q-55 5 -121 -2z" />
<glyph unicode="&#x2018;" horiz-adv-x="569" d="M82 1061v473q0 32 31.5 53t66.5 21q70 -3 125 -45l-12 -531h-2q-6 -19 -27 -31t-36 -15t-46 -7q-30 2 -67 25q-39 28 -33 57z" />
<glyph unicode="&#x2019;" horiz-adv-x="569" d="M82 1061v473q0 32 31.5 53t66.5 21q70 -3 125 -45l-12 -531h-2q-6 -19 -27 -31t-36 -15t-46 -7q-30 2 -67 25q-39 28 -33 57z" />
<glyph unicode="&#x201c;" horiz-adv-x="710" d="M68 1546q0 31 31.5 52.5t66.5 21.5q68 0 127 -43l-8 -530h-2q-6 -18 -23 -29.5t-36 -16.5t-42 -9q-5 -1 -8 -1q-33 3 -65 25q-41 27 -35 57zM436 1042l2 529q34 55 111 55q55 0 96 -47l-20 -551q-53 -35 -99 -35q-32 0 -90 49z" />
<glyph unicode="&#x201d;" horiz-adv-x="710" d="M68 1546q0 31 31.5 52.5t66.5 21.5q68 0 127 -43l-8 -530h-2q-6 -18 -23 -29.5t-36 -16.5t-42 -9q-5 -1 -8 -1q-33 3 -65 25q-41 27 -35 57zM436 1042l2 529q34 55 111 55q55 0 96 -47l-20 -551q-53 -35 -99 -35q-32 0 -90 49z" />
<glyph unicode="&#x2022;" horiz-adv-x="526" d="M59 578q13 32 13 81q0 13 -3 59t-3 62q0 93 65 138l113 2q130 0 162 -76q-8 -47 -5 -117q5 -73 -4 -125q-14 -65 -69 -96q-26 1 -77.5 1t-78.5 1q-85 6 -113 70z" />
<glyph unicode="&#x202f;" horiz-adv-x="387" />
<glyph unicode="&#x205f;" horiz-adv-x="484" />
<glyph unicode="&#x2122;" />
<glyph unicode="&#xe000;" horiz-adv-x="1474" d="M0 0v1475h1475v-1475h-1475z" />
</font>
</defs>
</svg>
